M48
; DRILL file {KiCad 8.0.6} date 2024-11-29T18:17:15+0100
; FORMAT={-:-/ absolute / inch / decimal}
; #@! TF.CreationDate,2024-11-29T18:17:15+01:00
; #@! TF.GenerationSoftware,Kicad,Pcbnew,8.0.6
; #@! TF.FileFunction,Plated,1,2,PTH
FMAT,2
INCH
; #@! TA.AperFunction,Plated,PTH,ViaDrill
T1C0.0118
; #@! TA.AperFunction,Plated,PTH,ComponentDrill
T2C0.0402
; #@! TA.AperFunction,Plated,PTH,ComponentDrill
T3C0.0500
%
G90
G05
T1
X4.8031Y-3.8433
X4.8031Y-3.8827
X4.8031Y-3.9221
X4.8524Y-3.8433
X4.8524Y-3.8827
X4.8524Y-3.9221
X4.8969Y-3.8433
X4.8969Y-3.8827
X4.8969Y-3.9221
X4.9441Y-3.8985
X4.9913Y-3.8985
X5.252Y-4.1102
X5.252Y-4.1496
X5.252Y-4.189
X5.2913Y-4.1102
X5.2913Y-4.1496
X5.2913Y-4.189
X5.2913Y-4.2283
X5.6457Y-4.2362
X5.6457Y-4.2756
X5.7008Y-4.2362
X5.7008Y-4.2756
X5.7559Y-4.2362
X5.7559Y-4.2756
X5.811Y-4.2362
X5.811Y-4.2756
X5.811Y-4.315
X5.811Y-4.3622
T2
X4.8724Y-2.5295
X4.8724Y-3.1327
X4.9724Y-2.5295
X4.9724Y-3.1327
X5.0724Y-2.5295
X5.0724Y-3.1327
X5.1724Y-2.5295
X5.1724Y-3.1327
X5.2724Y-2.5295
X5.2724Y-3.1327
X5.3724Y-2.5295
X5.3724Y-3.1327
X5.4724Y-2.5295
X5.4724Y-3.1327
X5.5724Y-2.5295
X5.5724Y-3.1327
X5.6724Y-2.5295
X5.6724Y-3.1327
X5.7724Y-2.5295
X5.7724Y-3.1327
T3
X4.7055Y-4.5197
X4.9055Y-4.5197
X5.1055Y-4.5197
M30
