%TF.GenerationSoftware,KiCad,Pcbnew,8.0.6*%
%TF.CreationDate,2024-11-27T18:03:50+01:00*%
%TF.ProjectId,doorbell_watcher,646f6f72-6265-46c6-9c5f-776174636865,rev?*%
%TF.SameCoordinates,Original*%
%TF.FileFunction,Soldermask,Top*%
%TF.FilePolarity,Negative*%
%FSLAX46Y46*%
G04 Gerber Fmt 4.6, Leading zero omitted, Abs format (unit mm)*
G04 Created by KiCad (PCBNEW 8.0.6) date 2024-11-27 18:03:50*
%MOMM*%
%LPD*%
G01*
G04 APERTURE LIST*
G04 Aperture macros list*
%AMRoundRect*
0 Rectangle with rounded corners*
0 $1 Rounding radius*
0 $2 $3 $4 $5 $6 $7 $8 $9 X,Y pos of 4 corners*
0 Add a 4 corners polygon primitive as box body*
4,1,4,$2,$3,$4,$5,$6,$7,$8,$9,$2,$3,0*
0 Add four circle primitives for the rounded corners*
1,1,$1+$1,$2,$3*
1,1,$1+$1,$4,$5*
1,1,$1+$1,$6,$7*
1,1,$1+$1,$8,$9*
0 Add four rect primitives between the rounded corners*
20,1,$1+$1,$2,$3,$4,$5,0*
20,1,$1+$1,$4,$5,$6,$7,0*
20,1,$1+$1,$6,$7,$8,$9,0*
20,1,$1+$1,$8,$9,$2,$3,0*%
G04 Aperture macros list end*
%ADD10C,1.000000*%
%ADD11O,1.600000X2.000000*%
%ADD12RoundRect,0.250000X-0.350000X-0.450000X0.350000X-0.450000X0.350000X0.450000X-0.350000X0.450000X0*%
%ADD13C,2.032000*%
%ADD14R,1.300000X1.500000*%
%ADD15R,1.600200X4.114800*%
%ADD16RoundRect,0.150000X-0.150000X0.825000X-0.150000X-0.825000X0.150000X-0.825000X0.150000X0.825000X0*%
%ADD17RoundRect,0.150000X0.150000X-0.662500X0.150000X0.662500X-0.150000X0.662500X-0.150000X-0.662500X0*%
%ADD18RoundRect,0.250000X-0.337500X-0.475000X0.337500X-0.475000X0.337500X0.475000X-0.337500X0.475000X0*%
%ADD19R,1.524000X1.651000*%
%ADD20RoundRect,0.250000X0.350000X0.450000X-0.350000X0.450000X-0.350000X-0.450000X0.350000X-0.450000X0*%
%ADD21R,1.524000X13.970000*%
%ADD22R,4.114800X1.600200*%
G04 APERTURE END LIST*
D10*
%TO.C,FD2*%
X147180000Y-120421000D03*
%TD*%
D11*
%TO.C,J3*%
X146620000Y-79571000D03*
X144080000Y-79571000D03*
X141540000Y-79571000D03*
X139000000Y-79571000D03*
X136460000Y-79571000D03*
X133920000Y-79571000D03*
X131380000Y-79571000D03*
X128840000Y-79571000D03*
X126300000Y-79571000D03*
X123760000Y-79571000D03*
%TD*%
D12*
%TO.C,R1*%
X118200000Y-109000000D03*
X120200000Y-109000000D03*
%TD*%
D13*
%TO.C,J1*%
X129680000Y-114800000D03*
X124600000Y-114800000D03*
X119520000Y-114800000D03*
%TD*%
D12*
%TO.C,R3*%
X118400000Y-89800000D03*
X120400000Y-89800000D03*
%TD*%
%TO.C,R2*%
X118400000Y-93200000D03*
X120400000Y-93200000D03*
%TD*%
D14*
%TO.C,D1*%
X130150000Y-99950000D03*
X125050000Y-99950000D03*
X125050000Y-108850000D03*
X130150000Y-108850000D03*
%TD*%
D10*
%TO.C,FD1*%
X117980000Y-63221000D03*
%TD*%
D15*
%TO.C,C3*%
X126800000Y-88142400D03*
X126800000Y-95457600D03*
%TD*%
D16*
%TO.C,U2*%
X139505000Y-102125000D03*
X138235000Y-102125000D03*
X136965000Y-102125000D03*
X135695000Y-102125000D03*
X135695000Y-107075000D03*
X136965000Y-107075000D03*
X138235000Y-107075000D03*
X139505000Y-107075000D03*
%TD*%
D17*
%TO.C,U1*%
X118965000Y-106387500D03*
X120235000Y-106387500D03*
X120235000Y-100012500D03*
X118965000Y-100012500D03*
%TD*%
D11*
%TO.C,J2*%
X146620000Y-64250000D03*
X144080000Y-64250000D03*
X141540000Y-64250000D03*
X139000000Y-64250000D03*
X136460000Y-64250000D03*
X133920000Y-64250000D03*
X131380000Y-64250000D03*
X128840000Y-64250000D03*
X126300000Y-64250000D03*
X123760000Y-64250000D03*
%TD*%
D18*
%TO.C,C2*%
X118362500Y-96600000D03*
X120437500Y-96600000D03*
%TD*%
D19*
%TO.C,D2*%
X143457000Y-104750000D03*
X147063800Y-104750000D03*
%TD*%
D20*
%TO.C,R4*%
X120400000Y-86400000D03*
X118400000Y-86400000D03*
%TD*%
D21*
%TO.C,L1*%
X146877000Y-91600000D03*
X133923000Y-91600000D03*
%TD*%
D22*
%TO.C,C1*%
X137342400Y-114500000D03*
X144657600Y-114500000D03*
%TD*%
M02*
