%TF.GenerationSoftware,KiCad,Pcbnew,8.0.6*%
%TF.CreationDate,2024-12-16T14:26:34+01:00*%
%TF.ProjectId,doorbell_watcher,646f6f72-6265-46c6-9c5f-776174636865,rev?*%
%TF.SameCoordinates,Original*%
%TF.FileFunction,Legend,Top*%
%TF.FilePolarity,Positive*%
%FSLAX46Y46*%
G04 Gerber Fmt 4.6, Leading zero omitted, Abs format (unit mm)*
G04 Created by KiCad (PCBNEW 8.0.6) date 2024-12-16 14:26:34*
%MOMM*%
%LPD*%
G01*
G04 APERTURE LIST*
%ADD10C,0.100000*%
%ADD11C,0.254000*%
%ADD12C,0.150000*%
%ADD13C,0.120000*%
%ADD14C,0.152400*%
%ADD15C,0.508000*%
G04 APERTURE END LIST*
D10*
X145200000Y-69250000D02*
X148200000Y-69250000D01*
X148200000Y-74450000D01*
X145200000Y-74450000D01*
X145200000Y-69250000D01*
X141504687Y-38043819D02*
X141552306Y-37996200D01*
X141552306Y-37996200D02*
X141695163Y-37948580D01*
X141695163Y-37948580D02*
X141790401Y-37948580D01*
X141790401Y-37948580D02*
X141933258Y-37996200D01*
X141933258Y-37996200D02*
X142028496Y-38091438D01*
X142028496Y-38091438D02*
X142076115Y-38186676D01*
X142076115Y-38186676D02*
X142123734Y-38377152D01*
X142123734Y-38377152D02*
X142123734Y-38520009D01*
X142123734Y-38520009D02*
X142076115Y-38710485D01*
X142076115Y-38710485D02*
X142028496Y-38805723D01*
X142028496Y-38805723D02*
X141933258Y-38900961D01*
X141933258Y-38900961D02*
X141790401Y-38948580D01*
X141790401Y-38948580D02*
X141695163Y-38948580D01*
X141695163Y-38948580D02*
X141552306Y-38900961D01*
X141552306Y-38900961D02*
X141504687Y-38853342D01*
X140885639Y-38948580D02*
X140695163Y-38948580D01*
X140695163Y-38948580D02*
X140599925Y-38900961D01*
X140599925Y-38900961D02*
X140504687Y-38805723D01*
X140504687Y-38805723D02*
X140457068Y-38615247D01*
X140457068Y-38615247D02*
X140457068Y-38281914D01*
X140457068Y-38281914D02*
X140504687Y-38091438D01*
X140504687Y-38091438D02*
X140599925Y-37996200D01*
X140599925Y-37996200D02*
X140695163Y-37948580D01*
X140695163Y-37948580D02*
X140885639Y-37948580D01*
X140885639Y-37948580D02*
X140980877Y-37996200D01*
X140980877Y-37996200D02*
X141076115Y-38091438D01*
X141076115Y-38091438D02*
X141123734Y-38281914D01*
X141123734Y-38281914D02*
X141123734Y-38615247D01*
X141123734Y-38615247D02*
X141076115Y-38805723D01*
X141076115Y-38805723D02*
X140980877Y-38900961D01*
X140980877Y-38900961D02*
X140885639Y-38948580D01*
X140028496Y-37948580D02*
X140028496Y-38948580D01*
X140028496Y-38948580D02*
X139695163Y-38234295D01*
X139695163Y-38234295D02*
X139361830Y-38948580D01*
X139361830Y-38948580D02*
X139361830Y-37948580D01*
D11*
X135249485Y-120005701D02*
X135249485Y-121275701D01*
X135249485Y-120066177D02*
X135370438Y-120005701D01*
X135370438Y-120005701D02*
X135612343Y-120005701D01*
X135612343Y-120005701D02*
X135733295Y-120066177D01*
X135733295Y-120066177D02*
X135793771Y-120126653D01*
X135793771Y-120126653D02*
X135854247Y-120247606D01*
X135854247Y-120247606D02*
X135854247Y-120610463D01*
X135854247Y-120610463D02*
X135793771Y-120731415D01*
X135793771Y-120731415D02*
X135733295Y-120791892D01*
X135733295Y-120791892D02*
X135612343Y-120852368D01*
X135612343Y-120852368D02*
X135370438Y-120852368D01*
X135370438Y-120852368D02*
X135249485Y-120791892D01*
X136398533Y-120852368D02*
X136398533Y-120005701D01*
X136398533Y-119582368D02*
X136338057Y-119642844D01*
X136338057Y-119642844D02*
X136398533Y-119703320D01*
X136398533Y-119703320D02*
X136459010Y-119642844D01*
X136459010Y-119642844D02*
X136398533Y-119582368D01*
X136398533Y-119582368D02*
X136398533Y-119703320D01*
X137003295Y-120005701D02*
X137003295Y-120852368D01*
X137003295Y-120126653D02*
X137063772Y-120066177D01*
X137063772Y-120066177D02*
X137184724Y-120005701D01*
X137184724Y-120005701D02*
X137366153Y-120005701D01*
X137366153Y-120005701D02*
X137487105Y-120066177D01*
X137487105Y-120066177D02*
X137547581Y-120187130D01*
X137547581Y-120187130D02*
X137547581Y-120852368D01*
X138696629Y-120005701D02*
X138696629Y-121033796D01*
X138696629Y-121033796D02*
X138636153Y-121154749D01*
X138636153Y-121154749D02*
X138575677Y-121215225D01*
X138575677Y-121215225D02*
X138454724Y-121275701D01*
X138454724Y-121275701D02*
X138273296Y-121275701D01*
X138273296Y-121275701D02*
X138152343Y-121215225D01*
X138696629Y-120791892D02*
X138575677Y-120852368D01*
X138575677Y-120852368D02*
X138333772Y-120852368D01*
X138333772Y-120852368D02*
X138212820Y-120791892D01*
X138212820Y-120791892D02*
X138152343Y-120731415D01*
X138152343Y-120731415D02*
X138091867Y-120610463D01*
X138091867Y-120610463D02*
X138091867Y-120247606D01*
X138091867Y-120247606D02*
X138152343Y-120126653D01*
X138152343Y-120126653D02*
X138212820Y-120066177D01*
X138212820Y-120066177D02*
X138333772Y-120005701D01*
X138333772Y-120005701D02*
X138575677Y-120005701D01*
X138575677Y-120005701D02*
X138696629Y-120066177D01*
X139301391Y-120852368D02*
X139301391Y-120005701D01*
X139301391Y-120247606D02*
X139361868Y-120126653D01*
X139361868Y-120126653D02*
X139422344Y-120066177D01*
X139422344Y-120066177D02*
X139543296Y-120005701D01*
X139543296Y-120005701D02*
X139664249Y-120005701D01*
X140087581Y-120852368D02*
X140087581Y-120005701D01*
X140087581Y-119582368D02*
X140027105Y-119642844D01*
X140027105Y-119642844D02*
X140087581Y-119703320D01*
X140087581Y-119703320D02*
X140148058Y-119642844D01*
X140148058Y-119642844D02*
X140087581Y-119582368D01*
X140087581Y-119582368D02*
X140087581Y-119703320D01*
X140692343Y-120005701D02*
X140692343Y-120852368D01*
X140692343Y-120126653D02*
X140752820Y-120066177D01*
X140752820Y-120066177D02*
X140873772Y-120005701D01*
X140873772Y-120005701D02*
X141055201Y-120005701D01*
X141055201Y-120005701D02*
X141176153Y-120066177D01*
X141176153Y-120066177D02*
X141236629Y-120187130D01*
X141236629Y-120187130D02*
X141236629Y-120852368D01*
X142385677Y-120005701D02*
X142385677Y-121033796D01*
X142385677Y-121033796D02*
X142325201Y-121154749D01*
X142325201Y-121154749D02*
X142264725Y-121215225D01*
X142264725Y-121215225D02*
X142143772Y-121275701D01*
X142143772Y-121275701D02*
X141962344Y-121275701D01*
X141962344Y-121275701D02*
X141841391Y-121215225D01*
X142385677Y-120791892D02*
X142264725Y-120852368D01*
X142264725Y-120852368D02*
X142022820Y-120852368D01*
X142022820Y-120852368D02*
X141901868Y-120791892D01*
X141901868Y-120791892D02*
X141841391Y-120731415D01*
X141841391Y-120731415D02*
X141780915Y-120610463D01*
X141780915Y-120610463D02*
X141780915Y-120247606D01*
X141780915Y-120247606D02*
X141841391Y-120126653D01*
X141841391Y-120126653D02*
X141901868Y-120066177D01*
X141901868Y-120066177D02*
X142022820Y-120005701D01*
X142022820Y-120005701D02*
X142264725Y-120005701D01*
X142264725Y-120005701D02*
X142385677Y-120066177D01*
X142990439Y-120731415D02*
X143050916Y-120791892D01*
X143050916Y-120791892D02*
X142990439Y-120852368D01*
X142990439Y-120852368D02*
X142929963Y-120791892D01*
X142929963Y-120791892D02*
X142990439Y-120731415D01*
X142990439Y-120731415D02*
X142990439Y-120852368D01*
X143595201Y-120852368D02*
X143595201Y-120005701D01*
X143595201Y-120126653D02*
X143655678Y-120066177D01*
X143655678Y-120066177D02*
X143776630Y-120005701D01*
X143776630Y-120005701D02*
X143958059Y-120005701D01*
X143958059Y-120005701D02*
X144079011Y-120066177D01*
X144079011Y-120066177D02*
X144139487Y-120187130D01*
X144139487Y-120187130D02*
X144139487Y-120852368D01*
X144139487Y-120187130D02*
X144199963Y-120066177D01*
X144199963Y-120066177D02*
X144320916Y-120005701D01*
X144320916Y-120005701D02*
X144502344Y-120005701D01*
X144502344Y-120005701D02*
X144623297Y-120066177D01*
X144623297Y-120066177D02*
X144683773Y-120187130D01*
X144683773Y-120187130D02*
X144683773Y-120852368D01*
X145772344Y-120791892D02*
X145651392Y-120852368D01*
X145651392Y-120852368D02*
X145409487Y-120852368D01*
X145409487Y-120852368D02*
X145288534Y-120791892D01*
X145288534Y-120791892D02*
X145228058Y-120670939D01*
X145228058Y-120670939D02*
X145228058Y-120187130D01*
X145228058Y-120187130D02*
X145288534Y-120066177D01*
X145288534Y-120066177D02*
X145409487Y-120005701D01*
X145409487Y-120005701D02*
X145651392Y-120005701D01*
X145651392Y-120005701D02*
X145772344Y-120066177D01*
X145772344Y-120066177D02*
X145832820Y-120187130D01*
X145832820Y-120187130D02*
X145832820Y-120308082D01*
X145832820Y-120308082D02*
X145228058Y-120429034D01*
D10*
X128683884Y-120369609D02*
X129445789Y-120369609D01*
X129445789Y-120655323D02*
X128683884Y-120655323D01*
X130636264Y-119845800D02*
X129779122Y-121131514D01*
X130826741Y-120512466D02*
X130874360Y-120464847D01*
X130874360Y-120464847D02*
X130969598Y-120417228D01*
X130969598Y-120417228D02*
X131160074Y-120512466D01*
X131160074Y-120512466D02*
X131255312Y-120464847D01*
X131255312Y-120464847D02*
X131302931Y-120417228D01*
X119275312Y-120777180D02*
X119227693Y-120824800D01*
X119227693Y-120824800D02*
X119084836Y-120872419D01*
X119084836Y-120872419D02*
X118989598Y-120872419D01*
X118989598Y-120872419D02*
X118846741Y-120824800D01*
X118846741Y-120824800D02*
X118751503Y-120729561D01*
X118751503Y-120729561D02*
X118703884Y-120634323D01*
X118703884Y-120634323D02*
X118656265Y-120443847D01*
X118656265Y-120443847D02*
X118656265Y-120300990D01*
X118656265Y-120300990D02*
X118703884Y-120110514D01*
X118703884Y-120110514D02*
X118751503Y-120015276D01*
X118751503Y-120015276D02*
X118846741Y-119920038D01*
X118846741Y-119920038D02*
X118989598Y-119872419D01*
X118989598Y-119872419D02*
X119084836Y-119872419D01*
X119084836Y-119872419D02*
X119227693Y-119920038D01*
X119227693Y-119920038D02*
X119275312Y-119967657D01*
X120227693Y-120872419D02*
X119656265Y-120872419D01*
X119941979Y-120872419D02*
X119941979Y-119872419D01*
X119941979Y-119872419D02*
X119846741Y-120015276D01*
X119846741Y-120015276D02*
X119751503Y-120110514D01*
X119751503Y-120110514D02*
X119656265Y-120158133D01*
X136276115Y-37948580D02*
X136276115Y-38948580D01*
X136276115Y-38948580D02*
X135704687Y-37948580D01*
X135704687Y-37948580D02*
X135704687Y-38948580D01*
X135038020Y-38948580D02*
X134847544Y-38948580D01*
X134847544Y-38948580D02*
X134752306Y-38900961D01*
X134752306Y-38900961D02*
X134657068Y-38805723D01*
X134657068Y-38805723D02*
X134609449Y-38615247D01*
X134609449Y-38615247D02*
X134609449Y-38281914D01*
X134609449Y-38281914D02*
X134657068Y-38091438D01*
X134657068Y-38091438D02*
X134752306Y-37996200D01*
X134752306Y-37996200D02*
X134847544Y-37948580D01*
X134847544Y-37948580D02*
X135038020Y-37948580D01*
X135038020Y-37948580D02*
X135133258Y-37996200D01*
X135133258Y-37996200D02*
X135228496Y-38091438D01*
X135228496Y-38091438D02*
X135276115Y-38281914D01*
X135276115Y-38281914D02*
X135276115Y-38615247D01*
X135276115Y-38615247D02*
X135228496Y-38805723D01*
X135228496Y-38805723D02*
X135133258Y-38900961D01*
X135133258Y-38900961D02*
X135038020Y-38948580D01*
X122855312Y-120893419D02*
X122398169Y-120893419D01*
X122626741Y-120893419D02*
X122626741Y-119893419D01*
X122626741Y-119893419D02*
X122550550Y-120036276D01*
X122550550Y-120036276D02*
X122474360Y-120131514D01*
X122474360Y-120131514D02*
X122398169Y-120179133D01*
X123160074Y-119988657D02*
X123198170Y-119941038D01*
X123198170Y-119941038D02*
X123274360Y-119893419D01*
X123274360Y-119893419D02*
X123464836Y-119893419D01*
X123464836Y-119893419D02*
X123541027Y-119941038D01*
X123541027Y-119941038D02*
X123579122Y-119988657D01*
X123579122Y-119988657D02*
X123617217Y-120083895D01*
X123617217Y-120083895D02*
X123617217Y-120179133D01*
X123617217Y-120179133D02*
X123579122Y-120321990D01*
X123579122Y-120321990D02*
X123121979Y-120893419D01*
X123121979Y-120893419D02*
X123617217Y-120893419D01*
X123960075Y-120512466D02*
X124569599Y-120512466D01*
X124912455Y-119988657D02*
X124950551Y-119941038D01*
X124950551Y-119941038D02*
X125026741Y-119893419D01*
X125026741Y-119893419D02*
X125217217Y-119893419D01*
X125217217Y-119893419D02*
X125293408Y-119941038D01*
X125293408Y-119941038D02*
X125331503Y-119988657D01*
X125331503Y-119988657D02*
X125369598Y-120083895D01*
X125369598Y-120083895D02*
X125369598Y-120179133D01*
X125369598Y-120179133D02*
X125331503Y-120321990D01*
X125331503Y-120321990D02*
X124874360Y-120893419D01*
X124874360Y-120893419D02*
X125369598Y-120893419D01*
X126055313Y-120226752D02*
X126055313Y-120893419D01*
X125864837Y-119845800D02*
X125674360Y-120560085D01*
X125674360Y-120560085D02*
X126169599Y-120560085D01*
X126360075Y-119893419D02*
X126626742Y-120893419D01*
X126626742Y-120893419D02*
X126893408Y-119893419D01*
X146676115Y-37948580D02*
X146676115Y-38948580D01*
X146676115Y-38948580D02*
X146104687Y-37948580D01*
X146104687Y-37948580D02*
X146104687Y-38948580D01*
X145057068Y-38043819D02*
X145104687Y-37996200D01*
X145104687Y-37996200D02*
X145247544Y-37948580D01*
X145247544Y-37948580D02*
X145342782Y-37948580D01*
X145342782Y-37948580D02*
X145485639Y-37996200D01*
X145485639Y-37996200D02*
X145580877Y-38091438D01*
X145580877Y-38091438D02*
X145628496Y-38186676D01*
X145628496Y-38186676D02*
X145676115Y-38377152D01*
X145676115Y-38377152D02*
X145676115Y-38520009D01*
X145676115Y-38520009D02*
X145628496Y-38710485D01*
X145628496Y-38710485D02*
X145580877Y-38805723D01*
X145580877Y-38805723D02*
X145485639Y-38900961D01*
X145485639Y-38900961D02*
X145342782Y-38948580D01*
X145342782Y-38948580D02*
X145247544Y-38948580D01*
X145247544Y-38948580D02*
X145104687Y-38900961D01*
X145104687Y-38900961D02*
X145057068Y-38853342D01*
X147127580Y-70553884D02*
X146318057Y-70553884D01*
X146318057Y-70553884D02*
X146222819Y-70601503D01*
X146222819Y-70601503D02*
X146175200Y-70649122D01*
X146175200Y-70649122D02*
X146127580Y-70744360D01*
X146127580Y-70744360D02*
X146127580Y-70934836D01*
X146127580Y-70934836D02*
X146175200Y-71030074D01*
X146175200Y-71030074D02*
X146222819Y-71077693D01*
X146222819Y-71077693D02*
X146318057Y-71125312D01*
X146318057Y-71125312D02*
X147127580Y-71125312D01*
X146175200Y-71553884D02*
X146127580Y-71696741D01*
X146127580Y-71696741D02*
X146127580Y-71934836D01*
X146127580Y-71934836D02*
X146175200Y-72030074D01*
X146175200Y-72030074D02*
X146222819Y-72077693D01*
X146222819Y-72077693D02*
X146318057Y-72125312D01*
X146318057Y-72125312D02*
X146413295Y-72125312D01*
X146413295Y-72125312D02*
X146508533Y-72077693D01*
X146508533Y-72077693D02*
X146556152Y-72030074D01*
X146556152Y-72030074D02*
X146603771Y-71934836D01*
X146603771Y-71934836D02*
X146651390Y-71744360D01*
X146651390Y-71744360D02*
X146699009Y-71649122D01*
X146699009Y-71649122D02*
X146746628Y-71601503D01*
X146746628Y-71601503D02*
X146841866Y-71553884D01*
X146841866Y-71553884D02*
X146937104Y-71553884D01*
X146937104Y-71553884D02*
X147032342Y-71601503D01*
X147032342Y-71601503D02*
X147079961Y-71649122D01*
X147079961Y-71649122D02*
X147127580Y-71744360D01*
X147127580Y-71744360D02*
X147127580Y-71982455D01*
X147127580Y-71982455D02*
X147079961Y-72125312D01*
X146651390Y-72887217D02*
X146603771Y-73030074D01*
X146603771Y-73030074D02*
X146556152Y-73077693D01*
X146556152Y-73077693D02*
X146460914Y-73125312D01*
X146460914Y-73125312D02*
X146318057Y-73125312D01*
X146318057Y-73125312D02*
X146222819Y-73077693D01*
X146222819Y-73077693D02*
X146175200Y-73030074D01*
X146175200Y-73030074D02*
X146127580Y-72934836D01*
X146127580Y-72934836D02*
X146127580Y-72553884D01*
X146127580Y-72553884D02*
X147127580Y-72553884D01*
X147127580Y-72553884D02*
X147127580Y-72887217D01*
X147127580Y-72887217D02*
X147079961Y-72982455D01*
X147079961Y-72982455D02*
X147032342Y-73030074D01*
X147032342Y-73030074D02*
X146937104Y-73077693D01*
X146937104Y-73077693D02*
X146841866Y-73077693D01*
X146841866Y-73077693D02*
X146746628Y-73030074D01*
X146746628Y-73030074D02*
X146699009Y-72982455D01*
X146699009Y-72982455D02*
X146651390Y-72887217D01*
X146651390Y-72887217D02*
X146651390Y-72553884D01*
D12*
X134846666Y-66475819D02*
X134846666Y-67190104D01*
X134846666Y-67190104D02*
X134799047Y-67332961D01*
X134799047Y-67332961D02*
X134703809Y-67428200D01*
X134703809Y-67428200D02*
X134560952Y-67475819D01*
X134560952Y-67475819D02*
X134465714Y-67475819D01*
X135227619Y-66475819D02*
X135846666Y-66475819D01*
X135846666Y-66475819D02*
X135513333Y-66856771D01*
X135513333Y-66856771D02*
X135656190Y-66856771D01*
X135656190Y-66856771D02*
X135751428Y-66904390D01*
X135751428Y-66904390D02*
X135799047Y-66952009D01*
X135799047Y-66952009D02*
X135846666Y-67047247D01*
X135846666Y-67047247D02*
X135846666Y-67285342D01*
X135846666Y-67285342D02*
X135799047Y-67380580D01*
X135799047Y-67380580D02*
X135751428Y-67428200D01*
X135751428Y-67428200D02*
X135656190Y-67475819D01*
X135656190Y-67475819D02*
X135370476Y-67475819D01*
X135370476Y-67475819D02*
X135275238Y-67428200D01*
X135275238Y-67428200D02*
X135227619Y-67380580D01*
X131813333Y-58875819D02*
X131480000Y-58399628D01*
X131241905Y-58875819D02*
X131241905Y-57875819D01*
X131241905Y-57875819D02*
X131622857Y-57875819D01*
X131622857Y-57875819D02*
X131718095Y-57923438D01*
X131718095Y-57923438D02*
X131765714Y-57971057D01*
X131765714Y-57971057D02*
X131813333Y-58066295D01*
X131813333Y-58066295D02*
X131813333Y-58209152D01*
X131813333Y-58209152D02*
X131765714Y-58304390D01*
X131765714Y-58304390D02*
X131718095Y-58352009D01*
X131718095Y-58352009D02*
X131622857Y-58399628D01*
X131622857Y-58399628D02*
X131241905Y-58399628D01*
X132146667Y-57875819D02*
X132813333Y-57875819D01*
X132813333Y-57875819D02*
X132384762Y-58875819D01*
X134836666Y-82075819D02*
X134836666Y-82790104D01*
X134836666Y-82790104D02*
X134789047Y-82932961D01*
X134789047Y-82932961D02*
X134693809Y-83028200D01*
X134693809Y-83028200D02*
X134550952Y-83075819D01*
X134550952Y-83075819D02*
X134455714Y-83075819D01*
X135741428Y-82409152D02*
X135741428Y-83075819D01*
X135503333Y-82028200D02*
X135265238Y-82742485D01*
X135265238Y-82742485D02*
X135884285Y-82742485D01*
X122033333Y-109454819D02*
X121700000Y-108978628D01*
X121461905Y-109454819D02*
X121461905Y-108454819D01*
X121461905Y-108454819D02*
X121842857Y-108454819D01*
X121842857Y-108454819D02*
X121938095Y-108502438D01*
X121938095Y-108502438D02*
X121985714Y-108550057D01*
X121985714Y-108550057D02*
X122033333Y-108645295D01*
X122033333Y-108645295D02*
X122033333Y-108788152D01*
X122033333Y-108788152D02*
X121985714Y-108883390D01*
X121985714Y-108883390D02*
X121938095Y-108931009D01*
X121938095Y-108931009D02*
X121842857Y-108978628D01*
X121842857Y-108978628D02*
X121461905Y-108978628D01*
X122985714Y-109454819D02*
X122414286Y-109454819D01*
X122700000Y-109454819D02*
X122700000Y-108454819D01*
X122700000Y-108454819D02*
X122604762Y-108597676D01*
X122604762Y-108597676D02*
X122509524Y-108692914D01*
X122509524Y-108692914D02*
X122414286Y-108740533D01*
X132834819Y-117954333D02*
X133549104Y-117954333D01*
X133549104Y-117954333D02*
X133691961Y-118001952D01*
X133691961Y-118001952D02*
X133787200Y-118097190D01*
X133787200Y-118097190D02*
X133834819Y-118240047D01*
X133834819Y-118240047D02*
X133834819Y-118335285D01*
X133834819Y-116954333D02*
X133834819Y-117525761D01*
X133834819Y-117240047D02*
X132834819Y-117240047D01*
X132834819Y-117240047D02*
X132977676Y-117335285D01*
X132977676Y-117335285D02*
X133072914Y-117430523D01*
X133072914Y-117430523D02*
X133120533Y-117525761D01*
X119213333Y-88675819D02*
X118880000Y-88199628D01*
X118641905Y-88675819D02*
X118641905Y-87675819D01*
X118641905Y-87675819D02*
X119022857Y-87675819D01*
X119022857Y-87675819D02*
X119118095Y-87723438D01*
X119118095Y-87723438D02*
X119165714Y-87771057D01*
X119165714Y-87771057D02*
X119213333Y-87866295D01*
X119213333Y-87866295D02*
X119213333Y-88009152D01*
X119213333Y-88009152D02*
X119165714Y-88104390D01*
X119165714Y-88104390D02*
X119118095Y-88152009D01*
X119118095Y-88152009D02*
X119022857Y-88199628D01*
X119022857Y-88199628D02*
X118641905Y-88199628D01*
X119546667Y-87675819D02*
X120165714Y-87675819D01*
X120165714Y-87675819D02*
X119832381Y-88056771D01*
X119832381Y-88056771D02*
X119975238Y-88056771D01*
X119975238Y-88056771D02*
X120070476Y-88104390D01*
X120070476Y-88104390D02*
X120118095Y-88152009D01*
X120118095Y-88152009D02*
X120165714Y-88247247D01*
X120165714Y-88247247D02*
X120165714Y-88485342D01*
X120165714Y-88485342D02*
X120118095Y-88580580D01*
X120118095Y-88580580D02*
X120070476Y-88628200D01*
X120070476Y-88628200D02*
X119975238Y-88675819D01*
X119975238Y-88675819D02*
X119689524Y-88675819D01*
X119689524Y-88675819D02*
X119594286Y-88628200D01*
X119594286Y-88628200D02*
X119546667Y-88580580D01*
X124034819Y-104759094D02*
X123034819Y-104759094D01*
X123034819Y-104759094D02*
X123034819Y-104520999D01*
X123034819Y-104520999D02*
X123082438Y-104378142D01*
X123082438Y-104378142D02*
X123177676Y-104282904D01*
X123177676Y-104282904D02*
X123272914Y-104235285D01*
X123272914Y-104235285D02*
X123463390Y-104187666D01*
X123463390Y-104187666D02*
X123606247Y-104187666D01*
X123606247Y-104187666D02*
X123796723Y-104235285D01*
X123796723Y-104235285D02*
X123891961Y-104282904D01*
X123891961Y-104282904D02*
X123987200Y-104378142D01*
X123987200Y-104378142D02*
X124034819Y-104520999D01*
X124034819Y-104520999D02*
X124034819Y-104759094D01*
X124034819Y-103235285D02*
X124034819Y-103806713D01*
X124034819Y-103520999D02*
X123034819Y-103520999D01*
X123034819Y-103520999D02*
X123177676Y-103616237D01*
X123177676Y-103616237D02*
X123272914Y-103711475D01*
X123272914Y-103711475D02*
X123320533Y-103806713D01*
X145234819Y-55382904D02*
X146044342Y-55382904D01*
X146044342Y-55382904D02*
X146139580Y-55335285D01*
X146139580Y-55335285D02*
X146187200Y-55287666D01*
X146187200Y-55287666D02*
X146234819Y-55192428D01*
X146234819Y-55192428D02*
X146234819Y-55001952D01*
X146234819Y-55001952D02*
X146187200Y-54906714D01*
X146187200Y-54906714D02*
X146139580Y-54859095D01*
X146139580Y-54859095D02*
X146044342Y-54811476D01*
X146044342Y-54811476D02*
X145234819Y-54811476D01*
X145234819Y-54430523D02*
X145234819Y-53811476D01*
X145234819Y-53811476D02*
X145615771Y-54144809D01*
X145615771Y-54144809D02*
X145615771Y-54001952D01*
X145615771Y-54001952D02*
X145663390Y-53906714D01*
X145663390Y-53906714D02*
X145711009Y-53859095D01*
X145711009Y-53859095D02*
X145806247Y-53811476D01*
X145806247Y-53811476D02*
X146044342Y-53811476D01*
X146044342Y-53811476D02*
X146139580Y-53859095D01*
X146139580Y-53859095D02*
X146187200Y-53906714D01*
X146187200Y-53906714D02*
X146234819Y-54001952D01*
X146234819Y-54001952D02*
X146234819Y-54287666D01*
X146234819Y-54287666D02*
X146187200Y-54382904D01*
X146187200Y-54382904D02*
X146139580Y-54430523D01*
X119233333Y-92054819D02*
X118900000Y-91578628D01*
X118661905Y-92054819D02*
X118661905Y-91054819D01*
X118661905Y-91054819D02*
X119042857Y-91054819D01*
X119042857Y-91054819D02*
X119138095Y-91102438D01*
X119138095Y-91102438D02*
X119185714Y-91150057D01*
X119185714Y-91150057D02*
X119233333Y-91245295D01*
X119233333Y-91245295D02*
X119233333Y-91388152D01*
X119233333Y-91388152D02*
X119185714Y-91483390D01*
X119185714Y-91483390D02*
X119138095Y-91531009D01*
X119138095Y-91531009D02*
X119042857Y-91578628D01*
X119042857Y-91578628D02*
X118661905Y-91578628D01*
X119614286Y-91150057D02*
X119661905Y-91102438D01*
X119661905Y-91102438D02*
X119757143Y-91054819D01*
X119757143Y-91054819D02*
X119995238Y-91054819D01*
X119995238Y-91054819D02*
X120090476Y-91102438D01*
X120090476Y-91102438D02*
X120138095Y-91150057D01*
X120138095Y-91150057D02*
X120185714Y-91245295D01*
X120185714Y-91245295D02*
X120185714Y-91340533D01*
X120185714Y-91340533D02*
X120138095Y-91483390D01*
X120138095Y-91483390D02*
X119566667Y-92054819D01*
X119566667Y-92054819D02*
X120185714Y-92054819D01*
X117841905Y-60675819D02*
X117841905Y-59675819D01*
X117841905Y-59675819D02*
X118080000Y-59675819D01*
X118080000Y-59675819D02*
X118222857Y-59723438D01*
X118222857Y-59723438D02*
X118318095Y-59818676D01*
X118318095Y-59818676D02*
X118365714Y-59913914D01*
X118365714Y-59913914D02*
X118413333Y-60104390D01*
X118413333Y-60104390D02*
X118413333Y-60247247D01*
X118413333Y-60247247D02*
X118365714Y-60437723D01*
X118365714Y-60437723D02*
X118318095Y-60532961D01*
X118318095Y-60532961D02*
X118222857Y-60628200D01*
X118222857Y-60628200D02*
X118080000Y-60675819D01*
X118080000Y-60675819D02*
X117841905Y-60675819D01*
X118746667Y-59675819D02*
X119365714Y-59675819D01*
X119365714Y-59675819D02*
X119032381Y-60056771D01*
X119032381Y-60056771D02*
X119175238Y-60056771D01*
X119175238Y-60056771D02*
X119270476Y-60104390D01*
X119270476Y-60104390D02*
X119318095Y-60152009D01*
X119318095Y-60152009D02*
X119365714Y-60247247D01*
X119365714Y-60247247D02*
X119365714Y-60485342D01*
X119365714Y-60485342D02*
X119318095Y-60580580D01*
X119318095Y-60580580D02*
X119270476Y-60628200D01*
X119270476Y-60628200D02*
X119175238Y-60675819D01*
X119175238Y-60675819D02*
X118889524Y-60675819D01*
X118889524Y-60675819D02*
X118794286Y-60628200D01*
X118794286Y-60628200D02*
X118746667Y-60580580D01*
X140013333Y-58875819D02*
X139680000Y-58399628D01*
X139441905Y-58875819D02*
X139441905Y-57875819D01*
X139441905Y-57875819D02*
X139822857Y-57875819D01*
X139822857Y-57875819D02*
X139918095Y-57923438D01*
X139918095Y-57923438D02*
X139965714Y-57971057D01*
X139965714Y-57971057D02*
X140013333Y-58066295D01*
X140013333Y-58066295D02*
X140013333Y-58209152D01*
X140013333Y-58209152D02*
X139965714Y-58304390D01*
X139965714Y-58304390D02*
X139918095Y-58352009D01*
X139918095Y-58352009D02*
X139822857Y-58399628D01*
X139822857Y-58399628D02*
X139441905Y-58399628D01*
X140870476Y-57875819D02*
X140680000Y-57875819D01*
X140680000Y-57875819D02*
X140584762Y-57923438D01*
X140584762Y-57923438D02*
X140537143Y-57971057D01*
X140537143Y-57971057D02*
X140441905Y-58113914D01*
X140441905Y-58113914D02*
X140394286Y-58304390D01*
X140394286Y-58304390D02*
X140394286Y-58685342D01*
X140394286Y-58685342D02*
X140441905Y-58780580D01*
X140441905Y-58780580D02*
X140489524Y-58828200D01*
X140489524Y-58828200D02*
X140584762Y-58875819D01*
X140584762Y-58875819D02*
X140775238Y-58875819D01*
X140775238Y-58875819D02*
X140870476Y-58828200D01*
X140870476Y-58828200D02*
X140918095Y-58780580D01*
X140918095Y-58780580D02*
X140965714Y-58685342D01*
X140965714Y-58685342D02*
X140965714Y-58447247D01*
X140965714Y-58447247D02*
X140918095Y-58352009D01*
X140918095Y-58352009D02*
X140870476Y-58304390D01*
X140870476Y-58304390D02*
X140775238Y-58256771D01*
X140775238Y-58256771D02*
X140584762Y-58256771D01*
X140584762Y-58256771D02*
X140489524Y-58304390D01*
X140489524Y-58304390D02*
X140441905Y-58352009D01*
X140441905Y-58352009D02*
X140394286Y-58447247D01*
X123813333Y-86380580D02*
X123765714Y-86428200D01*
X123765714Y-86428200D02*
X123622857Y-86475819D01*
X123622857Y-86475819D02*
X123527619Y-86475819D01*
X123527619Y-86475819D02*
X123384762Y-86428200D01*
X123384762Y-86428200D02*
X123289524Y-86332961D01*
X123289524Y-86332961D02*
X123241905Y-86237723D01*
X123241905Y-86237723D02*
X123194286Y-86047247D01*
X123194286Y-86047247D02*
X123194286Y-85904390D01*
X123194286Y-85904390D02*
X123241905Y-85713914D01*
X123241905Y-85713914D02*
X123289524Y-85618676D01*
X123289524Y-85618676D02*
X123384762Y-85523438D01*
X123384762Y-85523438D02*
X123527619Y-85475819D01*
X123527619Y-85475819D02*
X123622857Y-85475819D01*
X123622857Y-85475819D02*
X123765714Y-85523438D01*
X123765714Y-85523438D02*
X123813333Y-85571057D01*
X124146667Y-85475819D02*
X124765714Y-85475819D01*
X124765714Y-85475819D02*
X124432381Y-85856771D01*
X124432381Y-85856771D02*
X124575238Y-85856771D01*
X124575238Y-85856771D02*
X124670476Y-85904390D01*
X124670476Y-85904390D02*
X124718095Y-85952009D01*
X124718095Y-85952009D02*
X124765714Y-86047247D01*
X124765714Y-86047247D02*
X124765714Y-86285342D01*
X124765714Y-86285342D02*
X124718095Y-86380580D01*
X124718095Y-86380580D02*
X124670476Y-86428200D01*
X124670476Y-86428200D02*
X124575238Y-86475819D01*
X124575238Y-86475819D02*
X124289524Y-86475819D01*
X124289524Y-86475819D02*
X124194286Y-86428200D01*
X124194286Y-86428200D02*
X124146667Y-86380580D01*
X133434819Y-103182904D02*
X134244342Y-103182904D01*
X134244342Y-103182904D02*
X134339580Y-103135285D01*
X134339580Y-103135285D02*
X134387200Y-103087666D01*
X134387200Y-103087666D02*
X134434819Y-102992428D01*
X134434819Y-102992428D02*
X134434819Y-102801952D01*
X134434819Y-102801952D02*
X134387200Y-102706714D01*
X134387200Y-102706714D02*
X134339580Y-102659095D01*
X134339580Y-102659095D02*
X134244342Y-102611476D01*
X134244342Y-102611476D02*
X133434819Y-102611476D01*
X133530057Y-102182904D02*
X133482438Y-102135285D01*
X133482438Y-102135285D02*
X133434819Y-102040047D01*
X133434819Y-102040047D02*
X133434819Y-101801952D01*
X133434819Y-101801952D02*
X133482438Y-101706714D01*
X133482438Y-101706714D02*
X133530057Y-101659095D01*
X133530057Y-101659095D02*
X133625295Y-101611476D01*
X133625295Y-101611476D02*
X133720533Y-101611476D01*
X133720533Y-101611476D02*
X133863390Y-101659095D01*
X133863390Y-101659095D02*
X134434819Y-102230523D01*
X134434819Y-102230523D02*
X134434819Y-101611476D01*
X116854819Y-103961904D02*
X117664342Y-103961904D01*
X117664342Y-103961904D02*
X117759580Y-103914285D01*
X117759580Y-103914285D02*
X117807200Y-103866666D01*
X117807200Y-103866666D02*
X117854819Y-103771428D01*
X117854819Y-103771428D02*
X117854819Y-103580952D01*
X117854819Y-103580952D02*
X117807200Y-103485714D01*
X117807200Y-103485714D02*
X117759580Y-103438095D01*
X117759580Y-103438095D02*
X117664342Y-103390476D01*
X117664342Y-103390476D02*
X116854819Y-103390476D01*
X117854819Y-102390476D02*
X117854819Y-102961904D01*
X117854819Y-102676190D02*
X116854819Y-102676190D01*
X116854819Y-102676190D02*
X116997676Y-102771428D01*
X116997676Y-102771428D02*
X117092914Y-102866666D01*
X117092914Y-102866666D02*
X117140533Y-102961904D01*
X140979933Y-44366180D02*
X140979933Y-43651895D01*
X140979933Y-43651895D02*
X141027552Y-43509038D01*
X141027552Y-43509038D02*
X141122790Y-43413800D01*
X141122790Y-43413800D02*
X141265647Y-43366180D01*
X141265647Y-43366180D02*
X141360885Y-43366180D01*
X140551361Y-44270942D02*
X140503742Y-44318561D01*
X140503742Y-44318561D02*
X140408504Y-44366180D01*
X140408504Y-44366180D02*
X140170409Y-44366180D01*
X140170409Y-44366180D02*
X140075171Y-44318561D01*
X140075171Y-44318561D02*
X140027552Y-44270942D01*
X140027552Y-44270942D02*
X139979933Y-44175704D01*
X139979933Y-44175704D02*
X139979933Y-44080466D01*
X139979933Y-44080466D02*
X140027552Y-43937609D01*
X140027552Y-43937609D02*
X140598980Y-43366180D01*
X140598980Y-43366180D02*
X139979933Y-43366180D01*
X119270833Y-95359580D02*
X119223214Y-95407200D01*
X119223214Y-95407200D02*
X119080357Y-95454819D01*
X119080357Y-95454819D02*
X118985119Y-95454819D01*
X118985119Y-95454819D02*
X118842262Y-95407200D01*
X118842262Y-95407200D02*
X118747024Y-95311961D01*
X118747024Y-95311961D02*
X118699405Y-95216723D01*
X118699405Y-95216723D02*
X118651786Y-95026247D01*
X118651786Y-95026247D02*
X118651786Y-94883390D01*
X118651786Y-94883390D02*
X118699405Y-94692914D01*
X118699405Y-94692914D02*
X118747024Y-94597676D01*
X118747024Y-94597676D02*
X118842262Y-94502438D01*
X118842262Y-94502438D02*
X118985119Y-94454819D01*
X118985119Y-94454819D02*
X119080357Y-94454819D01*
X119080357Y-94454819D02*
X119223214Y-94502438D01*
X119223214Y-94502438D02*
X119270833Y-94550057D01*
X119651786Y-94550057D02*
X119699405Y-94502438D01*
X119699405Y-94502438D02*
X119794643Y-94454819D01*
X119794643Y-94454819D02*
X120032738Y-94454819D01*
X120032738Y-94454819D02*
X120127976Y-94502438D01*
X120127976Y-94502438D02*
X120175595Y-94550057D01*
X120175595Y-94550057D02*
X120223214Y-94645295D01*
X120223214Y-94645295D02*
X120223214Y-94740533D01*
X120223214Y-94740533D02*
X120175595Y-94883390D01*
X120175595Y-94883390D02*
X119604167Y-95454819D01*
X119604167Y-95454819D02*
X120223214Y-95454819D01*
X123441905Y-40675819D02*
X123441905Y-39675819D01*
X124013333Y-40675819D02*
X123584762Y-40104390D01*
X124013333Y-39675819D02*
X123441905Y-40247247D01*
X124965714Y-40675819D02*
X124394286Y-40675819D01*
X124680000Y-40675819D02*
X124680000Y-39675819D01*
X124680000Y-39675819D02*
X124584762Y-39818676D01*
X124584762Y-39818676D02*
X124489524Y-39913914D01*
X124489524Y-39913914D02*
X124394286Y-39961533D01*
X137484761Y-53771057D02*
X137389523Y-53723438D01*
X137389523Y-53723438D02*
X137294285Y-53628200D01*
X137294285Y-53628200D02*
X137151428Y-53485342D01*
X137151428Y-53485342D02*
X137056190Y-53437723D01*
X137056190Y-53437723D02*
X136960952Y-53437723D01*
X137008571Y-53675819D02*
X136913333Y-53628200D01*
X136913333Y-53628200D02*
X136818095Y-53532961D01*
X136818095Y-53532961D02*
X136770476Y-53342485D01*
X136770476Y-53342485D02*
X136770476Y-53009152D01*
X136770476Y-53009152D02*
X136818095Y-52818676D01*
X136818095Y-52818676D02*
X136913333Y-52723438D01*
X136913333Y-52723438D02*
X137008571Y-52675819D01*
X137008571Y-52675819D02*
X137199047Y-52675819D01*
X137199047Y-52675819D02*
X137294285Y-52723438D01*
X137294285Y-52723438D02*
X137389523Y-52818676D01*
X137389523Y-52818676D02*
X137437142Y-53009152D01*
X137437142Y-53009152D02*
X137437142Y-53342485D01*
X137437142Y-53342485D02*
X137389523Y-53532961D01*
X137389523Y-53532961D02*
X137294285Y-53628200D01*
X137294285Y-53628200D02*
X137199047Y-53675819D01*
X137199047Y-53675819D02*
X137008571Y-53675819D01*
X138389523Y-53675819D02*
X137818095Y-53675819D01*
X138103809Y-53675819D02*
X138103809Y-52675819D01*
X138103809Y-52675819D02*
X138008571Y-52818676D01*
X138008571Y-52818676D02*
X137913333Y-52913914D01*
X137913333Y-52913914D02*
X137818095Y-52961533D01*
X119213333Y-85275819D02*
X118880000Y-84799628D01*
X118641905Y-85275819D02*
X118641905Y-84275819D01*
X118641905Y-84275819D02*
X119022857Y-84275819D01*
X119022857Y-84275819D02*
X119118095Y-84323438D01*
X119118095Y-84323438D02*
X119165714Y-84371057D01*
X119165714Y-84371057D02*
X119213333Y-84466295D01*
X119213333Y-84466295D02*
X119213333Y-84609152D01*
X119213333Y-84609152D02*
X119165714Y-84704390D01*
X119165714Y-84704390D02*
X119118095Y-84752009D01*
X119118095Y-84752009D02*
X119022857Y-84799628D01*
X119022857Y-84799628D02*
X118641905Y-84799628D01*
X120118095Y-84275819D02*
X119641905Y-84275819D01*
X119641905Y-84275819D02*
X119594286Y-84752009D01*
X119594286Y-84752009D02*
X119641905Y-84704390D01*
X119641905Y-84704390D02*
X119737143Y-84656771D01*
X119737143Y-84656771D02*
X119975238Y-84656771D01*
X119975238Y-84656771D02*
X120070476Y-84704390D01*
X120070476Y-84704390D02*
X120118095Y-84752009D01*
X120118095Y-84752009D02*
X120165714Y-84847247D01*
X120165714Y-84847247D02*
X120165714Y-85085342D01*
X120165714Y-85085342D02*
X120118095Y-85180580D01*
X120118095Y-85180580D02*
X120070476Y-85228200D01*
X120070476Y-85228200D02*
X119975238Y-85275819D01*
X119975238Y-85275819D02*
X119737143Y-85275819D01*
X119737143Y-85275819D02*
X119641905Y-85228200D01*
X119641905Y-85228200D02*
X119594286Y-85180580D01*
X142834819Y-106159094D02*
X141834819Y-106159094D01*
X141834819Y-106159094D02*
X141834819Y-105920999D01*
X141834819Y-105920999D02*
X141882438Y-105778142D01*
X141882438Y-105778142D02*
X141977676Y-105682904D01*
X141977676Y-105682904D02*
X142072914Y-105635285D01*
X142072914Y-105635285D02*
X142263390Y-105587666D01*
X142263390Y-105587666D02*
X142406247Y-105587666D01*
X142406247Y-105587666D02*
X142596723Y-105635285D01*
X142596723Y-105635285D02*
X142691961Y-105682904D01*
X142691961Y-105682904D02*
X142787200Y-105778142D01*
X142787200Y-105778142D02*
X142834819Y-105920999D01*
X142834819Y-105920999D02*
X142834819Y-106159094D01*
X141930057Y-105206713D02*
X141882438Y-105159094D01*
X141882438Y-105159094D02*
X141834819Y-105063856D01*
X141834819Y-105063856D02*
X141834819Y-104825761D01*
X141834819Y-104825761D02*
X141882438Y-104730523D01*
X141882438Y-104730523D02*
X141930057Y-104682904D01*
X141930057Y-104682904D02*
X142025295Y-104635285D01*
X142025295Y-104635285D02*
X142120533Y-104635285D01*
X142120533Y-104635285D02*
X142263390Y-104682904D01*
X142263390Y-104682904D02*
X142834819Y-105254332D01*
X142834819Y-105254332D02*
X142834819Y-104635285D01*
X136013333Y-58875819D02*
X135680000Y-58399628D01*
X135441905Y-58875819D02*
X135441905Y-57875819D01*
X135441905Y-57875819D02*
X135822857Y-57875819D01*
X135822857Y-57875819D02*
X135918095Y-57923438D01*
X135918095Y-57923438D02*
X135965714Y-57971057D01*
X135965714Y-57971057D02*
X136013333Y-58066295D01*
X136013333Y-58066295D02*
X136013333Y-58209152D01*
X136013333Y-58209152D02*
X135965714Y-58304390D01*
X135965714Y-58304390D02*
X135918095Y-58352009D01*
X135918095Y-58352009D02*
X135822857Y-58399628D01*
X135822857Y-58399628D02*
X135441905Y-58399628D01*
X136870476Y-58209152D02*
X136870476Y-58875819D01*
X136632381Y-57828200D02*
X136394286Y-58542485D01*
X136394286Y-58542485D02*
X137013333Y-58542485D01*
X140233333Y-83075819D02*
X139757143Y-83075819D01*
X139757143Y-83075819D02*
X139757143Y-82075819D01*
X141090476Y-83075819D02*
X140519048Y-83075819D01*
X140804762Y-83075819D02*
X140804762Y-82075819D01*
X140804762Y-82075819D02*
X140709524Y-82218676D01*
X140709524Y-82218676D02*
X140614286Y-82313914D01*
X140614286Y-82313914D02*
X140519048Y-82361533D01*
X140813333Y-109180580D02*
X140765714Y-109228200D01*
X140765714Y-109228200D02*
X140622857Y-109275819D01*
X140622857Y-109275819D02*
X140527619Y-109275819D01*
X140527619Y-109275819D02*
X140384762Y-109228200D01*
X140384762Y-109228200D02*
X140289524Y-109132961D01*
X140289524Y-109132961D02*
X140241905Y-109037723D01*
X140241905Y-109037723D02*
X140194286Y-108847247D01*
X140194286Y-108847247D02*
X140194286Y-108704390D01*
X140194286Y-108704390D02*
X140241905Y-108513914D01*
X140241905Y-108513914D02*
X140289524Y-108418676D01*
X140289524Y-108418676D02*
X140384762Y-108323438D01*
X140384762Y-108323438D02*
X140527619Y-108275819D01*
X140527619Y-108275819D02*
X140622857Y-108275819D01*
X140622857Y-108275819D02*
X140765714Y-108323438D01*
X140765714Y-108323438D02*
X140813333Y-108371057D01*
X141765714Y-109275819D02*
X141194286Y-109275819D01*
X141480000Y-109275819D02*
X141480000Y-108275819D01*
X141480000Y-108275819D02*
X141384762Y-108418676D01*
X141384762Y-108418676D02*
X141289524Y-108513914D01*
X141289524Y-108513914D02*
X141194286Y-108561533D01*
D13*
%TO.C,J3*%
X122460000Y-62721000D02*
X147920000Y-62721000D01*
X122460000Y-65721000D02*
X122460000Y-62721000D01*
X145350000Y-65721000D02*
X145350000Y-62721000D01*
X147920000Y-62721000D02*
X147920000Y-65721000D01*
X147920000Y-65721000D02*
X122460000Y-65721000D01*
%TO.C,R7*%
X132207064Y-59086000D02*
X131752936Y-59086000D01*
X132207064Y-60556000D02*
X131752936Y-60556000D01*
%TO.C,J4*%
X122440000Y-78121000D02*
X147900000Y-78121000D01*
X122440000Y-81121000D02*
X122440000Y-78121000D01*
X145330000Y-81121000D02*
X145330000Y-78121000D01*
X147900000Y-78121000D02*
X147900000Y-81121000D01*
X147900000Y-81121000D02*
X122440000Y-81121000D01*
%TO.C,R1*%
X118972936Y-108265000D02*
X119427064Y-108265000D01*
X118972936Y-109735000D02*
X119427064Y-109735000D01*
D14*
%TO.C,J1*%
X116853000Y-110583600D02*
X116853000Y-119016400D01*
X116853000Y-119016400D02*
X132347000Y-119016400D01*
D10*
X116880000Y-117600000D02*
X132280000Y-117600000D01*
X118480000Y-118900000D02*
X118480000Y-117600000D01*
X120480000Y-118900000D02*
X120480000Y-117600000D01*
X123680000Y-118900000D02*
X123680000Y-117600000D01*
X125680000Y-118900000D02*
X125680000Y-117600000D01*
X128680000Y-118900000D02*
X128680000Y-117500000D01*
X130680000Y-118900000D02*
X130680000Y-117600000D01*
D14*
X132347000Y-110583600D02*
X116853000Y-110583600D01*
X132347000Y-119016400D02*
X132347000Y-110583600D01*
D15*
X133363000Y-114800000D02*
G75*
G02*
X132601000Y-114800000I-381000J0D01*
G01*
X132601000Y-114800000D02*
G75*
G02*
X133363000Y-114800000I381000J0D01*
G01*
D13*
%TO.C,R3*%
X119172936Y-89065000D02*
X119627064Y-89065000D01*
X119172936Y-90535000D02*
X119627064Y-90535000D01*
D14*
%TO.C,D1*%
X124874899Y-102115488D02*
X124874899Y-106511412D01*
X126293738Y-106713750D02*
X128866260Y-106713750D01*
X128866260Y-101913150D02*
X126293738Y-101913150D01*
X130285099Y-106511412D02*
X130285099Y-102115488D01*
D13*
X131109999Y-100553450D02*
X130779999Y-100313450D01*
X131109999Y-100073450D01*
X131109999Y-100553450D01*
G36*
X131109999Y-100553450D02*
G01*
X130779999Y-100313450D01*
X131109999Y-100073450D01*
X131109999Y-100553450D01*
G37*
%TO.C,U3*%
X143180000Y-51386000D02*
X143180000Y-53621000D01*
X143180000Y-55621000D02*
X143180000Y-57856000D01*
X143180000Y-57856000D02*
X148380000Y-57856000D01*
X148380000Y-51386000D02*
X143180000Y-51386000D01*
X148380000Y-57856000D02*
X148380000Y-51386000D01*
X143180000Y-53621000D02*
G75*
G02*
X143180000Y-55621000I-1J-1000000D01*
G01*
%TO.C,R2*%
X119172936Y-92465000D02*
X119627064Y-92465000D01*
X119172936Y-93935000D02*
X119627064Y-93935000D01*
%TO.C,D3*%
X120809998Y-58811000D02*
X125550000Y-58811000D01*
X125550000Y-61631000D02*
X120809998Y-61631000D01*
D14*
X127598999Y-60157500D02*
X128360998Y-59649500D01*
X127598999Y-60157500D02*
X128360999Y-59522500D01*
X127598999Y-60157500D02*
X128360999Y-59776500D01*
X127598999Y-60157500D02*
X128360999Y-59903501D01*
X127598999Y-60157500D02*
X128360999Y-60030500D01*
X127598999Y-60157500D02*
X128360999Y-60284500D01*
X127598999Y-60157500D02*
X128360999Y-60411500D01*
X127598999Y-60157500D02*
X128360999Y-60538499D01*
X127598999Y-60157500D02*
X128360999Y-60665500D01*
X127598999Y-60157500D02*
X128360999Y-60792501D01*
X127599000Y-59522499D02*
X127598998Y-60792500D01*
X128360999Y-59522500D02*
X128360999Y-60792501D01*
X128587059Y-60157500D02*
X127344999Y-60157500D01*
D13*
%TO.C,R6*%
X140407064Y-59086000D02*
X139952936Y-59086000D01*
X140407064Y-60556000D02*
X139952936Y-60556000D01*
D14*
%TO.C,C3*%
X122418500Y-87418500D02*
X122418500Y-96181500D01*
X122418500Y-96181500D02*
X125667160Y-96181500D01*
X125667160Y-87418500D02*
X122418500Y-87418500D01*
X127932840Y-96181500D02*
X131181500Y-96181500D01*
X131181500Y-87418500D02*
X127932840Y-87418500D01*
X131181500Y-96181500D02*
X131181500Y-87418500D01*
X126876200Y-85323000D02*
G75*
G02*
X126723800Y-85323000I-76200J0D01*
G01*
X126723800Y-85323000D02*
G75*
G02*
X126876200Y-85323000I76200J0D01*
G01*
D13*
%TO.C,U2*%
X135040000Y-104600000D02*
X135040000Y-102650000D01*
X135040000Y-104600000D02*
X135040000Y-106550000D01*
X140160000Y-104600000D02*
X140160000Y-102650000D01*
X140160000Y-104600000D02*
X140160000Y-106550000D01*
X140395000Y-102140000D02*
X140065000Y-101900000D01*
X140395000Y-101660000D01*
X140395000Y-102140000D01*
G36*
X140395000Y-102140000D02*
G01*
X140065000Y-101900000D01*
X140395000Y-101660000D01*
X140395000Y-102140000D01*
G37*
%TO.C,U1*%
X118190000Y-100890000D02*
X118405000Y-100890000D01*
X118190000Y-103200000D02*
X118190000Y-100890000D01*
X118190000Y-103200000D02*
X118190000Y-105510000D01*
X118190000Y-105510000D02*
X118405000Y-105510000D01*
X121010000Y-100890000D02*
X120795000Y-100890000D01*
X121010000Y-103200000D02*
X121010000Y-100890000D01*
X121010000Y-103200000D02*
X121010000Y-105510000D01*
X121010000Y-105510000D02*
X120795000Y-105510000D01*
X118405000Y-106300000D02*
X118075000Y-106540000D01*
X118075000Y-106060000D01*
X118405000Y-106300000D01*
G36*
X118405000Y-106300000D02*
G01*
X118075000Y-106540000D01*
X118075000Y-106060000D01*
X118405000Y-106300000D01*
G37*
D14*
%TO.C,J2*%
X132899600Y-39604600D02*
X132899600Y-48037400D01*
X132899600Y-48037400D02*
X148393600Y-48037400D01*
X148393600Y-39604600D02*
X132899600Y-39604600D01*
X148393600Y-48037400D02*
X148393600Y-39604600D01*
D15*
X147507600Y-41221000D02*
G75*
G02*
X146745600Y-41221000I-381000J0D01*
G01*
X146745600Y-41221000D02*
G75*
G02*
X147507600Y-41221000I381000J0D01*
G01*
D13*
%TO.C,C2*%
X119138748Y-95865000D02*
X119661252Y-95865000D01*
X119138748Y-97335000D02*
X119661252Y-97335000D01*
%TO.C,K1*%
X116380000Y-37721000D02*
X131980000Y-37721000D01*
X116380001Y-57521000D02*
X116380000Y-37721000D01*
X116380001Y-57521000D02*
X122979999Y-57521000D01*
X118230000Y-50071000D02*
X118230000Y-52571000D01*
X118230000Y-50071000D02*
X122430000Y-50071000D01*
X119980000Y-41971001D02*
X122480000Y-41971001D01*
X122430001Y-48071000D02*
X126030000Y-48071000D01*
X122430001Y-52071000D02*
X122430001Y-48071000D01*
X124230000Y-45171000D02*
X121730000Y-40571000D01*
X124230000Y-46671000D02*
X124230000Y-45171000D01*
X124230000Y-46671000D02*
X127830000Y-46671000D01*
X124230000Y-53471000D02*
X124230000Y-54271000D01*
X124230000Y-53471000D02*
X127830000Y-53471000D01*
X125380001Y-57521000D02*
X131979999Y-57521000D01*
X126030000Y-48071000D02*
X122430001Y-52071000D01*
X126030000Y-48071000D02*
X126030000Y-52071000D01*
X126030000Y-52071000D02*
X122430001Y-52071000D01*
X126030001Y-50071000D02*
X130230000Y-50071000D01*
X127830000Y-46671000D02*
X127830000Y-53471000D01*
X128380000Y-41971001D02*
X125930000Y-41971000D01*
X130230000Y-52571000D02*
X130230000Y-50071000D01*
X131980000Y-37721000D02*
X131979999Y-57521000D01*
%TO.C,Q1*%
X135670000Y-49811000D02*
X135670000Y-51070999D01*
X135670000Y-56631000D02*
X135670000Y-55371001D01*
X139430000Y-49810999D02*
X135670000Y-49811000D01*
X139430000Y-56631001D02*
X135670000Y-56631000D01*
X140950000Y-56861000D02*
X140470000Y-56861000D01*
X140710000Y-56531000D01*
X140950000Y-56861000D01*
G36*
X140950000Y-56861000D02*
G01*
X140470000Y-56861000D01*
X140710000Y-56531000D01*
X140950000Y-56861000D01*
G37*
%TO.C,R5*%
X119607064Y-85686000D02*
X119152936Y-85686000D01*
X119607064Y-87156000D02*
X119152936Y-87156000D01*
%TO.C,D2*%
X143570000Y-107791000D02*
X143570000Y-103051000D01*
D14*
X145015000Y-100421000D02*
X144380000Y-101183000D01*
X145015000Y-100421000D02*
X144507000Y-101183000D01*
X145015000Y-100421000D02*
X144634000Y-101183000D01*
X145015000Y-100421000D02*
X144761000Y-101183000D01*
X145015000Y-100421000D02*
X144888000Y-101183000D01*
X145015000Y-100421000D02*
X145142000Y-101183000D01*
X145015000Y-100421000D02*
X145269000Y-101183000D01*
X145015000Y-100421000D02*
X145396000Y-101183000D01*
X145015000Y-100421000D02*
X145523000Y-101183000D01*
X145015000Y-100421000D02*
X145650000Y-101183000D01*
X145015000Y-101409060D02*
X145015000Y-100167000D01*
X145650000Y-100421000D02*
X144380000Y-100421000D01*
X145650000Y-101183000D02*
X144380000Y-101183000D01*
D13*
X146390000Y-103051000D02*
X146390000Y-107791000D01*
%TO.C,R4*%
X135952936Y-59086000D02*
X136407064Y-59086000D01*
X135952936Y-60556000D02*
X136407064Y-60556000D01*
D14*
%TO.C,L1*%
X132653000Y-83599000D02*
X132653000Y-99601000D01*
X132653000Y-99601000D02*
X148147000Y-99601000D01*
X148147000Y-83599000D02*
X132653000Y-83599000D01*
X148147000Y-99601000D02*
X148147000Y-83599000D01*
%TO.C,C1*%
X136618500Y-110118500D02*
X136618500Y-113367160D01*
X136618500Y-115632840D02*
X136618500Y-118881500D01*
X136618500Y-118881500D02*
X145381500Y-118881500D01*
X145381500Y-110118500D02*
X136618500Y-110118500D01*
X145381500Y-113367160D02*
X145381500Y-110118500D01*
X145381500Y-118881500D02*
X145381500Y-115632840D01*
X134599200Y-114500000D02*
G75*
G02*
X134446800Y-114500000I-76200J0D01*
G01*
X134446800Y-114500000D02*
G75*
G02*
X134599200Y-114500000I76200J0D01*
G01*
%TD*%
M02*
