M48
; DRILL file {KiCad 8.0.6} date 2024-12-16T14:26:30+0100
; FORMAT={-:-/ absolute / inch / decimal}
; #@! TF.CreationDate,2024-12-16T14:26:30+01:00
; #@! TF.GenerationSoftware,Kicad,Pcbnew,8.0.6
; #@! TF.FileFunction,Plated,1,2,PTH
FMAT,2
INCH
; #@! TA.AperFunction,Plated,PTH,ViaDrill
T1C0.0118
; #@! TA.AperFunction,Plated,PTH,ComponentDrill
T2C0.0394
; #@! TA.AperFunction,Plated,PTH,ComponentDrill
T3C0.0402
; #@! TA.AperFunction,Plated,PTH,ComponentDrill
T4C0.0500
; #@! TA.AperFunction,Plated,PTH,ComponentDrill
T5C0.0512
%
G90
G05
T1
X4.8031Y-3.8433
X4.8031Y-3.8827
X4.8031Y-3.9221
X4.8524Y-3.8433
X4.8524Y-3.8827
X4.8524Y-3.9221
X4.8969Y-3.8433
X4.8969Y-3.8827
X4.8969Y-3.9221
X4.9441Y-3.8985
X4.9913Y-3.8985
X5.252Y-4.1102
X5.252Y-4.1496
X5.252Y-4.189
X5.2913Y-4.1102
X5.2913Y-4.1496
X5.2913Y-4.189
X5.2913Y-4.2283
X5.448Y-1.9772
X5.448Y-2.0166
X5.6291Y-4.237
X5.6291Y-4.2764
X5.7394Y-2.4181
X5.7787Y-2.4181
X5.7945Y-4.1977
X5.7945Y-4.237
X5.7945Y-4.2764
X5.7945Y-4.3158
X5.7945Y-4.3552
X5.8181Y-2.4181
T2
X4.6547Y-2.1327
X5.1272Y-2.1327
T3
X4.8717Y-3.1347
X4.8724Y-2.5284
X4.9717Y-3.1347
X4.9724Y-2.5284
X5.0717Y-3.1347
X5.0724Y-2.5284
X5.1717Y-3.1347
X5.1724Y-2.5284
X5.2717Y-3.1347
X5.2724Y-2.5284
X5.3717Y-3.1347
X5.3724Y-2.5284
X5.4717Y-3.1347
X5.4724Y-2.5284
X5.5717Y-3.1347
X5.5724Y-2.5284
X5.6717Y-3.1347
X5.6724Y-2.5284
X5.7717Y-3.1347
X5.7724Y-2.5284
T4
X4.7055Y-4.5197
X4.9055Y-4.5197
X5.1055Y-4.5197
X5.3373Y-1.7252
X5.5373Y-1.7252
X5.7373Y-1.7252
T5
X4.6528Y-1.6504
X4.889Y-2.2095
X5.1272Y-1.6524
M30
