%TF.GenerationSoftware,KiCad,Pcbnew,8.0.6*%
%TF.CreationDate,2024-11-29T18:17:16+01:00*%
%TF.ProjectId,doorbell_watcher,646f6f72-6265-46c6-9c5f-776174636865,rev?*%
%TF.SameCoordinates,Original*%
%TF.FileFunction,Legend,Top*%
%TF.FilePolarity,Positive*%
%FSLAX46Y46*%
G04 Gerber Fmt 4.6, Leading zero omitted, Abs format (unit mm)*
G04 Created by KiCad (PCBNEW 8.0.6) date 2024-11-29 18:17:16*
%MOMM*%
%LPD*%
G01*
G04 APERTURE LIST*
%ADD10C,0.100000*%
%ADD11C,0.254000*%
%ADD12C,0.150000*%
%ADD13C,0.120000*%
%ADD14C,0.152400*%
%ADD15C,0.508000*%
G04 APERTURE END LIST*
D10*
X145200000Y-69250000D02*
X148200000Y-69250000D01*
X148200000Y-74450000D01*
X145200000Y-74450000D01*
X145200000Y-69250000D01*
D11*
X135249485Y-120005701D02*
X135249485Y-121275701D01*
X135249485Y-120066177D02*
X135370438Y-120005701D01*
X135370438Y-120005701D02*
X135612343Y-120005701D01*
X135612343Y-120005701D02*
X135733295Y-120066177D01*
X135733295Y-120066177D02*
X135793771Y-120126653D01*
X135793771Y-120126653D02*
X135854247Y-120247606D01*
X135854247Y-120247606D02*
X135854247Y-120610463D01*
X135854247Y-120610463D02*
X135793771Y-120731415D01*
X135793771Y-120731415D02*
X135733295Y-120791892D01*
X135733295Y-120791892D02*
X135612343Y-120852368D01*
X135612343Y-120852368D02*
X135370438Y-120852368D01*
X135370438Y-120852368D02*
X135249485Y-120791892D01*
X136398533Y-120852368D02*
X136398533Y-120005701D01*
X136398533Y-119582368D02*
X136338057Y-119642844D01*
X136338057Y-119642844D02*
X136398533Y-119703320D01*
X136398533Y-119703320D02*
X136459010Y-119642844D01*
X136459010Y-119642844D02*
X136398533Y-119582368D01*
X136398533Y-119582368D02*
X136398533Y-119703320D01*
X137003295Y-120005701D02*
X137003295Y-120852368D01*
X137003295Y-120126653D02*
X137063772Y-120066177D01*
X137063772Y-120066177D02*
X137184724Y-120005701D01*
X137184724Y-120005701D02*
X137366153Y-120005701D01*
X137366153Y-120005701D02*
X137487105Y-120066177D01*
X137487105Y-120066177D02*
X137547581Y-120187130D01*
X137547581Y-120187130D02*
X137547581Y-120852368D01*
X138696629Y-120005701D02*
X138696629Y-121033796D01*
X138696629Y-121033796D02*
X138636153Y-121154749D01*
X138636153Y-121154749D02*
X138575677Y-121215225D01*
X138575677Y-121215225D02*
X138454724Y-121275701D01*
X138454724Y-121275701D02*
X138273296Y-121275701D01*
X138273296Y-121275701D02*
X138152343Y-121215225D01*
X138696629Y-120791892D02*
X138575677Y-120852368D01*
X138575677Y-120852368D02*
X138333772Y-120852368D01*
X138333772Y-120852368D02*
X138212820Y-120791892D01*
X138212820Y-120791892D02*
X138152343Y-120731415D01*
X138152343Y-120731415D02*
X138091867Y-120610463D01*
X138091867Y-120610463D02*
X138091867Y-120247606D01*
X138091867Y-120247606D02*
X138152343Y-120126653D01*
X138152343Y-120126653D02*
X138212820Y-120066177D01*
X138212820Y-120066177D02*
X138333772Y-120005701D01*
X138333772Y-120005701D02*
X138575677Y-120005701D01*
X138575677Y-120005701D02*
X138696629Y-120066177D01*
X139301391Y-120852368D02*
X139301391Y-120005701D01*
X139301391Y-120247606D02*
X139361868Y-120126653D01*
X139361868Y-120126653D02*
X139422344Y-120066177D01*
X139422344Y-120066177D02*
X139543296Y-120005701D01*
X139543296Y-120005701D02*
X139664249Y-120005701D01*
X140087581Y-120852368D02*
X140087581Y-120005701D01*
X140087581Y-119582368D02*
X140027105Y-119642844D01*
X140027105Y-119642844D02*
X140087581Y-119703320D01*
X140087581Y-119703320D02*
X140148058Y-119642844D01*
X140148058Y-119642844D02*
X140087581Y-119582368D01*
X140087581Y-119582368D02*
X140087581Y-119703320D01*
X140692343Y-120005701D02*
X140692343Y-120852368D01*
X140692343Y-120126653D02*
X140752820Y-120066177D01*
X140752820Y-120066177D02*
X140873772Y-120005701D01*
X140873772Y-120005701D02*
X141055201Y-120005701D01*
X141055201Y-120005701D02*
X141176153Y-120066177D01*
X141176153Y-120066177D02*
X141236629Y-120187130D01*
X141236629Y-120187130D02*
X141236629Y-120852368D01*
X142385677Y-120005701D02*
X142385677Y-121033796D01*
X142385677Y-121033796D02*
X142325201Y-121154749D01*
X142325201Y-121154749D02*
X142264725Y-121215225D01*
X142264725Y-121215225D02*
X142143772Y-121275701D01*
X142143772Y-121275701D02*
X141962344Y-121275701D01*
X141962344Y-121275701D02*
X141841391Y-121215225D01*
X142385677Y-120791892D02*
X142264725Y-120852368D01*
X142264725Y-120852368D02*
X142022820Y-120852368D01*
X142022820Y-120852368D02*
X141901868Y-120791892D01*
X141901868Y-120791892D02*
X141841391Y-120731415D01*
X141841391Y-120731415D02*
X141780915Y-120610463D01*
X141780915Y-120610463D02*
X141780915Y-120247606D01*
X141780915Y-120247606D02*
X141841391Y-120126653D01*
X141841391Y-120126653D02*
X141901868Y-120066177D01*
X141901868Y-120066177D02*
X142022820Y-120005701D01*
X142022820Y-120005701D02*
X142264725Y-120005701D01*
X142264725Y-120005701D02*
X142385677Y-120066177D01*
X142990439Y-120731415D02*
X143050916Y-120791892D01*
X143050916Y-120791892D02*
X142990439Y-120852368D01*
X142990439Y-120852368D02*
X142929963Y-120791892D01*
X142929963Y-120791892D02*
X142990439Y-120731415D01*
X142990439Y-120731415D02*
X142990439Y-120852368D01*
X143595201Y-120852368D02*
X143595201Y-120005701D01*
X143595201Y-120126653D02*
X143655678Y-120066177D01*
X143655678Y-120066177D02*
X143776630Y-120005701D01*
X143776630Y-120005701D02*
X143958059Y-120005701D01*
X143958059Y-120005701D02*
X144079011Y-120066177D01*
X144079011Y-120066177D02*
X144139487Y-120187130D01*
X144139487Y-120187130D02*
X144139487Y-120852368D01*
X144139487Y-120187130D02*
X144199963Y-120066177D01*
X144199963Y-120066177D02*
X144320916Y-120005701D01*
X144320916Y-120005701D02*
X144502344Y-120005701D01*
X144502344Y-120005701D02*
X144623297Y-120066177D01*
X144623297Y-120066177D02*
X144683773Y-120187130D01*
X144683773Y-120187130D02*
X144683773Y-120852368D01*
X145772344Y-120791892D02*
X145651392Y-120852368D01*
X145651392Y-120852368D02*
X145409487Y-120852368D01*
X145409487Y-120852368D02*
X145288534Y-120791892D01*
X145288534Y-120791892D02*
X145228058Y-120670939D01*
X145228058Y-120670939D02*
X145228058Y-120187130D01*
X145228058Y-120187130D02*
X145288534Y-120066177D01*
X145288534Y-120066177D02*
X145409487Y-120005701D01*
X145409487Y-120005701D02*
X145651392Y-120005701D01*
X145651392Y-120005701D02*
X145772344Y-120066177D01*
X145772344Y-120066177D02*
X145832820Y-120187130D01*
X145832820Y-120187130D02*
X145832820Y-120308082D01*
X145832820Y-120308082D02*
X145228058Y-120429034D01*
D10*
X128503884Y-120148609D02*
X129265789Y-120148609D01*
X129265789Y-120434323D02*
X128503884Y-120434323D01*
X130456264Y-119624800D02*
X129599122Y-120910514D01*
X130646741Y-120291466D02*
X130694360Y-120243847D01*
X130694360Y-120243847D02*
X130789598Y-120196228D01*
X130789598Y-120196228D02*
X130980074Y-120291466D01*
X130980074Y-120291466D02*
X131075312Y-120243847D01*
X131075312Y-120243847D02*
X131122931Y-120196228D01*
X119275312Y-120777180D02*
X119227693Y-120824800D01*
X119227693Y-120824800D02*
X119084836Y-120872419D01*
X119084836Y-120872419D02*
X118989598Y-120872419D01*
X118989598Y-120872419D02*
X118846741Y-120824800D01*
X118846741Y-120824800D02*
X118751503Y-120729561D01*
X118751503Y-120729561D02*
X118703884Y-120634323D01*
X118703884Y-120634323D02*
X118656265Y-120443847D01*
X118656265Y-120443847D02*
X118656265Y-120300990D01*
X118656265Y-120300990D02*
X118703884Y-120110514D01*
X118703884Y-120110514D02*
X118751503Y-120015276D01*
X118751503Y-120015276D02*
X118846741Y-119920038D01*
X118846741Y-119920038D02*
X118989598Y-119872419D01*
X118989598Y-119872419D02*
X119084836Y-119872419D01*
X119084836Y-119872419D02*
X119227693Y-119920038D01*
X119227693Y-119920038D02*
X119275312Y-119967657D01*
X120227693Y-120872419D02*
X119656265Y-120872419D01*
X119941979Y-120872419D02*
X119941979Y-119872419D01*
X119941979Y-119872419D02*
X119846741Y-120015276D01*
X119846741Y-120015276D02*
X119751503Y-120110514D01*
X119751503Y-120110514D02*
X119656265Y-120158133D01*
X124027693Y-120872419D02*
X123456265Y-120872419D01*
X123741979Y-120872419D02*
X123741979Y-119872419D01*
X123741979Y-119872419D02*
X123646741Y-120015276D01*
X123646741Y-120015276D02*
X123551503Y-120110514D01*
X123551503Y-120110514D02*
X123456265Y-120158133D01*
X124408646Y-119967657D02*
X124456265Y-119920038D01*
X124456265Y-119920038D02*
X124551503Y-119872419D01*
X124551503Y-119872419D02*
X124789598Y-119872419D01*
X124789598Y-119872419D02*
X124884836Y-119920038D01*
X124884836Y-119920038D02*
X124932455Y-119967657D01*
X124932455Y-119967657D02*
X124980074Y-120062895D01*
X124980074Y-120062895D02*
X124980074Y-120158133D01*
X124980074Y-120158133D02*
X124932455Y-120300990D01*
X124932455Y-120300990D02*
X124361027Y-120872419D01*
X124361027Y-120872419D02*
X124980074Y-120872419D01*
X125265789Y-119872419D02*
X125599122Y-120872419D01*
X125599122Y-120872419D02*
X125932455Y-119872419D01*
X147127580Y-70553884D02*
X146318057Y-70553884D01*
X146318057Y-70553884D02*
X146222819Y-70601503D01*
X146222819Y-70601503D02*
X146175200Y-70649122D01*
X146175200Y-70649122D02*
X146127580Y-70744360D01*
X146127580Y-70744360D02*
X146127580Y-70934836D01*
X146127580Y-70934836D02*
X146175200Y-71030074D01*
X146175200Y-71030074D02*
X146222819Y-71077693D01*
X146222819Y-71077693D02*
X146318057Y-71125312D01*
X146318057Y-71125312D02*
X147127580Y-71125312D01*
X146175200Y-71553884D02*
X146127580Y-71696741D01*
X146127580Y-71696741D02*
X146127580Y-71934836D01*
X146127580Y-71934836D02*
X146175200Y-72030074D01*
X146175200Y-72030074D02*
X146222819Y-72077693D01*
X146222819Y-72077693D02*
X146318057Y-72125312D01*
X146318057Y-72125312D02*
X146413295Y-72125312D01*
X146413295Y-72125312D02*
X146508533Y-72077693D01*
X146508533Y-72077693D02*
X146556152Y-72030074D01*
X146556152Y-72030074D02*
X146603771Y-71934836D01*
X146603771Y-71934836D02*
X146651390Y-71744360D01*
X146651390Y-71744360D02*
X146699009Y-71649122D01*
X146699009Y-71649122D02*
X146746628Y-71601503D01*
X146746628Y-71601503D02*
X146841866Y-71553884D01*
X146841866Y-71553884D02*
X146937104Y-71553884D01*
X146937104Y-71553884D02*
X147032342Y-71601503D01*
X147032342Y-71601503D02*
X147079961Y-71649122D01*
X147079961Y-71649122D02*
X147127580Y-71744360D01*
X147127580Y-71744360D02*
X147127580Y-71982455D01*
X147127580Y-71982455D02*
X147079961Y-72125312D01*
X146651390Y-72887217D02*
X146603771Y-73030074D01*
X146603771Y-73030074D02*
X146556152Y-73077693D01*
X146556152Y-73077693D02*
X146460914Y-73125312D01*
X146460914Y-73125312D02*
X146318057Y-73125312D01*
X146318057Y-73125312D02*
X146222819Y-73077693D01*
X146222819Y-73077693D02*
X146175200Y-73030074D01*
X146175200Y-73030074D02*
X146127580Y-72934836D01*
X146127580Y-72934836D02*
X146127580Y-72553884D01*
X146127580Y-72553884D02*
X147127580Y-72553884D01*
X147127580Y-72553884D02*
X147127580Y-72887217D01*
X147127580Y-72887217D02*
X147079961Y-72982455D01*
X147079961Y-72982455D02*
X147032342Y-73030074D01*
X147032342Y-73030074D02*
X146937104Y-73077693D01*
X146937104Y-73077693D02*
X146841866Y-73077693D01*
X146841866Y-73077693D02*
X146746628Y-73030074D01*
X146746628Y-73030074D02*
X146699009Y-72982455D01*
X146699009Y-72982455D02*
X146651390Y-72887217D01*
X146651390Y-72887217D02*
X146651390Y-72553884D01*
D12*
X134856666Y-76525819D02*
X134856666Y-77240104D01*
X134856666Y-77240104D02*
X134809047Y-77382961D01*
X134809047Y-77382961D02*
X134713809Y-77478200D01*
X134713809Y-77478200D02*
X134570952Y-77525819D01*
X134570952Y-77525819D02*
X134475714Y-77525819D01*
X135237619Y-76525819D02*
X135856666Y-76525819D01*
X135856666Y-76525819D02*
X135523333Y-76906771D01*
X135523333Y-76906771D02*
X135666190Y-76906771D01*
X135666190Y-76906771D02*
X135761428Y-76954390D01*
X135761428Y-76954390D02*
X135809047Y-77002009D01*
X135809047Y-77002009D02*
X135856666Y-77097247D01*
X135856666Y-77097247D02*
X135856666Y-77335342D01*
X135856666Y-77335342D02*
X135809047Y-77430580D01*
X135809047Y-77430580D02*
X135761428Y-77478200D01*
X135761428Y-77478200D02*
X135666190Y-77525819D01*
X135666190Y-77525819D02*
X135380476Y-77525819D01*
X135380476Y-77525819D02*
X135285238Y-77478200D01*
X135285238Y-77478200D02*
X135237619Y-77430580D01*
X122033333Y-109454819D02*
X121700000Y-108978628D01*
X121461905Y-109454819D02*
X121461905Y-108454819D01*
X121461905Y-108454819D02*
X121842857Y-108454819D01*
X121842857Y-108454819D02*
X121938095Y-108502438D01*
X121938095Y-108502438D02*
X121985714Y-108550057D01*
X121985714Y-108550057D02*
X122033333Y-108645295D01*
X122033333Y-108645295D02*
X122033333Y-108788152D01*
X122033333Y-108788152D02*
X121985714Y-108883390D01*
X121985714Y-108883390D02*
X121938095Y-108931009D01*
X121938095Y-108931009D02*
X121842857Y-108978628D01*
X121842857Y-108978628D02*
X121461905Y-108978628D01*
X122985714Y-109454819D02*
X122414286Y-109454819D01*
X122700000Y-109454819D02*
X122700000Y-108454819D01*
X122700000Y-108454819D02*
X122604762Y-108597676D01*
X122604762Y-108597676D02*
X122509524Y-108692914D01*
X122509524Y-108692914D02*
X122414286Y-108740533D01*
X124933333Y-115345180D02*
X124933333Y-114630895D01*
X124933333Y-114630895D02*
X124980952Y-114488038D01*
X124980952Y-114488038D02*
X125076190Y-114392800D01*
X125076190Y-114392800D02*
X125219047Y-114345180D01*
X125219047Y-114345180D02*
X125314285Y-114345180D01*
X123933333Y-114345180D02*
X124504761Y-114345180D01*
X124219047Y-114345180D02*
X124219047Y-115345180D01*
X124219047Y-115345180D02*
X124314285Y-115202323D01*
X124314285Y-115202323D02*
X124409523Y-115107085D01*
X124409523Y-115107085D02*
X124504761Y-115059466D01*
X119233333Y-88654819D02*
X118900000Y-88178628D01*
X118661905Y-88654819D02*
X118661905Y-87654819D01*
X118661905Y-87654819D02*
X119042857Y-87654819D01*
X119042857Y-87654819D02*
X119138095Y-87702438D01*
X119138095Y-87702438D02*
X119185714Y-87750057D01*
X119185714Y-87750057D02*
X119233333Y-87845295D01*
X119233333Y-87845295D02*
X119233333Y-87988152D01*
X119233333Y-87988152D02*
X119185714Y-88083390D01*
X119185714Y-88083390D02*
X119138095Y-88131009D01*
X119138095Y-88131009D02*
X119042857Y-88178628D01*
X119042857Y-88178628D02*
X118661905Y-88178628D01*
X119566667Y-87654819D02*
X120185714Y-87654819D01*
X120185714Y-87654819D02*
X119852381Y-88035771D01*
X119852381Y-88035771D02*
X119995238Y-88035771D01*
X119995238Y-88035771D02*
X120090476Y-88083390D01*
X120090476Y-88083390D02*
X120138095Y-88131009D01*
X120138095Y-88131009D02*
X120185714Y-88226247D01*
X120185714Y-88226247D02*
X120185714Y-88464342D01*
X120185714Y-88464342D02*
X120138095Y-88559580D01*
X120138095Y-88559580D02*
X120090476Y-88607200D01*
X120090476Y-88607200D02*
X119995238Y-88654819D01*
X119995238Y-88654819D02*
X119709524Y-88654819D01*
X119709524Y-88654819D02*
X119614286Y-88607200D01*
X119614286Y-88607200D02*
X119566667Y-88559580D01*
X128841904Y-99568269D02*
X128841904Y-98568269D01*
X128841904Y-98568269D02*
X129079999Y-98568269D01*
X129079999Y-98568269D02*
X129222856Y-98615888D01*
X129222856Y-98615888D02*
X129318094Y-98711126D01*
X129318094Y-98711126D02*
X129365713Y-98806364D01*
X129365713Y-98806364D02*
X129413332Y-98996840D01*
X129413332Y-98996840D02*
X129413332Y-99139697D01*
X129413332Y-99139697D02*
X129365713Y-99330173D01*
X129365713Y-99330173D02*
X129318094Y-99425411D01*
X129318094Y-99425411D02*
X129222856Y-99520650D01*
X129222856Y-99520650D02*
X129079999Y-99568269D01*
X129079999Y-99568269D02*
X128841904Y-99568269D01*
X130365713Y-99568269D02*
X129794285Y-99568269D01*
X130079999Y-99568269D02*
X130079999Y-98568269D01*
X130079999Y-98568269D02*
X129984761Y-98711126D01*
X129984761Y-98711126D02*
X129889523Y-98806364D01*
X129889523Y-98806364D02*
X129794285Y-98853983D01*
X119233333Y-92054819D02*
X118900000Y-91578628D01*
X118661905Y-92054819D02*
X118661905Y-91054819D01*
X118661905Y-91054819D02*
X119042857Y-91054819D01*
X119042857Y-91054819D02*
X119138095Y-91102438D01*
X119138095Y-91102438D02*
X119185714Y-91150057D01*
X119185714Y-91150057D02*
X119233333Y-91245295D01*
X119233333Y-91245295D02*
X119233333Y-91388152D01*
X119233333Y-91388152D02*
X119185714Y-91483390D01*
X119185714Y-91483390D02*
X119138095Y-91531009D01*
X119138095Y-91531009D02*
X119042857Y-91578628D01*
X119042857Y-91578628D02*
X118661905Y-91578628D01*
X119614286Y-91150057D02*
X119661905Y-91102438D01*
X119661905Y-91102438D02*
X119757143Y-91054819D01*
X119757143Y-91054819D02*
X119995238Y-91054819D01*
X119995238Y-91054819D02*
X120090476Y-91102438D01*
X120090476Y-91102438D02*
X120138095Y-91150057D01*
X120138095Y-91150057D02*
X120185714Y-91245295D01*
X120185714Y-91245295D02*
X120185714Y-91340533D01*
X120185714Y-91340533D02*
X120138095Y-91483390D01*
X120138095Y-91483390D02*
X119566667Y-92054819D01*
X119566667Y-92054819D02*
X120185714Y-92054819D01*
X126440419Y-91633333D02*
X126392800Y-91585714D01*
X126392800Y-91585714D02*
X126345180Y-91442857D01*
X126345180Y-91442857D02*
X126345180Y-91347619D01*
X126345180Y-91347619D02*
X126392800Y-91204762D01*
X126392800Y-91204762D02*
X126488038Y-91109524D01*
X126488038Y-91109524D02*
X126583276Y-91061905D01*
X126583276Y-91061905D02*
X126773752Y-91014286D01*
X126773752Y-91014286D02*
X126916609Y-91014286D01*
X126916609Y-91014286D02*
X127107085Y-91061905D01*
X127107085Y-91061905D02*
X127202323Y-91109524D01*
X127202323Y-91109524D02*
X127297561Y-91204762D01*
X127297561Y-91204762D02*
X127345180Y-91347619D01*
X127345180Y-91347619D02*
X127345180Y-91442857D01*
X127345180Y-91442857D02*
X127297561Y-91585714D01*
X127297561Y-91585714D02*
X127249942Y-91633333D01*
X127345180Y-91966667D02*
X127345180Y-92585714D01*
X127345180Y-92585714D02*
X126964228Y-92252381D01*
X126964228Y-92252381D02*
X126964228Y-92395238D01*
X126964228Y-92395238D02*
X126916609Y-92490476D01*
X126916609Y-92490476D02*
X126868990Y-92538095D01*
X126868990Y-92538095D02*
X126773752Y-92585714D01*
X126773752Y-92585714D02*
X126535657Y-92585714D01*
X126535657Y-92585714D02*
X126440419Y-92538095D01*
X126440419Y-92538095D02*
X126392800Y-92490476D01*
X126392800Y-92490476D02*
X126345180Y-92395238D01*
X126345180Y-92395238D02*
X126345180Y-92109524D01*
X126345180Y-92109524D02*
X126392800Y-92014286D01*
X126392800Y-92014286D02*
X126440419Y-91966667D01*
X140738095Y-107204819D02*
X140738095Y-108014342D01*
X140738095Y-108014342D02*
X140785714Y-108109580D01*
X140785714Y-108109580D02*
X140833333Y-108157200D01*
X140833333Y-108157200D02*
X140928571Y-108204819D01*
X140928571Y-108204819D02*
X141119047Y-108204819D01*
X141119047Y-108204819D02*
X141214285Y-108157200D01*
X141214285Y-108157200D02*
X141261904Y-108109580D01*
X141261904Y-108109580D02*
X141309523Y-108014342D01*
X141309523Y-108014342D02*
X141309523Y-107204819D01*
X141738095Y-107300057D02*
X141785714Y-107252438D01*
X141785714Y-107252438D02*
X141880952Y-107204819D01*
X141880952Y-107204819D02*
X142119047Y-107204819D01*
X142119047Y-107204819D02*
X142214285Y-107252438D01*
X142214285Y-107252438D02*
X142261904Y-107300057D01*
X142261904Y-107300057D02*
X142309523Y-107395295D01*
X142309523Y-107395295D02*
X142309523Y-107490533D01*
X142309523Y-107490533D02*
X142261904Y-107633390D01*
X142261904Y-107633390D02*
X141690476Y-108204819D01*
X141690476Y-108204819D02*
X142309523Y-108204819D01*
X116854819Y-103961904D02*
X117664342Y-103961904D01*
X117664342Y-103961904D02*
X117759580Y-103914285D01*
X117759580Y-103914285D02*
X117807200Y-103866666D01*
X117807200Y-103866666D02*
X117854819Y-103771428D01*
X117854819Y-103771428D02*
X117854819Y-103580952D01*
X117854819Y-103580952D02*
X117807200Y-103485714D01*
X117807200Y-103485714D02*
X117759580Y-103438095D01*
X117759580Y-103438095D02*
X117664342Y-103390476D01*
X117664342Y-103390476D02*
X116854819Y-103390476D01*
X117854819Y-102390476D02*
X117854819Y-102961904D01*
X117854819Y-102676190D02*
X116854819Y-102676190D01*
X116854819Y-102676190D02*
X116997676Y-102771428D01*
X116997676Y-102771428D02*
X117092914Y-102866666D01*
X117092914Y-102866666D02*
X117140533Y-102961904D01*
X134846666Y-66075819D02*
X134846666Y-66790104D01*
X134846666Y-66790104D02*
X134799047Y-66932961D01*
X134799047Y-66932961D02*
X134703809Y-67028200D01*
X134703809Y-67028200D02*
X134560952Y-67075819D01*
X134560952Y-67075819D02*
X134465714Y-67075819D01*
X135275238Y-66171057D02*
X135322857Y-66123438D01*
X135322857Y-66123438D02*
X135418095Y-66075819D01*
X135418095Y-66075819D02*
X135656190Y-66075819D01*
X135656190Y-66075819D02*
X135751428Y-66123438D01*
X135751428Y-66123438D02*
X135799047Y-66171057D01*
X135799047Y-66171057D02*
X135846666Y-66266295D01*
X135846666Y-66266295D02*
X135846666Y-66361533D01*
X135846666Y-66361533D02*
X135799047Y-66504390D01*
X135799047Y-66504390D02*
X135227619Y-67075819D01*
X135227619Y-67075819D02*
X135846666Y-67075819D01*
X119270833Y-95359580D02*
X119223214Y-95407200D01*
X119223214Y-95407200D02*
X119080357Y-95454819D01*
X119080357Y-95454819D02*
X118985119Y-95454819D01*
X118985119Y-95454819D02*
X118842262Y-95407200D01*
X118842262Y-95407200D02*
X118747024Y-95311961D01*
X118747024Y-95311961D02*
X118699405Y-95216723D01*
X118699405Y-95216723D02*
X118651786Y-95026247D01*
X118651786Y-95026247D02*
X118651786Y-94883390D01*
X118651786Y-94883390D02*
X118699405Y-94692914D01*
X118699405Y-94692914D02*
X118747024Y-94597676D01*
X118747024Y-94597676D02*
X118842262Y-94502438D01*
X118842262Y-94502438D02*
X118985119Y-94454819D01*
X118985119Y-94454819D02*
X119080357Y-94454819D01*
X119080357Y-94454819D02*
X119223214Y-94502438D01*
X119223214Y-94502438D02*
X119270833Y-94550057D01*
X119651786Y-94550057D02*
X119699405Y-94502438D01*
X119699405Y-94502438D02*
X119794643Y-94454819D01*
X119794643Y-94454819D02*
X120032738Y-94454819D01*
X120032738Y-94454819D02*
X120127976Y-94502438D01*
X120127976Y-94502438D02*
X120175595Y-94550057D01*
X120175595Y-94550057D02*
X120223214Y-94645295D01*
X120223214Y-94645295D02*
X120223214Y-94740533D01*
X120223214Y-94740533D02*
X120175595Y-94883390D01*
X120175595Y-94883390D02*
X119604167Y-95454819D01*
X119604167Y-95454819D02*
X120223214Y-95454819D01*
X144522305Y-105204819D02*
X144522305Y-104204819D01*
X144522305Y-104204819D02*
X144760400Y-104204819D01*
X144760400Y-104204819D02*
X144903257Y-104252438D01*
X144903257Y-104252438D02*
X144998495Y-104347676D01*
X144998495Y-104347676D02*
X145046114Y-104442914D01*
X145046114Y-104442914D02*
X145093733Y-104633390D01*
X145093733Y-104633390D02*
X145093733Y-104776247D01*
X145093733Y-104776247D02*
X145046114Y-104966723D01*
X145046114Y-104966723D02*
X144998495Y-105061961D01*
X144998495Y-105061961D02*
X144903257Y-105157200D01*
X144903257Y-105157200D02*
X144760400Y-105204819D01*
X144760400Y-105204819D02*
X144522305Y-105204819D01*
X145474686Y-104300057D02*
X145522305Y-104252438D01*
X145522305Y-104252438D02*
X145617543Y-104204819D01*
X145617543Y-104204819D02*
X145855638Y-104204819D01*
X145855638Y-104204819D02*
X145950876Y-104252438D01*
X145950876Y-104252438D02*
X145998495Y-104300057D01*
X145998495Y-104300057D02*
X146046114Y-104395295D01*
X146046114Y-104395295D02*
X146046114Y-104490533D01*
X146046114Y-104490533D02*
X145998495Y-104633390D01*
X145998495Y-104633390D02*
X145427067Y-105204819D01*
X145427067Y-105204819D02*
X146046114Y-105204819D01*
X119233333Y-85254819D02*
X118900000Y-84778628D01*
X118661905Y-85254819D02*
X118661905Y-84254819D01*
X118661905Y-84254819D02*
X119042857Y-84254819D01*
X119042857Y-84254819D02*
X119138095Y-84302438D01*
X119138095Y-84302438D02*
X119185714Y-84350057D01*
X119185714Y-84350057D02*
X119233333Y-84445295D01*
X119233333Y-84445295D02*
X119233333Y-84588152D01*
X119233333Y-84588152D02*
X119185714Y-84683390D01*
X119185714Y-84683390D02*
X119138095Y-84731009D01*
X119138095Y-84731009D02*
X119042857Y-84778628D01*
X119042857Y-84778628D02*
X118661905Y-84778628D01*
X120090476Y-84588152D02*
X120090476Y-85254819D01*
X119852381Y-84207200D02*
X119614286Y-84921485D01*
X119614286Y-84921485D02*
X120233333Y-84921485D01*
X140566666Y-91145180D02*
X141042856Y-91145180D01*
X141042856Y-91145180D02*
X141042856Y-92145180D01*
X139709523Y-91145180D02*
X140280951Y-91145180D01*
X139995237Y-91145180D02*
X139995237Y-92145180D01*
X139995237Y-92145180D02*
X140090475Y-92002323D01*
X140090475Y-92002323D02*
X140185713Y-91907085D01*
X140185713Y-91907085D02*
X140280951Y-91859466D01*
X140833333Y-114859580D02*
X140785714Y-114907200D01*
X140785714Y-114907200D02*
X140642857Y-114954819D01*
X140642857Y-114954819D02*
X140547619Y-114954819D01*
X140547619Y-114954819D02*
X140404762Y-114907200D01*
X140404762Y-114907200D02*
X140309524Y-114811961D01*
X140309524Y-114811961D02*
X140261905Y-114716723D01*
X140261905Y-114716723D02*
X140214286Y-114526247D01*
X140214286Y-114526247D02*
X140214286Y-114383390D01*
X140214286Y-114383390D02*
X140261905Y-114192914D01*
X140261905Y-114192914D02*
X140309524Y-114097676D01*
X140309524Y-114097676D02*
X140404762Y-114002438D01*
X140404762Y-114002438D02*
X140547619Y-113954819D01*
X140547619Y-113954819D02*
X140642857Y-113954819D01*
X140642857Y-113954819D02*
X140785714Y-114002438D01*
X140785714Y-114002438D02*
X140833333Y-114050057D01*
X141785714Y-114954819D02*
X141214286Y-114954819D01*
X141500000Y-114954819D02*
X141500000Y-113954819D01*
X141500000Y-113954819D02*
X141404762Y-114097676D01*
X141404762Y-114097676D02*
X141309524Y-114192914D01*
X141309524Y-114192914D02*
X141214286Y-114240533D01*
D13*
%TO.C,J3*%
X122460000Y-78071000D02*
X147920000Y-78071000D01*
X122460000Y-81071000D02*
X122460000Y-78071000D01*
X145350000Y-81071000D02*
X145350000Y-78071000D01*
X147920000Y-78071000D02*
X147920000Y-81071000D01*
X147920000Y-81071000D02*
X122460000Y-81071000D01*
%TO.C,R1*%
X118972936Y-108265000D02*
X119427064Y-108265000D01*
X118972936Y-109735000D02*
X119427064Y-109735000D01*
D14*
%TO.C,J1*%
X116853000Y-110583600D02*
X116853000Y-119016400D01*
X116853000Y-119016400D02*
X132347000Y-119016400D01*
D10*
X116880000Y-117600000D02*
X132280000Y-117600000D01*
X118480000Y-118900000D02*
X118480000Y-117600000D01*
X120480000Y-118900000D02*
X120480000Y-117600000D01*
X123680000Y-118900000D02*
X123680000Y-117600000D01*
X125680000Y-118900000D02*
X125680000Y-117600000D01*
X128680000Y-118900000D02*
X128680000Y-117500000D01*
X130680000Y-118900000D02*
X130680000Y-117600000D01*
D14*
X132347000Y-110583600D02*
X116853000Y-110583600D01*
X132347000Y-119016400D02*
X132347000Y-110583600D01*
D15*
X133363000Y-114800000D02*
G75*
G02*
X132601000Y-114800000I-381000J0D01*
G01*
X132601000Y-114800000D02*
G75*
G02*
X133363000Y-114800000I381000J0D01*
G01*
D13*
%TO.C,R3*%
X119172936Y-89065000D02*
X119627064Y-89065000D01*
X119172936Y-90535000D02*
X119627064Y-90535000D01*
D14*
%TO.C,D1*%
X124874899Y-102115488D02*
X124874899Y-106511412D01*
X126293738Y-106713750D02*
X128866260Y-106713750D01*
X128866260Y-101913150D02*
X126293738Y-101913150D01*
X130285099Y-106511412D02*
X130285099Y-102115488D01*
D13*
X131109999Y-100553450D02*
X130779999Y-100313450D01*
X131109999Y-100073450D01*
X131109999Y-100553450D01*
G36*
X131109999Y-100553450D02*
G01*
X130779999Y-100313450D01*
X131109999Y-100073450D01*
X131109999Y-100553450D01*
G37*
%TO.C,R2*%
X119172936Y-92465000D02*
X119627064Y-92465000D01*
X119172936Y-93935000D02*
X119627064Y-93935000D01*
D14*
%TO.C,C3*%
X122418500Y-87418500D02*
X122418500Y-96181500D01*
X122418500Y-96181500D02*
X125667160Y-96181500D01*
X125667160Y-87418500D02*
X122418500Y-87418500D01*
X127932840Y-96181500D02*
X131181500Y-96181500D01*
X131181500Y-87418500D02*
X127932840Y-87418500D01*
X131181500Y-96181500D02*
X131181500Y-87418500D01*
X126876200Y-85323000D02*
G75*
G02*
X126723800Y-85323000I-76200J0D01*
G01*
X126723800Y-85323000D02*
G75*
G02*
X126876200Y-85323000I76200J0D01*
G01*
D13*
%TO.C,U2*%
X135040000Y-104600000D02*
X135040000Y-102650000D01*
X135040000Y-104600000D02*
X135040000Y-106550000D01*
X140160000Y-104600000D02*
X140160000Y-102650000D01*
X140160000Y-104600000D02*
X140160000Y-106550000D01*
X140395000Y-102140000D02*
X140065000Y-101900000D01*
X140395000Y-101660000D01*
X140395000Y-102140000D01*
G36*
X140395000Y-102140000D02*
G01*
X140065000Y-101900000D01*
X140395000Y-101660000D01*
X140395000Y-102140000D01*
G37*
%TO.C,U1*%
X118190000Y-100890000D02*
X118405000Y-100890000D01*
X118190000Y-103200000D02*
X118190000Y-100890000D01*
X118190000Y-103200000D02*
X118190000Y-105510000D01*
X118190000Y-105510000D02*
X118405000Y-105510000D01*
X121010000Y-100890000D02*
X120795000Y-100890000D01*
X121010000Y-103200000D02*
X121010000Y-100890000D01*
X121010000Y-103200000D02*
X121010000Y-105510000D01*
X121010000Y-105510000D02*
X120795000Y-105510000D01*
X118405000Y-106300000D02*
X118075000Y-106540000D01*
X118075000Y-106060000D01*
X118405000Y-106300000D01*
G36*
X118405000Y-106300000D02*
G01*
X118075000Y-106540000D01*
X118075000Y-106060000D01*
X118405000Y-106300000D01*
G37*
%TO.C,J2*%
X122460000Y-62750000D02*
X147920000Y-62750000D01*
X122460000Y-65750000D02*
X122460000Y-62750000D01*
X145350000Y-65750000D02*
X145350000Y-62750000D01*
X147920000Y-62750000D02*
X147920000Y-65750000D01*
X147920000Y-65750000D02*
X122460000Y-65750000D01*
%TO.C,C2*%
X119138748Y-95865000D02*
X119661252Y-95865000D01*
X119138748Y-97335000D02*
X119661252Y-97335000D01*
D14*
%TO.C,D2*%
X141374200Y-104115000D02*
X141374200Y-105385000D01*
X141374200Y-104750000D02*
X142136200Y-104115000D01*
X141374200Y-104750000D02*
X142136200Y-104242000D01*
X141374200Y-104750000D02*
X142136200Y-104369000D01*
X141374200Y-104750000D02*
X142136200Y-104496000D01*
X141374200Y-104750000D02*
X142136200Y-104623000D01*
X141374200Y-104750000D02*
X142136200Y-104877000D01*
X141374200Y-104750000D02*
X142136200Y-105004000D01*
X141374200Y-104750000D02*
X142136200Y-105131000D01*
X141374200Y-104750000D02*
X142136200Y-105258000D01*
X141374200Y-104750000D02*
X142136200Y-105385000D01*
X142136200Y-104115000D02*
X142136200Y-105385000D01*
X142362260Y-104750000D02*
X141120200Y-104750000D01*
X142885500Y-103226000D02*
X142885500Y-103591760D01*
X142885500Y-105908240D02*
X142885500Y-106274000D01*
X142885500Y-106274000D02*
X147635300Y-106274000D01*
X147635300Y-103226000D02*
X142885500Y-103226000D01*
X147635300Y-103591760D02*
X147635300Y-103226000D01*
X147635300Y-106274000D02*
X147635300Y-105908240D01*
D13*
%TO.C,R4*%
X119627064Y-85665000D02*
X119172936Y-85665000D01*
X119627064Y-87135000D02*
X119172936Y-87135000D01*
D14*
%TO.C,L1*%
X132653000Y-83599000D02*
X132653000Y-99601000D01*
X132653000Y-99601000D02*
X148147000Y-99601000D01*
X148147000Y-83599000D02*
X132653000Y-83599000D01*
X148147000Y-99601000D02*
X148147000Y-83599000D01*
%TO.C,C1*%
X136618500Y-110118500D02*
X136618500Y-113367160D01*
X136618500Y-115632840D02*
X136618500Y-118881500D01*
X136618500Y-118881500D02*
X145381500Y-118881500D01*
X145381500Y-110118500D02*
X136618500Y-110118500D01*
X145381500Y-113367160D02*
X145381500Y-110118500D01*
X145381500Y-118881500D02*
X145381500Y-115632840D01*
X134599200Y-114500000D02*
G75*
G02*
X134446800Y-114500000I-76200J0D01*
G01*
X134446800Y-114500000D02*
G75*
G02*
X134599200Y-114500000I76200J0D01*
G01*
%TD*%
M02*
