%TF.GenerationSoftware,KiCad,Pcbnew,8.0.6*%
%TF.CreationDate,2024-11-29T18:17:16+01:00*%
%TF.ProjectId,doorbell_watcher,646f6f72-6265-46c6-9c5f-776174636865,rev?*%
%TF.SameCoordinates,Original*%
%TF.FileFunction,Copper,L1,Top*%
%TF.FilePolarity,Positive*%
%FSLAX46Y46*%
G04 Gerber Fmt 4.6, Leading zero omitted, Abs format (unit mm)*
G04 Created by KiCad (PCBNEW 8.0.6) date 2024-11-29 18:17:16*
%MOMM*%
%LPD*%
G01*
G04 APERTURE LIST*
G04 Aperture macros list*
%AMRoundRect*
0 Rectangle with rounded corners*
0 $1 Rounding radius*
0 $2 $3 $4 $5 $6 $7 $8 $9 X,Y pos of 4 corners*
0 Add a 4 corners polygon primitive as box body*
4,1,4,$2,$3,$4,$5,$6,$7,$8,$9,$2,$3,0*
0 Add four circle primitives for the rounded corners*
1,1,$1+$1,$2,$3*
1,1,$1+$1,$4,$5*
1,1,$1+$1,$6,$7*
1,1,$1+$1,$8,$9*
0 Add four rect primitives between the rounded corners*
20,1,$1+$1,$2,$3,$4,$5,0*
20,1,$1+$1,$4,$5,$6,$7,0*
20,1,$1+$1,$6,$7,$8,$9,0*
20,1,$1+$1,$8,$9,$2,$3,0*%
G04 Aperture macros list end*
%TA.AperFunction,ComponentPad*%
%ADD10O,1.600000X2.000000*%
%TD*%
%TA.AperFunction,SMDPad,CuDef*%
%ADD11RoundRect,0.250000X-0.350000X-0.450000X0.350000X-0.450000X0.350000X0.450000X-0.350000X0.450000X0*%
%TD*%
%TA.AperFunction,ComponentPad*%
%ADD12C,2.032000*%
%TD*%
%TA.AperFunction,SMDPad,CuDef*%
%ADD13R,0.762000X1.638300*%
%TD*%
%TA.AperFunction,SMDPad,CuDef*%
%ADD14R,1.600200X4.114800*%
%TD*%
%TA.AperFunction,SMDPad,CuDef*%
%ADD15RoundRect,0.150000X-0.150000X0.825000X-0.150000X-0.825000X0.150000X-0.825000X0.150000X0.825000X0*%
%TD*%
%TA.AperFunction,SMDPad,CuDef*%
%ADD16RoundRect,0.150000X0.150000X-0.662500X0.150000X0.662500X-0.150000X0.662500X-0.150000X-0.662500X0*%
%TD*%
%TA.AperFunction,SMDPad,CuDef*%
%ADD17RoundRect,0.250000X-0.337500X-0.475000X0.337500X-0.475000X0.337500X0.475000X-0.337500X0.475000X0*%
%TD*%
%TA.AperFunction,SMDPad,CuDef*%
%ADD18R,1.524000X1.651000*%
%TD*%
%TA.AperFunction,SMDPad,CuDef*%
%ADD19RoundRect,0.250000X0.350000X0.450000X-0.350000X0.450000X-0.350000X-0.450000X0.350000X-0.450000X0*%
%TD*%
%TA.AperFunction,SMDPad,CuDef*%
%ADD20R,1.524000X13.970000*%
%TD*%
%TA.AperFunction,SMDPad,CuDef*%
%ADD21R,4.114800X1.600200*%
%TD*%
%TA.AperFunction,ViaPad*%
%ADD22C,0.600000*%
%TD*%
%TA.AperFunction,Conductor*%
%ADD23C,0.500000*%
%TD*%
%TA.AperFunction,Conductor*%
%ADD24C,1.000000*%
%TD*%
%TA.AperFunction,Conductor*%
%ADD25C,0.800000*%
%TD*%
%TA.AperFunction,Conductor*%
%ADD26C,0.200000*%
%TD*%
G04 APERTURE END LIST*
D10*
%TO.P,J3,1,Pin_1*%
%TO.N,unconnected-(J3-Pin_1-Pad1)*%
X146620000Y-79571000D03*
%TO.P,J3,2,Pin_2*%
%TO.N,GND*%
X144080000Y-79571000D03*
%TO.P,J3,3,Pin_3*%
%TO.N,+5V*%
X141540000Y-79571000D03*
%TO.P,J3,4,Pin_4*%
%TO.N,+3V3*%
X139000000Y-79571000D03*
%TO.P,J3,5,Pin_5*%
%TO.N,/IO4*%
X136460000Y-79571000D03*
%TO.P,J3,6,Pin_6*%
%TO.N,/IO14*%
X133920000Y-79571000D03*
%TO.P,J3,7,Pin_7*%
%TO.N,unconnected-(J3-Pin_7-Pad7)*%
X131380000Y-79571000D03*
%TO.P,J3,8,Pin_8*%
%TO.N,unconnected-(J3-Pin_8-Pad8)*%
X128840000Y-79571000D03*
%TO.P,J3,9,Pin_9*%
%TO.N,unconnected-(J3-Pin_9-Pad9)*%
X126300000Y-79571000D03*
%TO.P,J3,10,Pin_10*%
%TO.N,unconnected-(J3-Pin_10-Pad10)*%
X123760000Y-79571000D03*
%TD*%
D11*
%TO.P,R1,1*%
%TO.N,/C1*%
X118200000Y-109000000D03*
%TO.P,R1,2*%
%TO.N,Net-(R1-Pad2)*%
X120200000Y-109000000D03*
%TD*%
D12*
%TO.P,J1,1,Pin_1*%
%TO.N,/Vin1*%
X129680000Y-114800000D03*
%TO.P,J1,2,Pin_2*%
%TO.N,/Vin2*%
X124600000Y-114800000D03*
%TO.P,J1,3,Pin_3*%
%TO.N,/C1*%
X119520000Y-114800000D03*
%TD*%
D11*
%TO.P,R3,1*%
%TO.N,Net-(C2-Pad1)*%
X118400000Y-89800000D03*
%TO.P,R3,2*%
%TO.N,/ButtonPressed*%
X120400000Y-89800000D03*
%TD*%
D13*
%TO.P,D1,1,+*%
%TO.N,Net-(D1-+)*%
X129580000Y-101221000D03*
%TO.P,D1,2,-*%
%TO.N,GND*%
X125579998Y-101221000D03*
%TO.P,D1,3*%
%TO.N,/Vin1*%
X125579998Y-107405900D03*
%TO.P,D1,4*%
%TO.N,/Vin2*%
X129580000Y-107405900D03*
%TD*%
D11*
%TO.P,R2,1*%
%TO.N,Net-(C2-Pad1)*%
X118400000Y-93200000D03*
%TO.P,R2,2*%
%TO.N,+3V3*%
X120400000Y-93200000D03*
%TD*%
D14*
%TO.P,C3,1*%
%TO.N,+5V*%
X126800000Y-88142400D03*
%TO.P,C3,2*%
%TO.N,GND*%
X126800000Y-95457600D03*
%TD*%
D15*
%TO.P,U2,1,NC*%
%TO.N,unconnected-(U2-NC-Pad1)*%
X139505000Y-102125000D03*
%TO.P,U2,2,NC*%
%TO.N,unconnected-(U2-NC-Pad2)*%
X138235000Y-102125000D03*
%TO.P,U2,3,NC*%
%TO.N,unconnected-(U2-NC-Pad3)*%
X136965000Y-102125000D03*
%TO.P,U2,4,FB*%
%TO.N,+5V*%
X135695000Y-102125000D03*
%TO.P,U2,5,~{ON}/OFF*%
%TO.N,GND*%
X135695000Y-107075000D03*
%TO.P,U2,6,GND*%
X136965000Y-107075000D03*
%TO.P,U2,7,VIN*%
%TO.N,Net-(D1-+)*%
X138235000Y-107075000D03*
%TO.P,U2,8,OUT*%
%TO.N,Net-(D2-K)*%
X139505000Y-107075000D03*
%TD*%
D16*
%TO.P,U1,1*%
%TO.N,Net-(R1-Pad2)*%
X118965000Y-106387500D03*
%TO.P,U1,2*%
%TO.N,/Vin1*%
X120235000Y-106387500D03*
%TO.P,U1,3*%
%TO.N,GND*%
X120235000Y-100012500D03*
%TO.P,U1,4*%
%TO.N,Net-(C2-Pad1)*%
X118965000Y-100012500D03*
%TD*%
D10*
%TO.P,J2,1,Pin_1*%
%TO.N,/IO23*%
X146620000Y-64250000D03*
%TO.P,J2,2,Pin_2*%
%TO.N,/IO19*%
X144080000Y-64250000D03*
%TO.P,J2,3,Pin_3*%
%TO.N,/IO18*%
X141540000Y-64250000D03*
%TO.P,J2,4,Pin_4*%
%TO.N,/IO5*%
X139000000Y-64250000D03*
%TO.P,J2,5,Pin_5*%
%TO.N,/IO22*%
X136460000Y-64250000D03*
%TO.P,J2,6,Pin_6*%
%TO.N,/IO21*%
X133920000Y-64250000D03*
%TO.P,J2,7,Pin_7*%
%TO.N,/IO32*%
X131380000Y-64250000D03*
%TO.P,J2,8,Pin_8*%
%TO.N,/IO33*%
X128840000Y-64250000D03*
%TO.P,J2,9,Pin_9*%
%TO.N,unconnected-(J2-Pin_9-Pad9)*%
X126300000Y-64250000D03*
%TO.P,J2,10,Pin_10*%
%TO.N,GND*%
X123760000Y-64250000D03*
%TD*%
D17*
%TO.P,C2,1*%
%TO.N,Net-(C2-Pad1)*%
X118362500Y-96600000D03*
%TO.P,C2,2*%
%TO.N,GND*%
X120437500Y-96600000D03*
%TD*%
D18*
%TO.P,D2,1,K*%
%TO.N,Net-(D2-K)*%
X143457000Y-104750000D03*
%TO.P,D2,2,A*%
%TO.N,GND*%
X147063800Y-104750000D03*
%TD*%
D19*
%TO.P,R4,1*%
%TO.N,/ButtonPressed*%
X120400000Y-86400000D03*
%TO.P,R4,2*%
%TO.N,/IO23*%
X118400000Y-86400000D03*
%TD*%
D20*
%TO.P,L1,1,1*%
%TO.N,Net-(D2-K)*%
X146877000Y-91600000D03*
%TO.P,L1,2,2*%
%TO.N,+5V*%
X133923000Y-91600000D03*
%TD*%
D21*
%TO.P,C1,1*%
%TO.N,Net-(D1-+)*%
X137342400Y-114500000D03*
%TO.P,C1,2*%
%TO.N,GND*%
X144657600Y-114500000D03*
%TD*%
D22*
%TO.N,GND*%
X122000000Y-99621000D03*
X143400000Y-107600000D03*
X133400000Y-106400000D03*
X146200000Y-107600000D03*
X134400000Y-105400000D03*
X124380000Y-99621000D03*
X123250000Y-99621000D03*
X144800000Y-108600000D03*
X134400000Y-104400000D03*
X126780000Y-99021000D03*
X124380000Y-97621000D03*
X122000000Y-98621000D03*
X143400000Y-108600000D03*
X122000000Y-97621000D03*
X123250000Y-97621000D03*
X134400000Y-107400000D03*
X146200000Y-108600000D03*
X124380000Y-98621000D03*
X144800000Y-107600000D03*
X133400000Y-105400000D03*
X147600000Y-107600000D03*
X125580000Y-99021000D03*
X133400000Y-104400000D03*
X134400000Y-106400000D03*
X147600000Y-109600000D03*
X123250000Y-98621000D03*
X147600000Y-108600000D03*
X147600000Y-110800000D03*
%TD*%
D23*
%TO.N,/Vin1*%
X120235000Y-106387500D02*
X122697500Y-108850000D01*
D24*
X125050000Y-110170000D02*
X125050000Y-108850000D01*
D23*
X122697500Y-108850000D02*
X125050000Y-108850000D01*
D24*
X125050000Y-108850000D02*
X125050000Y-108042449D01*
X129680000Y-114800000D02*
X125050000Y-110170000D01*
X125050000Y-108042449D02*
X125599999Y-107492450D01*
%TO.N,/Vin2*%
X132600000Y-116000000D02*
X132600000Y-111300000D01*
X132600000Y-111300000D02*
X129600001Y-108300001D01*
X130350000Y-118250000D02*
X132600000Y-116000000D01*
X129600001Y-108300001D02*
X129600001Y-107492450D01*
X124600000Y-114800000D02*
X128050000Y-118250000D01*
X128050000Y-118250000D02*
X130350000Y-118250000D01*
%TO.N,+5V*%
X133923000Y-98785000D02*
X135695000Y-100557000D01*
X133923000Y-91600000D02*
X133923000Y-95077000D01*
X133923000Y-91600000D02*
X133923000Y-98785000D01*
X135695000Y-100557000D02*
X135695000Y-102125000D01*
X133923000Y-95077000D02*
X133750000Y-95250000D01*
D23*
%TO.N,Net-(R1-Pad2)*%
X120200000Y-108700000D02*
X118965000Y-107465000D01*
X118965000Y-107465000D02*
X118965000Y-106387500D01*
X120200000Y-109000000D02*
X120200000Y-108700000D01*
D25*
%TO.N,Net-(D1-+)*%
X131380000Y-107180000D02*
X133621000Y-109421000D01*
X133621000Y-109421000D02*
X137379000Y-109421000D01*
X138235000Y-108565000D02*
X138235000Y-107075000D01*
X137379000Y-109421000D02*
X138235000Y-108565000D01*
X130266550Y-101307550D02*
X131380000Y-102421000D01*
X131380000Y-102421000D02*
X131380000Y-107180000D01*
X129600001Y-101307550D02*
X130266550Y-101307550D01*
D26*
%TO.N,Net-(D2-K)*%
X143457000Y-104750000D02*
X142963300Y-104256300D01*
D24*
X141500000Y-103000000D02*
X144576800Y-99923200D01*
X146271308Y-99923200D02*
X146877000Y-99317508D01*
X139505000Y-107075000D02*
X141830000Y-104750000D01*
X146877000Y-99317508D02*
X146877000Y-91600000D01*
X141830000Y-104750000D02*
X143457000Y-104750000D01*
X144576800Y-99923200D02*
X146271308Y-99923200D01*
X141500000Y-105080000D02*
X141500000Y-103000000D01*
X139505000Y-107075000D02*
X141500000Y-105080000D01*
D23*
%TO.N,/C1*%
X119520000Y-114800000D02*
X118200000Y-113480000D01*
X118200000Y-113480000D02*
X118200000Y-109000000D01*
D26*
%TO.N,+3V3*%
X132929000Y-73500000D02*
X139000000Y-79571000D01*
X121750000Y-91850000D02*
X121750000Y-78250000D01*
X120400000Y-93200000D02*
X121750000Y-91850000D01*
X126500000Y-73500000D02*
X132929000Y-73500000D01*
X121750000Y-78250000D02*
X126500000Y-73500000D01*
%TO.N,/ButtonPressed*%
X120400000Y-89800000D02*
X120400000Y-86400000D01*
%TO.N,/IO23*%
X121000000Y-83800000D02*
X118400000Y-86400000D01*
X147100000Y-63770000D02*
X146620000Y-64250000D01*
X126000000Y-72500000D02*
X121000000Y-77500000D01*
X121000000Y-77500000D02*
X121000000Y-83800000D01*
X138370000Y-72500000D02*
X126000000Y-72500000D01*
X146620000Y-64250000D02*
X138370000Y-72500000D01*
%TO.N,Net-(C2-Pad1)*%
X118362500Y-96600000D02*
X118362500Y-96362500D01*
X118400000Y-96325000D02*
X118400000Y-93200000D01*
X118400000Y-89800000D02*
X118400000Y-93200000D01*
X118965000Y-97202500D02*
X118362500Y-96600000D01*
X118362500Y-96362500D02*
X118400000Y-96325000D01*
X118965000Y-100012500D02*
X118965000Y-97202500D01*
%TD*%
%TA.AperFunction,Conductor*%
%TO.N,GND*%
G36*
X121730202Y-96230648D02*
G01*
X121736680Y-96236680D01*
X121750000Y-96250000D01*
X125375900Y-96250000D01*
X125442939Y-96269685D01*
X125488694Y-96322489D01*
X125499900Y-96374000D01*
X125499900Y-97562844D01*
X125506301Y-97622372D01*
X125506303Y-97622379D01*
X125556545Y-97757086D01*
X125556549Y-97757093D01*
X125642709Y-97872187D01*
X125642712Y-97872190D01*
X125757806Y-97958350D01*
X125757813Y-97958354D01*
X125892520Y-98008596D01*
X125892527Y-98008598D01*
X125952055Y-98014999D01*
X125952072Y-98015000D01*
X126550000Y-98015000D01*
X126550000Y-96250000D01*
X127050000Y-96250000D01*
X127050000Y-98015000D01*
X127647928Y-98015000D01*
X127647944Y-98014999D01*
X127707472Y-98008598D01*
X127707476Y-98008597D01*
X127832666Y-97961904D01*
X127902358Y-97956920D01*
X127963681Y-97990405D01*
X127997166Y-98051728D01*
X128000000Y-98078086D01*
X128000000Y-101376000D01*
X127980315Y-101443039D01*
X127927511Y-101488794D01*
X127876000Y-101500000D01*
X126541360Y-101500000D01*
X126474321Y-101480315D01*
X126462762Y-101471000D01*
X124692913Y-101471000D01*
X124644994Y-101497166D01*
X124618636Y-101500000D01*
X120720179Y-101500000D01*
X120653140Y-101480315D01*
X120607385Y-101427511D01*
X120597441Y-101358353D01*
X120626466Y-101294797D01*
X120657058Y-101269268D01*
X120786552Y-101192685D01*
X120786561Y-101192678D01*
X120902678Y-101076561D01*
X120902685Y-101076552D01*
X120986282Y-100935196D01*
X120986283Y-100935193D01*
X121032099Y-100777495D01*
X121032100Y-100777489D01*
X121034999Y-100740649D01*
X121035000Y-100740634D01*
X121035000Y-100354005D01*
X124698998Y-100354005D01*
X124698998Y-100971000D01*
X125329998Y-100971000D01*
X125829998Y-100971000D01*
X126460998Y-100971000D01*
X126460998Y-100354022D01*
X126460997Y-100354005D01*
X126454596Y-100294477D01*
X126454594Y-100294470D01*
X126404352Y-100159763D01*
X126404348Y-100159756D01*
X126318188Y-100044662D01*
X126318185Y-100044659D01*
X126203091Y-99958499D01*
X126203084Y-99958495D01*
X126068377Y-99908253D01*
X126068370Y-99908251D01*
X126008842Y-99901850D01*
X125829998Y-99901850D01*
X125829998Y-100971000D01*
X125329998Y-100971000D01*
X125329998Y-99901850D01*
X125151153Y-99901850D01*
X125091625Y-99908251D01*
X125091618Y-99908253D01*
X124956911Y-99958495D01*
X124956904Y-99958499D01*
X124841810Y-100044659D01*
X124841807Y-100044662D01*
X124755647Y-100159756D01*
X124755643Y-100159763D01*
X124705401Y-100294470D01*
X124705399Y-100294477D01*
X124698998Y-100354005D01*
X121035000Y-100354005D01*
X121035000Y-100262500D01*
X120109000Y-100262500D01*
X120041961Y-100242815D01*
X119996206Y-100190011D01*
X119985000Y-100138500D01*
X119985000Y-99762500D01*
X120485000Y-99762500D01*
X121035000Y-99762500D01*
X121035000Y-99284365D01*
X121034999Y-99284350D01*
X121032100Y-99247510D01*
X121032099Y-99247504D01*
X120986283Y-99089806D01*
X120986282Y-99089803D01*
X120902685Y-98948447D01*
X120902678Y-98948438D01*
X120786561Y-98832321D01*
X120786552Y-98832314D01*
X120645196Y-98748717D01*
X120645193Y-98748716D01*
X120487494Y-98702900D01*
X120487497Y-98702900D01*
X120485000Y-98702703D01*
X120485000Y-99762500D01*
X119985000Y-99762500D01*
X119985000Y-98702703D01*
X119982507Y-98702900D01*
X119908594Y-98724374D01*
X119838725Y-98724174D01*
X119780055Y-98686231D01*
X119751212Y-98622593D01*
X119750000Y-98605297D01*
X119750000Y-97920845D01*
X119769685Y-97853806D01*
X119822489Y-97808051D01*
X119891647Y-97798107D01*
X119913006Y-97803140D01*
X119947300Y-97814504D01*
X119947309Y-97814506D01*
X120050019Y-97824999D01*
X120187499Y-97824999D01*
X120687500Y-97824999D01*
X120824972Y-97824999D01*
X120824986Y-97824998D01*
X120927697Y-97814505D01*
X121094119Y-97759358D01*
X121094124Y-97759356D01*
X121243345Y-97667315D01*
X121367315Y-97543345D01*
X121459356Y-97394124D01*
X121459358Y-97394119D01*
X121514505Y-97227697D01*
X121514506Y-97227690D01*
X121524999Y-97124986D01*
X121525000Y-97124973D01*
X121525000Y-96850000D01*
X120687500Y-96850000D01*
X120687500Y-97824999D01*
X120187499Y-97824999D01*
X120187500Y-97824998D01*
X120187500Y-96474000D01*
X120207185Y-96406961D01*
X120259989Y-96361206D01*
X120311500Y-96350000D01*
X121524999Y-96350000D01*
X121524999Y-96324361D01*
X121544684Y-96257322D01*
X121597488Y-96211567D01*
X121666646Y-96201623D01*
X121730202Y-96230648D01*
G37*
%TD.AperFunction*%
%TD*%
%TA.AperFunction,Conductor*%
%TO.N,+5V*%
G36*
X140776886Y-80823454D02*
G01*
X140858646Y-80882857D01*
X141040968Y-80975755D01*
X141235582Y-81038990D01*
X141437683Y-81071000D01*
X141642317Y-81071000D01*
X141844417Y-81038990D01*
X142039036Y-80975753D01*
X142128886Y-80929972D01*
X142197555Y-80917075D01*
X142262295Y-80943351D01*
X142302553Y-81000457D01*
X142305545Y-81070263D01*
X142272862Y-81128137D01*
X140179999Y-83221000D01*
X139987820Y-83499970D01*
X139834076Y-83723147D01*
X139779836Y-83767186D01*
X139731963Y-83776800D01*
X134735800Y-83776800D01*
X134735800Y-83991000D01*
X134716115Y-84058039D01*
X134663311Y-84103794D01*
X134611800Y-84115000D01*
X134173000Y-84115000D01*
X134173000Y-91726000D01*
X134153315Y-91793039D01*
X134100511Y-91838794D01*
X134049000Y-91850000D01*
X132661000Y-91850000D01*
X132661000Y-92097000D01*
X132641315Y-92164039D01*
X132588511Y-92209794D01*
X132537000Y-92221000D01*
X131127700Y-92221000D01*
X131060661Y-92201315D01*
X131014906Y-92148511D01*
X131003700Y-92097000D01*
X131003700Y-87596300D01*
X128224100Y-87596300D01*
X128157061Y-87576615D01*
X128111306Y-87523811D01*
X128100100Y-87472300D01*
X128100100Y-86037172D01*
X128100099Y-86037155D01*
X128093698Y-85977627D01*
X128093696Y-85977620D01*
X128043454Y-85842913D01*
X128043450Y-85842906D01*
X127957290Y-85727812D01*
X127957287Y-85727809D01*
X127842193Y-85641649D01*
X127842186Y-85641645D01*
X127707479Y-85591403D01*
X127707472Y-85591401D01*
X127647944Y-85585000D01*
X127050000Y-85585000D01*
X127050000Y-88268400D01*
X127030315Y-88335439D01*
X126977511Y-88381194D01*
X126926000Y-88392400D01*
X126674000Y-88392400D01*
X126606961Y-88372715D01*
X126561206Y-88319911D01*
X126550000Y-88268400D01*
X126550000Y-85585000D01*
X125952055Y-85585000D01*
X125892527Y-85591401D01*
X125892520Y-85591403D01*
X125757813Y-85641645D01*
X125757806Y-85641649D01*
X125642712Y-85727809D01*
X125642709Y-85727812D01*
X125556549Y-85842906D01*
X125556545Y-85842913D01*
X125506303Y-85977620D01*
X125506301Y-85977627D01*
X125499900Y-86037155D01*
X125499900Y-87472300D01*
X125480215Y-87539339D01*
X125427411Y-87585094D01*
X125375900Y-87596300D01*
X124904000Y-87596300D01*
X124836961Y-87576615D01*
X124791206Y-87523811D01*
X124780000Y-87472300D01*
X124780000Y-84879078D01*
X124799685Y-84812039D01*
X124824617Y-84783819D01*
X125084614Y-84567155D01*
X132661000Y-84567155D01*
X132661000Y-91350000D01*
X133673000Y-91350000D01*
X133673000Y-84115000D01*
X133113155Y-84115000D01*
X133053627Y-84121401D01*
X133053620Y-84121403D01*
X132918913Y-84171645D01*
X132918906Y-84171649D01*
X132803812Y-84257809D01*
X132803809Y-84257812D01*
X132717649Y-84372906D01*
X132717645Y-84372913D01*
X132667403Y-84507620D01*
X132667401Y-84507627D01*
X132661000Y-84567155D01*
X125084614Y-84567155D01*
X125156048Y-84507627D01*
X128345511Y-81849741D01*
X128409614Y-81821945D01*
X128424894Y-81821000D01*
X138779998Y-81821000D01*
X138780000Y-81821000D01*
X140580000Y-81021000D01*
X140580000Y-80923771D01*
X140599685Y-80856732D01*
X140652489Y-80810977D01*
X140721647Y-80801033D01*
X140776886Y-80823454D01*
G37*
%TD.AperFunction*%
%TD*%
%TA.AperFunction,Conductor*%
%TO.N,Net-(D1-+)*%
G36*
X136523039Y-109040685D02*
G01*
X136568794Y-109093489D01*
X136580000Y-109145000D01*
X136580000Y-113075900D01*
X136560315Y-113142939D01*
X136507511Y-113188694D01*
X136456000Y-113199900D01*
X135237155Y-113199900D01*
X135177627Y-113206301D01*
X135177620Y-113206303D01*
X135042913Y-113256545D01*
X135042906Y-113256549D01*
X134927812Y-113342709D01*
X134927809Y-113342712D01*
X134841649Y-113457806D01*
X134841645Y-113457813D01*
X134791403Y-113592520D01*
X134791401Y-113592527D01*
X134785000Y-113652055D01*
X134785000Y-114250000D01*
X136580000Y-114250000D01*
X136580000Y-114750000D01*
X134785000Y-114750000D01*
X134785000Y-115297000D01*
X134765315Y-115364039D01*
X134712511Y-115409794D01*
X134661000Y-115421000D01*
X134304000Y-115421000D01*
X134236961Y-115401315D01*
X134191206Y-115348511D01*
X134180000Y-115297000D01*
X134180000Y-110421000D01*
X133216319Y-109457319D01*
X133182834Y-109395996D01*
X133180000Y-109369638D01*
X133180000Y-109145000D01*
X133199685Y-109077961D01*
X133252489Y-109032206D01*
X133304000Y-109021000D01*
X136456000Y-109021000D01*
X136523039Y-109040685D01*
G37*
%TD.AperFunction*%
%TD*%
%TA.AperFunction,Conductor*%
%TO.N,GND*%
G36*
X136495079Y-103819685D02*
G01*
X136535702Y-103862479D01*
X137283662Y-105171408D01*
X137300000Y-105232929D01*
X137300000Y-105475231D01*
X137280315Y-105542270D01*
X137254053Y-105565026D01*
X137254846Y-105565884D01*
X137215000Y-105602703D01*
X137215000Y-107201000D01*
X137195315Y-107268039D01*
X137142511Y-107313794D01*
X137091000Y-107325000D01*
X134895000Y-107325000D01*
X134895000Y-107965649D01*
X134897899Y-108002487D01*
X134909206Y-108041405D01*
X134909006Y-108111275D01*
X134871064Y-108169945D01*
X134807425Y-108198788D01*
X134790129Y-108200000D01*
X134282930Y-108200000D01*
X134221409Y-108183662D01*
X132919249Y-107439570D01*
X132893089Y-107419589D01*
X132886319Y-107412819D01*
X132852834Y-107351496D01*
X132850000Y-107325138D01*
X132850000Y-106184350D01*
X134895000Y-106184350D01*
X134895000Y-106825000D01*
X135445000Y-106825000D01*
X135445000Y-105602703D01*
X135945000Y-105602703D01*
X135945000Y-106825000D01*
X136715000Y-106825000D01*
X136715000Y-105602703D01*
X136712503Y-105602900D01*
X136554806Y-105648716D01*
X136554803Y-105648717D01*
X136413447Y-105732314D01*
X136407278Y-105737100D01*
X136405457Y-105734753D01*
X136356358Y-105761564D01*
X136286666Y-105756580D01*
X136253930Y-105735541D01*
X136252722Y-105737100D01*
X136246552Y-105732314D01*
X136105196Y-105648717D01*
X136105193Y-105648716D01*
X135947494Y-105602900D01*
X135947497Y-105602900D01*
X135945000Y-105602703D01*
X135445000Y-105602703D01*
X135442503Y-105602900D01*
X135284806Y-105648716D01*
X135284803Y-105648717D01*
X135143447Y-105732314D01*
X135143438Y-105732321D01*
X135027321Y-105848438D01*
X135027314Y-105848447D01*
X134943717Y-105989803D01*
X134943716Y-105989806D01*
X134897900Y-106147504D01*
X134897899Y-106147510D01*
X134895000Y-106184350D01*
X132850000Y-106184350D01*
X132850000Y-103924000D01*
X132869685Y-103856961D01*
X132922489Y-103811206D01*
X132974000Y-103800000D01*
X136428040Y-103800000D01*
X136495079Y-103819685D01*
G37*
%TD.AperFunction*%
%TD*%
%TA.AperFunction,Conductor*%
%TO.N,GND*%
G36*
X145744839Y-103819685D02*
G01*
X145790594Y-103872489D01*
X145801800Y-103924000D01*
X145801800Y-104500000D01*
X147189800Y-104500000D01*
X147256839Y-104519685D01*
X147302594Y-104572489D01*
X147313800Y-104624000D01*
X147313800Y-106075500D01*
X147873628Y-106075500D01*
X147873644Y-106075499D01*
X147933172Y-106069098D01*
X147933179Y-106069096D01*
X148067886Y-106018854D01*
X148067893Y-106018850D01*
X148182986Y-105932690D01*
X148256233Y-105834847D01*
X148312167Y-105792976D01*
X148381859Y-105787992D01*
X148443182Y-105821477D01*
X148476666Y-105882801D01*
X148479500Y-105909158D01*
X148479500Y-115276000D01*
X148459815Y-115343039D01*
X148407011Y-115388794D01*
X148355500Y-115400000D01*
X147339000Y-115400000D01*
X147271961Y-115380315D01*
X147226206Y-115327511D01*
X147215000Y-115276000D01*
X147215000Y-114750000D01*
X144531600Y-114750000D01*
X144464561Y-114730315D01*
X144418806Y-114677511D01*
X144407600Y-114626000D01*
X144407600Y-114374000D01*
X144427285Y-114306961D01*
X144480089Y-114261206D01*
X144531600Y-114250000D01*
X147215000Y-114250000D01*
X147215000Y-113652072D01*
X147214999Y-113652055D01*
X147208598Y-113592527D01*
X147208596Y-113592520D01*
X147158354Y-113457813D01*
X147158350Y-113457806D01*
X147072190Y-113342712D01*
X147072187Y-113342709D01*
X146957093Y-113256549D01*
X146957086Y-113256545D01*
X146822379Y-113206303D01*
X146822372Y-113206301D01*
X146762844Y-113199900D01*
X145327700Y-113199900D01*
X145260661Y-113180215D01*
X145214906Y-113127411D01*
X145203700Y-113075900D01*
X145203700Y-110296300D01*
X141924000Y-110296300D01*
X141856961Y-110276615D01*
X141811206Y-110223811D01*
X141800000Y-110172300D01*
X141800000Y-106924000D01*
X141819685Y-106856961D01*
X141872489Y-106811206D01*
X141924000Y-106800000D01*
X145200000Y-106800000D01*
X145200000Y-105623344D01*
X145801800Y-105623344D01*
X145808201Y-105682872D01*
X145808203Y-105682879D01*
X145858445Y-105817586D01*
X145858449Y-105817593D01*
X145944609Y-105932687D01*
X145944612Y-105932690D01*
X146059706Y-106018850D01*
X146059713Y-106018854D01*
X146194420Y-106069096D01*
X146194427Y-106069098D01*
X146253955Y-106075499D01*
X146253972Y-106075500D01*
X146813800Y-106075500D01*
X146813800Y-105000000D01*
X145801800Y-105000000D01*
X145801800Y-105623344D01*
X145200000Y-105623344D01*
X145200000Y-103924000D01*
X145219685Y-103856961D01*
X145272489Y-103811206D01*
X145324000Y-103800000D01*
X145677800Y-103800000D01*
X145744839Y-103819685D01*
G37*
%TD.AperFunction*%
%TD*%
M02*
