%TF.GenerationSoftware,KiCad,Pcbnew,8.0.6*%
%TF.CreationDate,2024-11-26T16:04:19+01:00*%
%TF.ProjectId,doorbell_watcher,646f6f72-6265-46c6-9c5f-776174636865,rev?*%
%TF.SameCoordinates,Original*%
%TF.FileFunction,Copper,L1,Top*%
%TF.FilePolarity,Positive*%
%FSLAX46Y46*%
G04 Gerber Fmt 4.6, Leading zero omitted, Abs format (unit mm)*
G04 Created by KiCad (PCBNEW 8.0.6) date 2024-11-26 16:04:19*
%MOMM*%
%LPD*%
G01*
G04 APERTURE LIST*
G04 Aperture macros list*
%AMRoundRect*
0 Rectangle with rounded corners*
0 $1 Rounding radius*
0 $2 $3 $4 $5 $6 $7 $8 $9 X,Y pos of 4 corners*
0 Add a 4 corners polygon primitive as box body*
4,1,4,$2,$3,$4,$5,$6,$7,$8,$9,$2,$3,0*
0 Add four circle primitives for the rounded corners*
1,1,$1+$1,$2,$3*
1,1,$1+$1,$4,$5*
1,1,$1+$1,$6,$7*
1,1,$1+$1,$8,$9*
0 Add four rect primitives between the rounded corners*
20,1,$1+$1,$2,$3,$4,$5,0*
20,1,$1+$1,$4,$5,$6,$7,0*
20,1,$1+$1,$6,$7,$8,$9,0*
20,1,$1+$1,$8,$9,$2,$3,0*%
G04 Aperture macros list end*
%TA.AperFunction,SMDPad,CuDef*%
%ADD10C,0.500000*%
%TD*%
%TA.AperFunction,ComponentPad*%
%ADD11O,1.600000X2.000000*%
%TD*%
%TA.AperFunction,SMDPad,CuDef*%
%ADD12RoundRect,0.250000X-0.350000X-0.450000X0.350000X-0.450000X0.350000X0.450000X-0.350000X0.450000X0*%
%TD*%
%TA.AperFunction,ComponentPad*%
%ADD13C,2.032000*%
%TD*%
%TA.AperFunction,SMDPad,CuDef*%
%ADD14R,1.300000X1.500000*%
%TD*%
%TA.AperFunction,SMDPad,CuDef*%
%ADD15R,1.600200X4.114800*%
%TD*%
%TA.AperFunction,SMDPad,CuDef*%
%ADD16RoundRect,0.150000X-0.150000X0.825000X-0.150000X-0.825000X0.150000X-0.825000X0.150000X0.825000X0*%
%TD*%
%TA.AperFunction,SMDPad,CuDef*%
%ADD17RoundRect,0.150000X0.150000X-0.662500X0.150000X0.662500X-0.150000X0.662500X-0.150000X-0.662500X0*%
%TD*%
%TA.AperFunction,SMDPad,CuDef*%
%ADD18RoundRect,0.250000X-0.337500X-0.475000X0.337500X-0.475000X0.337500X0.475000X-0.337500X0.475000X0*%
%TD*%
%TA.AperFunction,SMDPad,CuDef*%
%ADD19R,1.524000X1.651000*%
%TD*%
%TA.AperFunction,SMDPad,CuDef*%
%ADD20RoundRect,0.250000X0.350000X0.450000X-0.350000X0.450000X-0.350000X-0.450000X0.350000X-0.450000X0*%
%TD*%
%TA.AperFunction,SMDPad,CuDef*%
%ADD21R,1.524000X13.970000*%
%TD*%
%TA.AperFunction,SMDPad,CuDef*%
%ADD22R,4.114800X1.600200*%
%TD*%
%TA.AperFunction,ViaPad*%
%ADD23C,0.600000*%
%TD*%
%TA.AperFunction,Conductor*%
%ADD24C,0.500000*%
%TD*%
%TA.AperFunction,Conductor*%
%ADD25C,1.000000*%
%TD*%
%TA.AperFunction,Conductor*%
%ADD26C,0.200000*%
%TD*%
G04 APERTURE END LIST*
D10*
%TO.P,FD1,*%
%TO.N,*%
X117600000Y-63000000D03*
%TD*%
%TO.P,FD1,*%
%TO.N,*%
X147400000Y-120200000D03*
%TD*%
D11*
%TO.P,J3,1,Pin_1*%
%TO.N,unconnected-(J3-Pin_1-Pad1)*%
X146620000Y-79571000D03*
%TO.P,J3,2,Pin_2*%
%TO.N,GND*%
X144080000Y-79571000D03*
%TO.P,J3,3,Pin_3*%
%TO.N,+5V*%
X141540000Y-79571000D03*
%TO.P,J3,4,Pin_4*%
%TO.N,+3V3*%
X139000000Y-79571000D03*
%TO.P,J3,5,Pin_5*%
%TO.N,/IO4*%
X136460000Y-79571000D03*
%TO.P,J3,6,Pin_6*%
%TO.N,/IO14*%
X133920000Y-79571000D03*
%TO.P,J3,7,Pin_7*%
%TO.N,unconnected-(J3-Pin_7-Pad7)*%
X131380000Y-79571000D03*
%TO.P,J3,8,Pin_8*%
%TO.N,unconnected-(J3-Pin_8-Pad8)*%
X128840000Y-79571000D03*
%TO.P,J3,9,Pin_9*%
%TO.N,unconnected-(J3-Pin_9-Pad9)*%
X126300000Y-79571000D03*
%TO.P,J3,10,Pin_10*%
%TO.N,unconnected-(J3-Pin_10-Pad10)*%
X123760000Y-79571000D03*
%TD*%
D12*
%TO.P,R1,1*%
%TO.N,/C1*%
X118200000Y-109000000D03*
%TO.P,R1,2*%
%TO.N,Net-(R1-Pad2)*%
X120200000Y-109000000D03*
%TD*%
D13*
%TO.P,J1,1,Pin_1*%
%TO.N,/Vin1*%
X129680000Y-114800000D03*
%TO.P,J1,2,Pin_2*%
%TO.N,/Vin2*%
X124600000Y-114800000D03*
%TO.P,J1,3,Pin_3*%
%TO.N,/C1*%
X119520000Y-114800000D03*
%TD*%
D12*
%TO.P,R3,1*%
%TO.N,Net-(C2-Pad1)*%
X118400000Y-89800000D03*
%TO.P,R3,2*%
%TO.N,/ButtonPressed*%
X120400000Y-89800000D03*
%TD*%
%TO.P,R2,1*%
%TO.N,Net-(C2-Pad1)*%
X118400000Y-93200000D03*
%TO.P,R2,2*%
%TO.N,+3V3*%
X120400000Y-93200000D03*
%TD*%
D14*
%TO.P,D1,1,+*%
%TO.N,Net-(D1-+)*%
X130150000Y-99950000D03*
%TO.P,D1,2,-*%
%TO.N,GND*%
X125050000Y-99950000D03*
%TO.P,D1,3*%
%TO.N,/Vin1*%
X125050000Y-108850000D03*
%TO.P,D1,4*%
%TO.N,/Vin2*%
X130150000Y-108850000D03*
%TD*%
D15*
%TO.P,C3,1*%
%TO.N,+5V*%
X126800000Y-88142400D03*
%TO.P,C3,2*%
%TO.N,GND*%
X126800000Y-95457600D03*
%TD*%
D16*
%TO.P,U2,1,NC*%
%TO.N,unconnected-(U2-NC-Pad1)*%
X139505000Y-102125000D03*
%TO.P,U2,2,NC*%
%TO.N,unconnected-(U2-NC-Pad2)*%
X138235000Y-102125000D03*
%TO.P,U2,3,NC*%
%TO.N,unconnected-(U2-NC-Pad3)*%
X136965000Y-102125000D03*
%TO.P,U2,4,FB*%
%TO.N,+5V*%
X135695000Y-102125000D03*
%TO.P,U2,5,~{ON}/OFF*%
%TO.N,GND*%
X135695000Y-107075000D03*
%TO.P,U2,6,GND*%
X136965000Y-107075000D03*
%TO.P,U2,7,VIN*%
%TO.N,Net-(D1-+)*%
X138235000Y-107075000D03*
%TO.P,U2,8,OUT*%
%TO.N,Net-(D2-K)*%
X139505000Y-107075000D03*
%TD*%
D17*
%TO.P,U1,1*%
%TO.N,Net-(R1-Pad2)*%
X118965000Y-106387500D03*
%TO.P,U1,2*%
%TO.N,/Vin1*%
X120235000Y-106387500D03*
%TO.P,U1,3*%
%TO.N,GND*%
X120235000Y-100012500D03*
%TO.P,U1,4*%
%TO.N,Net-(C2-Pad1)*%
X118965000Y-100012500D03*
%TD*%
D11*
%TO.P,J2,1,Pin_1*%
%TO.N,/IO23*%
X146620000Y-64250000D03*
%TO.P,J2,2,Pin_2*%
%TO.N,/IO19*%
X144080000Y-64250000D03*
%TO.P,J2,3,Pin_3*%
%TO.N,/IO18*%
X141540000Y-64250000D03*
%TO.P,J2,4,Pin_4*%
%TO.N,/IO5*%
X139000000Y-64250000D03*
%TO.P,J2,5,Pin_5*%
%TO.N,/IO22*%
X136460000Y-64250000D03*
%TO.P,J2,6,Pin_6*%
%TO.N,/IO21*%
X133920000Y-64250000D03*
%TO.P,J2,7,Pin_7*%
%TO.N,/IO32*%
X131380000Y-64250000D03*
%TO.P,J2,8,Pin_8*%
%TO.N,/IO33*%
X128840000Y-64250000D03*
%TO.P,J2,9,Pin_9*%
%TO.N,unconnected-(J2-Pin_9-Pad9)*%
X126300000Y-64250000D03*
%TO.P,J2,10,Pin_10*%
%TO.N,GND*%
X123760000Y-64250000D03*
%TD*%
D18*
%TO.P,C2,1*%
%TO.N,Net-(C2-Pad1)*%
X118362500Y-96600000D03*
%TO.P,C2,2*%
%TO.N,GND*%
X120437500Y-96600000D03*
%TD*%
D19*
%TO.P,D2,1,K*%
%TO.N,Net-(D2-K)*%
X143457000Y-104750000D03*
%TO.P,D2,2,A*%
%TO.N,GND*%
X147063800Y-104750000D03*
%TD*%
D20*
%TO.P,R4,1*%
%TO.N,/ButtonPressed*%
X120400000Y-86400000D03*
%TO.P,R4,2*%
%TO.N,/IO23*%
X118400000Y-86400000D03*
%TD*%
D21*
%TO.P,L1,1,1*%
%TO.N,Net-(D2-K)*%
X146877000Y-91600000D03*
%TO.P,L1,2,2*%
%TO.N,+5V*%
X133923000Y-91600000D03*
%TD*%
D22*
%TO.P,C1,1*%
%TO.N,Net-(D1-+)*%
X137342400Y-114500000D03*
%TO.P,C1,2*%
%TO.N,GND*%
X144657600Y-114500000D03*
%TD*%
D23*
%TO.N,GND*%
X122000000Y-99750000D03*
X143400000Y-107600000D03*
X133400000Y-106400000D03*
X146200000Y-107600000D03*
X134400000Y-105400000D03*
X123250000Y-99750000D03*
X144800000Y-108600000D03*
X134400000Y-104400000D03*
X124500000Y-97500000D03*
X122000000Y-98500000D03*
X143400000Y-108600000D03*
X122000000Y-97500000D03*
X123250000Y-97500000D03*
X134400000Y-107400000D03*
X146200000Y-108600000D03*
X144800000Y-107600000D03*
X133400000Y-105400000D03*
X147600000Y-107600000D03*
X133400000Y-104400000D03*
X134400000Y-106400000D03*
X147600000Y-109600000D03*
X123250000Y-98500000D03*
X147600000Y-108600000D03*
X147600000Y-110800000D03*
%TD*%
D24*
%TO.N,/Vin1*%
X120235000Y-106387500D02*
X122697500Y-108850000D01*
D25*
X125050000Y-110170000D02*
X125050000Y-108850000D01*
D24*
X122697500Y-108850000D02*
X125050000Y-108850000D01*
D25*
X129680000Y-114800000D02*
X125050000Y-110170000D01*
%TO.N,/Vin2*%
X130350000Y-118250000D02*
X132600000Y-116000000D01*
X128050000Y-118250000D02*
X130350000Y-118250000D01*
X124600000Y-114800000D02*
X128050000Y-118250000D01*
X132600000Y-116000000D02*
X132600000Y-111300000D01*
X132600000Y-111300000D02*
X130150000Y-108850000D01*
%TO.N,+5V*%
X141540000Y-80860000D02*
X139900000Y-82500000D01*
X133923000Y-90374178D02*
X132000000Y-88451178D01*
X133923000Y-91600000D02*
X133923000Y-90374178D01*
X132000000Y-86250000D02*
X131250000Y-85500000D01*
X126800000Y-85950000D02*
X126800000Y-88142400D01*
X141540000Y-79571000D02*
X141540000Y-80860000D01*
X127250000Y-85500000D02*
X126800000Y-85950000D01*
X139900000Y-82500000D02*
X129250000Y-82500000D01*
X129250000Y-82500000D02*
X126800000Y-84950000D01*
X133923000Y-98785000D02*
X135695000Y-100557000D01*
X133923000Y-91600000D02*
X133923000Y-95077000D01*
X126800000Y-84950000D02*
X126800000Y-88142400D01*
X131250000Y-85500000D02*
X127250000Y-85500000D01*
X133923000Y-91600000D02*
X133923000Y-98785000D01*
X135695000Y-100557000D02*
X135695000Y-102125000D01*
X133923000Y-95077000D02*
X133750000Y-95250000D01*
X132000000Y-88451178D02*
X132000000Y-86250000D01*
D24*
%TO.N,Net-(R1-Pad2)*%
X120200000Y-108700000D02*
X118965000Y-107465000D01*
X118965000Y-107465000D02*
X118965000Y-106387500D01*
X120200000Y-109000000D02*
X120200000Y-108700000D01*
%TO.N,Net-(D1-+)*%
X130150000Y-99950000D02*
X130150000Y-105950000D01*
X137200000Y-109600000D02*
X138235000Y-108565000D01*
X135520066Y-114500000D02*
X135520066Y-110279934D01*
X135520066Y-110279934D02*
X136200000Y-109600000D01*
X137342400Y-114500000D02*
X135520066Y-114500000D01*
X130150000Y-105950000D02*
X133800000Y-109600000D01*
X138235000Y-108565000D02*
X138235000Y-107075000D01*
X133800000Y-109600000D02*
X137200000Y-109600000D01*
D26*
%TO.N,Net-(D2-K)*%
X143457000Y-104750000D02*
X142963300Y-104256300D01*
D25*
X141500000Y-103000000D02*
X144576800Y-99923200D01*
X146271308Y-99923200D02*
X146877000Y-99317508D01*
X139505000Y-107075000D02*
X141830000Y-104750000D01*
X146877000Y-99317508D02*
X146877000Y-91600000D01*
X141830000Y-104750000D02*
X143457000Y-104750000D01*
X144576800Y-99923200D02*
X146271308Y-99923200D01*
X141500000Y-105080000D02*
X141500000Y-103000000D01*
X139505000Y-107075000D02*
X141500000Y-105080000D01*
D24*
%TO.N,/C1*%
X119520000Y-114800000D02*
X118200000Y-113480000D01*
X118200000Y-113480000D02*
X118200000Y-109000000D01*
D26*
%TO.N,+3V3*%
X132929000Y-73500000D02*
X139000000Y-79571000D01*
X121750000Y-91850000D02*
X121750000Y-78250000D01*
X120400000Y-93200000D02*
X121750000Y-91850000D01*
X126500000Y-73500000D02*
X132929000Y-73500000D01*
X121750000Y-78250000D02*
X126500000Y-73500000D01*
%TO.N,/ButtonPressed*%
X120400000Y-89800000D02*
X120400000Y-86400000D01*
%TO.N,/IO23*%
X121000000Y-83800000D02*
X118400000Y-86400000D01*
X147100000Y-63770000D02*
X146620000Y-64250000D01*
X126000000Y-72500000D02*
X121000000Y-77500000D01*
X121000000Y-77500000D02*
X121000000Y-83800000D01*
X138370000Y-72500000D02*
X126000000Y-72500000D01*
X146620000Y-64250000D02*
X138370000Y-72500000D01*
%TO.N,Net-(C2-Pad1)*%
X118362500Y-96600000D02*
X118362500Y-96362500D01*
X118400000Y-96325000D02*
X118400000Y-93200000D01*
X118400000Y-89800000D02*
X118400000Y-93200000D01*
X118965000Y-97202500D02*
X118362500Y-96600000D01*
X118362500Y-96362500D02*
X118400000Y-96325000D01*
X118965000Y-100012500D02*
X118965000Y-97202500D01*
%TD*%
%TA.AperFunction,Conductor*%
%TO.N,GND*%
G36*
X121730202Y-96230648D02*
G01*
X121736680Y-96236680D01*
X121750000Y-96250000D01*
X125375900Y-96250000D01*
X125442939Y-96269685D01*
X125488694Y-96322489D01*
X125499900Y-96374000D01*
X125499900Y-97562844D01*
X125506301Y-97622372D01*
X125506303Y-97622379D01*
X125556545Y-97757086D01*
X125556549Y-97757093D01*
X125642709Y-97872187D01*
X125642712Y-97872190D01*
X125757806Y-97958350D01*
X125757813Y-97958354D01*
X125892520Y-98008596D01*
X125892527Y-98008598D01*
X125952055Y-98014999D01*
X125952072Y-98015000D01*
X126550000Y-98015000D01*
X126550000Y-96250000D01*
X127050000Y-96250000D01*
X127050000Y-98015000D01*
X127647928Y-98015000D01*
X127647944Y-98014999D01*
X127707472Y-98008598D01*
X127707476Y-98008597D01*
X127832666Y-97961904D01*
X127902358Y-97956920D01*
X127963681Y-97990405D01*
X127997166Y-98051728D01*
X128000000Y-98078086D01*
X128000000Y-101376000D01*
X127980315Y-101443039D01*
X127927511Y-101488794D01*
X127876000Y-101500000D01*
X120720179Y-101500000D01*
X120653140Y-101480315D01*
X120607385Y-101427511D01*
X120597441Y-101358353D01*
X120626466Y-101294797D01*
X120657058Y-101269268D01*
X120786552Y-101192685D01*
X120786561Y-101192678D01*
X120902678Y-101076561D01*
X120902685Y-101076552D01*
X120986282Y-100935196D01*
X120986283Y-100935193D01*
X121032099Y-100777495D01*
X121032100Y-100777489D01*
X121034433Y-100747844D01*
X123900000Y-100747844D01*
X123906401Y-100807372D01*
X123906403Y-100807379D01*
X123956645Y-100942086D01*
X123956649Y-100942093D01*
X124042809Y-101057187D01*
X124042812Y-101057190D01*
X124157906Y-101143350D01*
X124157913Y-101143354D01*
X124292620Y-101193596D01*
X124292627Y-101193598D01*
X124352155Y-101199999D01*
X124352172Y-101200000D01*
X124800000Y-101200000D01*
X125300000Y-101200000D01*
X125747828Y-101200000D01*
X125747844Y-101199999D01*
X125807372Y-101193598D01*
X125807379Y-101193596D01*
X125942086Y-101143354D01*
X125942093Y-101143350D01*
X126057187Y-101057190D01*
X126057190Y-101057187D01*
X126143350Y-100942093D01*
X126143354Y-100942086D01*
X126193596Y-100807379D01*
X126193598Y-100807372D01*
X126199999Y-100747844D01*
X126200000Y-100747827D01*
X126200000Y-100200000D01*
X125300000Y-100200000D01*
X125300000Y-101200000D01*
X124800000Y-101200000D01*
X124800000Y-100200000D01*
X123900000Y-100200000D01*
X123900000Y-100747844D01*
X121034433Y-100747844D01*
X121034999Y-100740649D01*
X121035000Y-100740634D01*
X121035000Y-100262500D01*
X120109000Y-100262500D01*
X120041961Y-100242815D01*
X119996206Y-100190011D01*
X119985000Y-100138500D01*
X119985000Y-99762500D01*
X120485000Y-99762500D01*
X121035000Y-99762500D01*
X121035000Y-99284365D01*
X121034999Y-99284350D01*
X121032100Y-99247510D01*
X121032099Y-99247504D01*
X121004397Y-99152155D01*
X123900000Y-99152155D01*
X123900000Y-99700000D01*
X124800000Y-99700000D01*
X125300000Y-99700000D01*
X126200000Y-99700000D01*
X126200000Y-99152172D01*
X126199999Y-99152155D01*
X126193598Y-99092627D01*
X126193596Y-99092620D01*
X126143354Y-98957913D01*
X126143350Y-98957906D01*
X126057190Y-98842812D01*
X126057187Y-98842809D01*
X125942093Y-98756649D01*
X125942086Y-98756645D01*
X125807379Y-98706403D01*
X125807372Y-98706401D01*
X125747844Y-98700000D01*
X125300000Y-98700000D01*
X125300000Y-99700000D01*
X124800000Y-99700000D01*
X124800000Y-98700000D01*
X124352155Y-98700000D01*
X124292627Y-98706401D01*
X124292620Y-98706403D01*
X124157913Y-98756645D01*
X124157906Y-98756649D01*
X124042812Y-98842809D01*
X124042809Y-98842812D01*
X123956649Y-98957906D01*
X123956645Y-98957913D01*
X123906403Y-99092620D01*
X123906401Y-99092627D01*
X123900000Y-99152155D01*
X121004397Y-99152155D01*
X120986283Y-99089806D01*
X120986282Y-99089803D01*
X120902685Y-98948447D01*
X120902678Y-98948438D01*
X120786561Y-98832321D01*
X120786552Y-98832314D01*
X120645196Y-98748717D01*
X120645193Y-98748716D01*
X120487494Y-98702900D01*
X120487497Y-98702900D01*
X120485000Y-98702703D01*
X120485000Y-99762500D01*
X119985000Y-99762500D01*
X119985000Y-98702703D01*
X119982507Y-98702900D01*
X119908594Y-98724374D01*
X119838725Y-98724174D01*
X119780055Y-98686231D01*
X119751212Y-98622593D01*
X119750000Y-98605297D01*
X119750000Y-97920845D01*
X119769685Y-97853806D01*
X119822489Y-97808051D01*
X119891647Y-97798107D01*
X119913006Y-97803140D01*
X119947300Y-97814504D01*
X119947309Y-97814506D01*
X120050019Y-97824999D01*
X120187499Y-97824999D01*
X120687500Y-97824999D01*
X120824972Y-97824999D01*
X120824986Y-97824998D01*
X120927697Y-97814505D01*
X121094119Y-97759358D01*
X121094124Y-97759356D01*
X121243345Y-97667315D01*
X121367315Y-97543345D01*
X121459356Y-97394124D01*
X121459358Y-97394119D01*
X121514505Y-97227697D01*
X121514506Y-97227690D01*
X121524999Y-97124986D01*
X121525000Y-97124973D01*
X121525000Y-96850000D01*
X120687500Y-96850000D01*
X120687500Y-97824999D01*
X120187499Y-97824999D01*
X120187500Y-97824998D01*
X120187500Y-96474000D01*
X120207185Y-96406961D01*
X120259989Y-96361206D01*
X120311500Y-96350000D01*
X121524999Y-96350000D01*
X121524999Y-96324361D01*
X121544684Y-96257322D01*
X121597488Y-96211567D01*
X121666646Y-96201623D01*
X121730202Y-96230648D01*
G37*
%TD.AperFunction*%
%TD*%
%TA.AperFunction,Conductor*%
%TO.N,GND*%
G36*
X136503226Y-103819685D02*
G01*
X136537090Y-103851926D01*
X137476903Y-105167664D01*
X137499851Y-105233658D01*
X137500000Y-105239738D01*
X137500000Y-105519823D01*
X137480315Y-105586862D01*
X137427511Y-105632617D01*
X137358353Y-105642561D01*
X137341406Y-105638900D01*
X137217492Y-105602900D01*
X137215000Y-105602703D01*
X137215000Y-108472270D01*
X137195315Y-108539309D01*
X137178681Y-108559951D01*
X136925451Y-108813181D01*
X136864128Y-108846666D01*
X136837770Y-108849500D01*
X134162229Y-108849500D01*
X134095190Y-108829815D01*
X134074548Y-108813181D01*
X133227016Y-107965649D01*
X134895000Y-107965649D01*
X134897899Y-108002489D01*
X134897900Y-108002495D01*
X134943716Y-108160193D01*
X134943717Y-108160196D01*
X135027314Y-108301552D01*
X135027321Y-108301561D01*
X135143438Y-108417678D01*
X135143447Y-108417685D01*
X135284801Y-108501281D01*
X135442514Y-108547100D01*
X135442511Y-108547100D01*
X135444998Y-108547295D01*
X135445000Y-108547295D01*
X135945000Y-108547295D01*
X135945001Y-108547295D01*
X135947486Y-108547100D01*
X136105198Y-108501281D01*
X136246552Y-108417685D01*
X136252722Y-108412900D01*
X136254546Y-108415252D01*
X136303595Y-108388445D01*
X136373288Y-108393402D01*
X136406063Y-108414465D01*
X136407278Y-108412900D01*
X136413447Y-108417685D01*
X136554801Y-108501281D01*
X136712514Y-108547100D01*
X136712511Y-108547100D01*
X136714998Y-108547295D01*
X136715000Y-108547295D01*
X136715000Y-107325000D01*
X135945000Y-107325000D01*
X135945000Y-108547295D01*
X135445000Y-108547295D01*
X135445000Y-107325000D01*
X134895000Y-107325000D01*
X134895000Y-107965649D01*
X133227016Y-107965649D01*
X132286319Y-107024951D01*
X132252834Y-106963628D01*
X132250000Y-106937270D01*
X132250000Y-106184350D01*
X134895000Y-106184350D01*
X134895000Y-106825000D01*
X135445000Y-106825000D01*
X135445000Y-105602703D01*
X135945000Y-105602703D01*
X135945000Y-106825000D01*
X136715000Y-106825000D01*
X136715000Y-105602703D01*
X136712503Y-105602900D01*
X136554806Y-105648716D01*
X136554803Y-105648717D01*
X136413447Y-105732314D01*
X136407278Y-105737100D01*
X136405457Y-105734753D01*
X136356358Y-105761564D01*
X136286666Y-105756580D01*
X136253930Y-105735541D01*
X136252722Y-105737100D01*
X136246552Y-105732314D01*
X136105196Y-105648717D01*
X136105193Y-105648716D01*
X135947494Y-105602900D01*
X135947497Y-105602900D01*
X135945000Y-105602703D01*
X135445000Y-105602703D01*
X135442503Y-105602900D01*
X135284806Y-105648716D01*
X135284803Y-105648717D01*
X135143447Y-105732314D01*
X135143438Y-105732321D01*
X135027321Y-105848438D01*
X135027314Y-105848447D01*
X134943717Y-105989803D01*
X134943716Y-105989806D01*
X134897900Y-106147504D01*
X134897899Y-106147510D01*
X134895000Y-106184350D01*
X132250000Y-106184350D01*
X132250000Y-103924000D01*
X132269685Y-103856961D01*
X132322489Y-103811206D01*
X132374000Y-103800000D01*
X136436187Y-103800000D01*
X136503226Y-103819685D01*
G37*
%TD.AperFunction*%
%TD*%
%TA.AperFunction,Conductor*%
%TO.N,GND*%
G36*
X145744839Y-103819685D02*
G01*
X145790594Y-103872489D01*
X145801800Y-103924000D01*
X145801800Y-104500000D01*
X147189800Y-104500000D01*
X147256839Y-104519685D01*
X147302594Y-104572489D01*
X147313800Y-104624000D01*
X147313800Y-106075500D01*
X147873628Y-106075500D01*
X147873644Y-106075499D01*
X147933172Y-106069098D01*
X147933179Y-106069096D01*
X148067886Y-106018854D01*
X148067893Y-106018850D01*
X148182986Y-105932690D01*
X148256233Y-105834847D01*
X148312167Y-105792976D01*
X148381859Y-105787992D01*
X148443182Y-105821477D01*
X148476666Y-105882801D01*
X148479500Y-105909158D01*
X148479500Y-115276000D01*
X148459815Y-115343039D01*
X148407011Y-115388794D01*
X148355500Y-115400000D01*
X147339000Y-115400000D01*
X147271961Y-115380315D01*
X147226206Y-115327511D01*
X147215000Y-115276000D01*
X147215000Y-114750000D01*
X144531600Y-114750000D01*
X144464561Y-114730315D01*
X144418806Y-114677511D01*
X144407600Y-114626000D01*
X144407600Y-114374000D01*
X144427285Y-114306961D01*
X144480089Y-114261206D01*
X144531600Y-114250000D01*
X147215000Y-114250000D01*
X147215000Y-113652072D01*
X147214999Y-113652055D01*
X147208598Y-113592527D01*
X147208596Y-113592520D01*
X147158354Y-113457813D01*
X147158350Y-113457806D01*
X147072190Y-113342712D01*
X147072187Y-113342709D01*
X146957093Y-113256549D01*
X146957086Y-113256545D01*
X146822379Y-113206303D01*
X146822372Y-113206301D01*
X146762844Y-113199900D01*
X145327700Y-113199900D01*
X145260661Y-113180215D01*
X145214906Y-113127411D01*
X145203700Y-113075900D01*
X145203700Y-110296300D01*
X141924000Y-110296300D01*
X141856961Y-110276615D01*
X141811206Y-110223811D01*
X141800000Y-110172300D01*
X141800000Y-106924000D01*
X141819685Y-106856961D01*
X141872489Y-106811206D01*
X141924000Y-106800000D01*
X145200000Y-106800000D01*
X145200000Y-105623344D01*
X145801800Y-105623344D01*
X145808201Y-105682872D01*
X145808203Y-105682879D01*
X145858445Y-105817586D01*
X145858449Y-105817593D01*
X145944609Y-105932687D01*
X145944612Y-105932690D01*
X146059706Y-106018850D01*
X146059713Y-106018854D01*
X146194420Y-106069096D01*
X146194427Y-106069098D01*
X146253955Y-106075499D01*
X146253972Y-106075500D01*
X146813800Y-106075500D01*
X146813800Y-105000000D01*
X145801800Y-105000000D01*
X145801800Y-105623344D01*
X145200000Y-105623344D01*
X145200000Y-103924000D01*
X145219685Y-103856961D01*
X145272489Y-103811206D01*
X145324000Y-103800000D01*
X145677800Y-103800000D01*
X145744839Y-103819685D01*
G37*
%TD.AperFunction*%
%TD*%
M02*
