%TF.GenerationSoftware,KiCad,Pcbnew,8.0.6*%
%TF.CreationDate,2024-11-29T18:17:16+01:00*%
%TF.ProjectId,doorbell_watcher,646f6f72-6265-46c6-9c5f-776174636865,rev?*%
%TF.SameCoordinates,Original*%
%TF.FileFunction,Copper,L2,Bot*%
%TF.FilePolarity,Positive*%
%FSLAX46Y46*%
G04 Gerber Fmt 4.6, Leading zero omitted, Abs format (unit mm)*
G04 Created by KiCad (PCBNEW 8.0.6) date 2024-11-29 18:17:16*
%MOMM*%
%LPD*%
G01*
G04 APERTURE LIST*
%TA.AperFunction,ComponentPad*%
%ADD10O,1.600000X2.000000*%
%TD*%
%TA.AperFunction,ComponentPad*%
%ADD11C,2.032000*%
%TD*%
%TA.AperFunction,ViaPad*%
%ADD12C,0.600000*%
%TD*%
G04 APERTURE END LIST*
D10*
%TO.P,J3,1,Pin_1*%
%TO.N,unconnected-(J3-Pin_1-Pad1)*%
X146620000Y-79571000D03*
%TO.P,J3,2,Pin_2*%
%TO.N,GND*%
X144080000Y-79571000D03*
%TO.P,J3,3,Pin_3*%
%TO.N,+5V*%
X141540000Y-79571000D03*
%TO.P,J3,4,Pin_4*%
%TO.N,+3V3*%
X139000000Y-79571000D03*
%TO.P,J3,5,Pin_5*%
%TO.N,/IO4*%
X136460000Y-79571000D03*
%TO.P,J3,6,Pin_6*%
%TO.N,/IO14*%
X133920000Y-79571000D03*
%TO.P,J3,7,Pin_7*%
%TO.N,unconnected-(J3-Pin_7-Pad7)*%
X131380000Y-79571000D03*
%TO.P,J3,8,Pin_8*%
%TO.N,unconnected-(J3-Pin_8-Pad8)*%
X128840000Y-79571000D03*
%TO.P,J3,9,Pin_9*%
%TO.N,unconnected-(J3-Pin_9-Pad9)*%
X126300000Y-79571000D03*
%TO.P,J3,10,Pin_10*%
%TO.N,unconnected-(J3-Pin_10-Pad10)*%
X123760000Y-79571000D03*
%TD*%
D11*
%TO.P,J1,1,Pin_1*%
%TO.N,/Vin1*%
X129680000Y-114800000D03*
%TO.P,J1,2,Pin_2*%
%TO.N,/Vin2*%
X124600000Y-114800000D03*
%TO.P,J1,3,Pin_3*%
%TO.N,/C1*%
X119520000Y-114800000D03*
%TD*%
D10*
%TO.P,J2,1,Pin_1*%
%TO.N,/IO23*%
X146620000Y-64250000D03*
%TO.P,J2,2,Pin_2*%
%TO.N,/IO19*%
X144080000Y-64250000D03*
%TO.P,J2,3,Pin_3*%
%TO.N,/IO18*%
X141540000Y-64250000D03*
%TO.P,J2,4,Pin_4*%
%TO.N,/IO5*%
X139000000Y-64250000D03*
%TO.P,J2,5,Pin_5*%
%TO.N,/IO22*%
X136460000Y-64250000D03*
%TO.P,J2,6,Pin_6*%
%TO.N,/IO21*%
X133920000Y-64250000D03*
%TO.P,J2,7,Pin_7*%
%TO.N,/IO32*%
X131380000Y-64250000D03*
%TO.P,J2,8,Pin_8*%
%TO.N,/IO33*%
X128840000Y-64250000D03*
%TO.P,J2,9,Pin_9*%
%TO.N,unconnected-(J2-Pin_9-Pad9)*%
X126300000Y-64250000D03*
%TO.P,J2,10,Pin_10*%
%TO.N,GND*%
X123760000Y-64250000D03*
%TD*%
D12*
%TO.N,GND*%
X122000000Y-99621000D03*
X143400000Y-107600000D03*
X133400000Y-106400000D03*
X146200000Y-107600000D03*
X134400000Y-105400000D03*
X124380000Y-99621000D03*
X123250000Y-99621000D03*
X144800000Y-108600000D03*
X134400000Y-104400000D03*
X126780000Y-99021000D03*
X124380000Y-97621000D03*
X122000000Y-98621000D03*
X143400000Y-108600000D03*
X122000000Y-97621000D03*
X123250000Y-97621000D03*
X134400000Y-107400000D03*
X146200000Y-108600000D03*
X124380000Y-98621000D03*
X144800000Y-107600000D03*
X133400000Y-105400000D03*
X147600000Y-107600000D03*
X125580000Y-99021000D03*
X133400000Y-104400000D03*
X134400000Y-106400000D03*
X147600000Y-109600000D03*
X123250000Y-98621000D03*
X147600000Y-108600000D03*
X147600000Y-110800000D03*
%TD*%
%TA.AperFunction,Conductor*%
%TO.N,GND*%
G36*
X148422539Y-61991185D02*
G01*
X148468294Y-62043989D01*
X148479500Y-62095500D01*
X148479500Y-121196500D01*
X148459815Y-121263539D01*
X148407011Y-121309294D01*
X148355500Y-121320500D01*
X133874000Y-121320500D01*
X133806961Y-121300815D01*
X133761206Y-121248011D01*
X133750000Y-121196500D01*
X133750000Y-110100000D01*
X116604500Y-110100000D01*
X116537461Y-110080315D01*
X116491706Y-110027511D01*
X116480500Y-109976000D01*
X116480500Y-84874000D01*
X116500185Y-84806961D01*
X116552989Y-84761206D01*
X116604500Y-84750000D01*
X119250000Y-84750000D01*
X120250000Y-83750000D01*
X120250000Y-79268648D01*
X122459500Y-79268648D01*
X122459500Y-79873351D01*
X122491522Y-80075534D01*
X122554781Y-80270223D01*
X122647715Y-80452613D01*
X122768028Y-80618213D01*
X122912786Y-80762971D01*
X123067749Y-80875556D01*
X123078390Y-80883287D01*
X123194607Y-80942503D01*
X123260776Y-80976218D01*
X123260778Y-80976218D01*
X123260781Y-80976220D01*
X123365137Y-81010127D01*
X123455465Y-81039477D01*
X123556557Y-81055488D01*
X123657648Y-81071500D01*
X123657649Y-81071500D01*
X123862351Y-81071500D01*
X123862352Y-81071500D01*
X124064534Y-81039477D01*
X124259219Y-80976220D01*
X124441610Y-80883287D01*
X124602614Y-80766312D01*
X124607213Y-80762971D01*
X124607215Y-80762968D01*
X124607219Y-80762966D01*
X124751966Y-80618219D01*
X124751968Y-80618215D01*
X124751971Y-80618213D01*
X124872284Y-80452614D01*
X124872285Y-80452613D01*
X124872287Y-80452610D01*
X124919516Y-80359917D01*
X124967489Y-80309123D01*
X125035310Y-80292328D01*
X125101445Y-80314865D01*
X125140485Y-80359919D01*
X125187715Y-80452614D01*
X125308028Y-80618213D01*
X125452786Y-80762971D01*
X125607749Y-80875556D01*
X125618390Y-80883287D01*
X125734607Y-80942503D01*
X125800776Y-80976218D01*
X125800778Y-80976218D01*
X125800781Y-80976220D01*
X125905137Y-81010127D01*
X125995465Y-81039477D01*
X126096557Y-81055488D01*
X126197648Y-81071500D01*
X126197649Y-81071500D01*
X126402351Y-81071500D01*
X126402352Y-81071500D01*
X126604534Y-81039477D01*
X126799219Y-80976220D01*
X126981610Y-80883287D01*
X127142614Y-80766312D01*
X127147213Y-80762971D01*
X127147215Y-80762968D01*
X127147219Y-80762966D01*
X127291966Y-80618219D01*
X127291968Y-80618215D01*
X127291971Y-80618213D01*
X127412284Y-80452614D01*
X127412285Y-80452613D01*
X127412287Y-80452610D01*
X127459516Y-80359917D01*
X127507489Y-80309123D01*
X127575310Y-80292328D01*
X127641445Y-80314865D01*
X127680485Y-80359919D01*
X127727715Y-80452614D01*
X127848028Y-80618213D01*
X127992786Y-80762971D01*
X128147749Y-80875556D01*
X128158390Y-80883287D01*
X128274607Y-80942503D01*
X128340776Y-80976218D01*
X128340778Y-80976218D01*
X128340781Y-80976220D01*
X128445137Y-81010127D01*
X128535465Y-81039477D01*
X128636557Y-81055488D01*
X128737648Y-81071500D01*
X128737649Y-81071500D01*
X128942351Y-81071500D01*
X128942352Y-81071500D01*
X129144534Y-81039477D01*
X129339219Y-80976220D01*
X129521610Y-80883287D01*
X129682614Y-80766312D01*
X129687213Y-80762971D01*
X129687215Y-80762968D01*
X129687219Y-80762966D01*
X129831966Y-80618219D01*
X129831968Y-80618215D01*
X129831971Y-80618213D01*
X129952284Y-80452614D01*
X129952285Y-80452613D01*
X129952287Y-80452610D01*
X129999516Y-80359917D01*
X130047489Y-80309123D01*
X130115310Y-80292328D01*
X130181445Y-80314865D01*
X130220485Y-80359919D01*
X130267715Y-80452614D01*
X130388028Y-80618213D01*
X130532786Y-80762971D01*
X130687749Y-80875556D01*
X130698390Y-80883287D01*
X130814607Y-80942503D01*
X130880776Y-80976218D01*
X130880778Y-80976218D01*
X130880781Y-80976220D01*
X130985137Y-81010127D01*
X131075465Y-81039477D01*
X131176557Y-81055488D01*
X131277648Y-81071500D01*
X131277649Y-81071500D01*
X131482351Y-81071500D01*
X131482352Y-81071500D01*
X131684534Y-81039477D01*
X131879219Y-80976220D01*
X132061610Y-80883287D01*
X132222614Y-80766312D01*
X132227213Y-80762971D01*
X132227215Y-80762968D01*
X132227219Y-80762966D01*
X132371966Y-80618219D01*
X132371968Y-80618215D01*
X132371971Y-80618213D01*
X132492284Y-80452614D01*
X132492285Y-80452613D01*
X132492287Y-80452610D01*
X132539516Y-80359917D01*
X132587489Y-80309123D01*
X132655310Y-80292328D01*
X132721445Y-80314865D01*
X132760485Y-80359919D01*
X132807715Y-80452614D01*
X132928028Y-80618213D01*
X133072786Y-80762971D01*
X133227749Y-80875556D01*
X133238390Y-80883287D01*
X133354607Y-80942503D01*
X133420776Y-80976218D01*
X133420778Y-80976218D01*
X133420781Y-80976220D01*
X133525137Y-81010127D01*
X133615465Y-81039477D01*
X133716557Y-81055488D01*
X133817648Y-81071500D01*
X133817649Y-81071500D01*
X134022351Y-81071500D01*
X134022352Y-81071500D01*
X134224534Y-81039477D01*
X134419219Y-80976220D01*
X134601610Y-80883287D01*
X134762614Y-80766312D01*
X134767213Y-80762971D01*
X134767215Y-80762968D01*
X134767219Y-80762966D01*
X134911966Y-80618219D01*
X134911968Y-80618215D01*
X134911971Y-80618213D01*
X135032284Y-80452614D01*
X135032285Y-80452613D01*
X135032287Y-80452610D01*
X135079516Y-80359917D01*
X135127489Y-80309123D01*
X135195310Y-80292328D01*
X135261445Y-80314865D01*
X135300485Y-80359919D01*
X135347715Y-80452614D01*
X135468028Y-80618213D01*
X135612786Y-80762971D01*
X135767749Y-80875556D01*
X135778390Y-80883287D01*
X135894607Y-80942503D01*
X135960776Y-80976218D01*
X135960778Y-80976218D01*
X135960781Y-80976220D01*
X136065137Y-81010127D01*
X136155465Y-81039477D01*
X136256557Y-81055488D01*
X136357648Y-81071500D01*
X136357649Y-81071500D01*
X136562351Y-81071500D01*
X136562352Y-81071500D01*
X136764534Y-81039477D01*
X136959219Y-80976220D01*
X137141610Y-80883287D01*
X137302614Y-80766312D01*
X137307213Y-80762971D01*
X137307215Y-80762968D01*
X137307219Y-80762966D01*
X137451966Y-80618219D01*
X137451968Y-80618215D01*
X137451971Y-80618213D01*
X137572284Y-80452614D01*
X137572285Y-80452613D01*
X137572287Y-80452610D01*
X137619516Y-80359917D01*
X137667489Y-80309123D01*
X137735310Y-80292328D01*
X137801445Y-80314865D01*
X137840485Y-80359919D01*
X137887715Y-80452614D01*
X138008028Y-80618213D01*
X138152786Y-80762971D01*
X138307749Y-80875556D01*
X138318390Y-80883287D01*
X138434607Y-80942503D01*
X138500776Y-80976218D01*
X138500778Y-80976218D01*
X138500781Y-80976220D01*
X138605137Y-81010127D01*
X138695465Y-81039477D01*
X138796557Y-81055488D01*
X138897648Y-81071500D01*
X138897649Y-81071500D01*
X139102351Y-81071500D01*
X139102352Y-81071500D01*
X139304534Y-81039477D01*
X139499219Y-80976220D01*
X139681610Y-80883287D01*
X139842614Y-80766312D01*
X139847213Y-80762971D01*
X139847215Y-80762968D01*
X139847219Y-80762966D01*
X139991966Y-80618219D01*
X139991968Y-80618215D01*
X139991971Y-80618213D01*
X140112284Y-80452614D01*
X140112285Y-80452613D01*
X140112287Y-80452610D01*
X140159516Y-80359917D01*
X140207489Y-80309123D01*
X140275310Y-80292328D01*
X140341445Y-80314865D01*
X140380485Y-80359919D01*
X140427715Y-80452614D01*
X140548028Y-80618213D01*
X140692786Y-80762971D01*
X140847749Y-80875556D01*
X140858390Y-80883287D01*
X140974607Y-80942503D01*
X141040776Y-80976218D01*
X141040778Y-80976218D01*
X141040781Y-80976220D01*
X141145137Y-81010127D01*
X141235465Y-81039477D01*
X141336557Y-81055488D01*
X141437648Y-81071500D01*
X141437649Y-81071500D01*
X141642351Y-81071500D01*
X141642352Y-81071500D01*
X141844534Y-81039477D01*
X142039219Y-80976220D01*
X142221610Y-80883287D01*
X142382614Y-80766312D01*
X142387213Y-80762971D01*
X142387215Y-80762968D01*
X142387219Y-80762966D01*
X142531966Y-80618219D01*
X142531968Y-80618215D01*
X142531971Y-80618213D01*
X142652284Y-80452614D01*
X142652285Y-80452613D01*
X142652287Y-80452610D01*
X142699795Y-80359369D01*
X142747770Y-80308574D01*
X142815591Y-80291779D01*
X142881725Y-80314316D01*
X142920765Y-80359371D01*
X142926607Y-80370838D01*
X142926608Y-80370838D01*
X143588871Y-79708575D01*
X143604755Y-79767853D01*
X143671898Y-79884147D01*
X143766853Y-79979102D01*
X143883147Y-80046245D01*
X143942424Y-80062128D01*
X143238238Y-80766312D01*
X143398650Y-80882859D01*
X143580968Y-80975755D01*
X143775582Y-81038990D01*
X143977683Y-81071000D01*
X144182317Y-81071000D01*
X144384417Y-81038990D01*
X144579031Y-80975755D01*
X144761349Y-80882859D01*
X144921759Y-80766312D01*
X144921760Y-80766312D01*
X144217575Y-80062128D01*
X144276853Y-80046245D01*
X144393147Y-79979102D01*
X144488102Y-79884147D01*
X144555245Y-79767853D01*
X144571128Y-79708575D01*
X145233390Y-80370837D01*
X145239234Y-80359370D01*
X145287208Y-80308574D01*
X145355029Y-80291778D01*
X145421164Y-80314315D01*
X145460204Y-80359369D01*
X145507715Y-80452613D01*
X145628028Y-80618213D01*
X145772786Y-80762971D01*
X145927749Y-80875556D01*
X145938390Y-80883287D01*
X146054607Y-80942503D01*
X146120776Y-80976218D01*
X146120778Y-80976218D01*
X146120781Y-80976220D01*
X146225137Y-81010127D01*
X146315465Y-81039477D01*
X146416557Y-81055488D01*
X146517648Y-81071500D01*
X146517649Y-81071500D01*
X146722351Y-81071500D01*
X146722352Y-81071500D01*
X146924534Y-81039477D01*
X147119219Y-80976220D01*
X147301610Y-80883287D01*
X147462614Y-80766312D01*
X147467213Y-80762971D01*
X147467215Y-80762968D01*
X147467219Y-80762966D01*
X147611966Y-80618219D01*
X147611968Y-80618215D01*
X147611971Y-80618213D01*
X147664732Y-80545590D01*
X147732287Y-80452610D01*
X147825220Y-80270219D01*
X147888477Y-80075534D01*
X147920500Y-79873352D01*
X147920500Y-79268648D01*
X147888477Y-79066466D01*
X147825220Y-78871781D01*
X147825218Y-78871778D01*
X147825218Y-78871776D01*
X147773951Y-78771160D01*
X147732287Y-78689390D01*
X147724556Y-78678749D01*
X147611971Y-78523786D01*
X147467213Y-78379028D01*
X147301613Y-78258715D01*
X147301612Y-78258714D01*
X147301610Y-78258713D01*
X147244653Y-78229691D01*
X147119223Y-78165781D01*
X146924534Y-78102522D01*
X146749995Y-78074878D01*
X146722352Y-78070500D01*
X146517648Y-78070500D01*
X146493329Y-78074351D01*
X146315465Y-78102522D01*
X146120776Y-78165781D01*
X145938386Y-78258715D01*
X145772786Y-78379028D01*
X145628028Y-78523786D01*
X145507713Y-78689388D01*
X145460203Y-78782631D01*
X145412229Y-78833426D01*
X145344407Y-78850221D01*
X145278273Y-78827683D01*
X145239234Y-78782629D01*
X145233390Y-78771161D01*
X144571127Y-79433423D01*
X144555245Y-79374147D01*
X144488102Y-79257853D01*
X144393147Y-79162898D01*
X144276853Y-79095755D01*
X144217575Y-79079872D01*
X144921760Y-78375687D01*
X144921759Y-78375686D01*
X144761349Y-78259140D01*
X144579031Y-78166244D01*
X144384417Y-78103009D01*
X144182317Y-78071000D01*
X143977683Y-78071000D01*
X143775582Y-78103009D01*
X143580968Y-78166244D01*
X143398647Y-78259142D01*
X143238239Y-78375684D01*
X143238238Y-78375686D01*
X143942424Y-79079871D01*
X143883147Y-79095755D01*
X143766853Y-79162898D01*
X143671898Y-79257853D01*
X143604755Y-79374147D01*
X143588871Y-79433424D01*
X142926607Y-78771160D01*
X142920765Y-78782628D01*
X142872791Y-78833424D01*
X142804970Y-78850220D01*
X142738835Y-78827683D01*
X142699795Y-78782629D01*
X142688990Y-78761424D01*
X142652287Y-78689390D01*
X142644556Y-78678749D01*
X142531971Y-78523786D01*
X142387213Y-78379028D01*
X142221613Y-78258715D01*
X142221612Y-78258714D01*
X142221610Y-78258713D01*
X142164653Y-78229691D01*
X142039223Y-78165781D01*
X141844534Y-78102522D01*
X141669995Y-78074878D01*
X141642352Y-78070500D01*
X141437648Y-78070500D01*
X141413329Y-78074351D01*
X141235465Y-78102522D01*
X141040776Y-78165781D01*
X140858386Y-78258715D01*
X140692786Y-78379028D01*
X140548028Y-78523786D01*
X140427715Y-78689386D01*
X140380485Y-78782080D01*
X140332510Y-78832876D01*
X140264689Y-78849671D01*
X140198554Y-78827134D01*
X140159515Y-78782080D01*
X140153951Y-78771160D01*
X140112287Y-78689390D01*
X140104556Y-78678749D01*
X139991971Y-78523786D01*
X139847213Y-78379028D01*
X139681613Y-78258715D01*
X139681612Y-78258714D01*
X139681610Y-78258713D01*
X139624653Y-78229691D01*
X139499223Y-78165781D01*
X139304534Y-78102522D01*
X139129995Y-78074878D01*
X139102352Y-78070500D01*
X138897648Y-78070500D01*
X138873329Y-78074351D01*
X138695465Y-78102522D01*
X138500776Y-78165781D01*
X138318386Y-78258715D01*
X138152786Y-78379028D01*
X138008028Y-78523786D01*
X137887715Y-78689386D01*
X137840485Y-78782080D01*
X137792510Y-78832876D01*
X137724689Y-78849671D01*
X137658554Y-78827134D01*
X137619515Y-78782080D01*
X137613951Y-78771160D01*
X137572287Y-78689390D01*
X137564556Y-78678749D01*
X137451971Y-78523786D01*
X137307213Y-78379028D01*
X137141613Y-78258715D01*
X137141612Y-78258714D01*
X137141610Y-78258713D01*
X137084653Y-78229691D01*
X136959223Y-78165781D01*
X136764534Y-78102522D01*
X136589995Y-78074878D01*
X136562352Y-78070500D01*
X136357648Y-78070500D01*
X136333329Y-78074351D01*
X136155465Y-78102522D01*
X135960776Y-78165781D01*
X135778386Y-78258715D01*
X135612786Y-78379028D01*
X135468028Y-78523786D01*
X135347715Y-78689386D01*
X135300485Y-78782080D01*
X135252510Y-78832876D01*
X135184689Y-78849671D01*
X135118554Y-78827134D01*
X135079515Y-78782080D01*
X135073951Y-78771160D01*
X135032287Y-78689390D01*
X135024556Y-78678749D01*
X134911971Y-78523786D01*
X134767213Y-78379028D01*
X134601613Y-78258715D01*
X134601612Y-78258714D01*
X134601610Y-78258713D01*
X134544653Y-78229691D01*
X134419223Y-78165781D01*
X134224534Y-78102522D01*
X134049995Y-78074878D01*
X134022352Y-78070500D01*
X133817648Y-78070500D01*
X133793329Y-78074351D01*
X133615465Y-78102522D01*
X133420776Y-78165781D01*
X133238386Y-78258715D01*
X133072786Y-78379028D01*
X132928028Y-78523786D01*
X132807715Y-78689386D01*
X132760485Y-78782080D01*
X132712510Y-78832876D01*
X132644689Y-78849671D01*
X132578554Y-78827134D01*
X132539515Y-78782080D01*
X132533951Y-78771160D01*
X132492287Y-78689390D01*
X132484556Y-78678749D01*
X132371971Y-78523786D01*
X132227213Y-78379028D01*
X132061613Y-78258715D01*
X132061612Y-78258714D01*
X132061610Y-78258713D01*
X132004653Y-78229691D01*
X131879223Y-78165781D01*
X131684534Y-78102522D01*
X131509995Y-78074878D01*
X131482352Y-78070500D01*
X131277648Y-78070500D01*
X131253329Y-78074351D01*
X131075465Y-78102522D01*
X130880776Y-78165781D01*
X130698386Y-78258715D01*
X130532786Y-78379028D01*
X130388028Y-78523786D01*
X130267715Y-78689386D01*
X130220485Y-78782080D01*
X130172510Y-78832876D01*
X130104689Y-78849671D01*
X130038554Y-78827134D01*
X129999515Y-78782080D01*
X129993951Y-78771160D01*
X129952287Y-78689390D01*
X129944556Y-78678749D01*
X129831971Y-78523786D01*
X129687213Y-78379028D01*
X129521613Y-78258715D01*
X129521612Y-78258714D01*
X129521610Y-78258713D01*
X129464653Y-78229691D01*
X129339223Y-78165781D01*
X129144534Y-78102522D01*
X128969995Y-78074878D01*
X128942352Y-78070500D01*
X128737648Y-78070500D01*
X128713329Y-78074351D01*
X128535465Y-78102522D01*
X128340776Y-78165781D01*
X128158386Y-78258715D01*
X127992786Y-78379028D01*
X127848028Y-78523786D01*
X127727715Y-78689386D01*
X127680485Y-78782080D01*
X127632510Y-78832876D01*
X127564689Y-78849671D01*
X127498554Y-78827134D01*
X127459515Y-78782080D01*
X127453951Y-78771160D01*
X127412287Y-78689390D01*
X127404556Y-78678749D01*
X127291971Y-78523786D01*
X127147213Y-78379028D01*
X126981613Y-78258715D01*
X126981612Y-78258714D01*
X126981610Y-78258713D01*
X126924653Y-78229691D01*
X126799223Y-78165781D01*
X126604534Y-78102522D01*
X126429995Y-78074878D01*
X126402352Y-78070500D01*
X126197648Y-78070500D01*
X126173329Y-78074351D01*
X125995465Y-78102522D01*
X125800776Y-78165781D01*
X125618386Y-78258715D01*
X125452786Y-78379028D01*
X125308028Y-78523786D01*
X125187715Y-78689386D01*
X125140485Y-78782080D01*
X125092510Y-78832876D01*
X125024689Y-78849671D01*
X124958554Y-78827134D01*
X124919515Y-78782080D01*
X124913951Y-78771160D01*
X124872287Y-78689390D01*
X124864556Y-78678749D01*
X124751971Y-78523786D01*
X124607213Y-78379028D01*
X124441613Y-78258715D01*
X124441612Y-78258714D01*
X124441610Y-78258713D01*
X124384653Y-78229691D01*
X124259223Y-78165781D01*
X124064534Y-78102522D01*
X123889995Y-78074878D01*
X123862352Y-78070500D01*
X123657648Y-78070500D01*
X123633329Y-78074351D01*
X123455465Y-78102522D01*
X123260776Y-78165781D01*
X123078386Y-78258715D01*
X122912786Y-78379028D01*
X122768028Y-78523786D01*
X122647715Y-78689386D01*
X122554781Y-78871776D01*
X122491522Y-79066465D01*
X122459500Y-79268648D01*
X120250000Y-79268648D01*
X120250000Y-77297144D01*
X120269685Y-77230105D01*
X120281316Y-77214768D01*
X122250000Y-75000000D01*
X122250000Y-64792493D01*
X122269685Y-64725454D01*
X122322489Y-64679699D01*
X122391647Y-64669755D01*
X122455203Y-64698780D01*
X122491931Y-64754174D01*
X122555243Y-64949027D01*
X122555246Y-64949034D01*
X122606607Y-65049838D01*
X122606608Y-65049838D01*
X123268871Y-64387575D01*
X123284755Y-64446853D01*
X123351898Y-64563147D01*
X123446853Y-64658102D01*
X123563147Y-64725245D01*
X123622424Y-64741128D01*
X122918238Y-65445312D01*
X123078650Y-65561859D01*
X123260968Y-65654755D01*
X123455582Y-65717990D01*
X123657683Y-65750000D01*
X123862317Y-65750000D01*
X124064417Y-65717990D01*
X124259031Y-65654755D01*
X124441349Y-65561859D01*
X124601759Y-65445312D01*
X124601760Y-65445312D01*
X123897575Y-64741128D01*
X123956853Y-64725245D01*
X124073147Y-64658102D01*
X124168102Y-64563147D01*
X124235245Y-64446853D01*
X124251128Y-64387575D01*
X124913390Y-65049837D01*
X124919234Y-65038370D01*
X124967208Y-64987574D01*
X125035029Y-64970778D01*
X125101164Y-64993315D01*
X125140204Y-65038369D01*
X125187715Y-65131613D01*
X125308028Y-65297213D01*
X125452786Y-65441971D01*
X125607749Y-65554556D01*
X125618390Y-65562287D01*
X125734607Y-65621503D01*
X125800776Y-65655218D01*
X125800778Y-65655218D01*
X125800781Y-65655220D01*
X125905137Y-65689127D01*
X125995465Y-65718477D01*
X126096557Y-65734488D01*
X126197648Y-65750500D01*
X126197649Y-65750500D01*
X126402351Y-65750500D01*
X126402352Y-65750500D01*
X126604534Y-65718477D01*
X126799219Y-65655220D01*
X126981610Y-65562287D01*
X127142614Y-65445312D01*
X127147213Y-65441971D01*
X127147215Y-65441968D01*
X127147219Y-65441966D01*
X127291966Y-65297219D01*
X127291968Y-65297215D01*
X127291971Y-65297213D01*
X127412284Y-65131614D01*
X127412285Y-65131613D01*
X127412287Y-65131610D01*
X127459516Y-65038917D01*
X127507489Y-64988123D01*
X127575310Y-64971328D01*
X127641445Y-64993865D01*
X127680485Y-65038919D01*
X127727715Y-65131614D01*
X127848028Y-65297213D01*
X127992786Y-65441971D01*
X128147749Y-65554556D01*
X128158390Y-65562287D01*
X128274607Y-65621503D01*
X128340776Y-65655218D01*
X128340778Y-65655218D01*
X128340781Y-65655220D01*
X128445137Y-65689127D01*
X128535465Y-65718477D01*
X128636557Y-65734488D01*
X128737648Y-65750500D01*
X128737649Y-65750500D01*
X128942351Y-65750500D01*
X128942352Y-65750500D01*
X129144534Y-65718477D01*
X129339219Y-65655220D01*
X129521610Y-65562287D01*
X129682614Y-65445312D01*
X129687213Y-65441971D01*
X129687215Y-65441968D01*
X129687219Y-65441966D01*
X129831966Y-65297219D01*
X129831968Y-65297215D01*
X129831971Y-65297213D01*
X129952284Y-65131614D01*
X129952285Y-65131613D01*
X129952287Y-65131610D01*
X129999516Y-65038917D01*
X130047489Y-64988123D01*
X130115310Y-64971328D01*
X130181445Y-64993865D01*
X130220485Y-65038919D01*
X130267715Y-65131614D01*
X130388028Y-65297213D01*
X130532786Y-65441971D01*
X130687749Y-65554556D01*
X130698390Y-65562287D01*
X130814607Y-65621503D01*
X130880776Y-65655218D01*
X130880778Y-65655218D01*
X130880781Y-65655220D01*
X130985137Y-65689127D01*
X131075465Y-65718477D01*
X131176557Y-65734488D01*
X131277648Y-65750500D01*
X131277649Y-65750500D01*
X131482351Y-65750500D01*
X131482352Y-65750500D01*
X131684534Y-65718477D01*
X131879219Y-65655220D01*
X132061610Y-65562287D01*
X132222614Y-65445312D01*
X132227213Y-65441971D01*
X132227215Y-65441968D01*
X132227219Y-65441966D01*
X132371966Y-65297219D01*
X132371968Y-65297215D01*
X132371971Y-65297213D01*
X132492284Y-65131614D01*
X132492285Y-65131613D01*
X132492287Y-65131610D01*
X132539516Y-65038917D01*
X132587489Y-64988123D01*
X132655310Y-64971328D01*
X132721445Y-64993865D01*
X132760485Y-65038919D01*
X132807715Y-65131614D01*
X132928028Y-65297213D01*
X133072786Y-65441971D01*
X133227749Y-65554556D01*
X133238390Y-65562287D01*
X133354607Y-65621503D01*
X133420776Y-65655218D01*
X133420778Y-65655218D01*
X133420781Y-65655220D01*
X133525137Y-65689127D01*
X133615465Y-65718477D01*
X133716557Y-65734488D01*
X133817648Y-65750500D01*
X133817649Y-65750500D01*
X134022351Y-65750500D01*
X134022352Y-65750500D01*
X134224534Y-65718477D01*
X134419219Y-65655220D01*
X134601610Y-65562287D01*
X134762614Y-65445312D01*
X134767213Y-65441971D01*
X134767215Y-65441968D01*
X134767219Y-65441966D01*
X134911966Y-65297219D01*
X134911968Y-65297215D01*
X134911971Y-65297213D01*
X135032284Y-65131614D01*
X135032285Y-65131613D01*
X135032287Y-65131610D01*
X135079516Y-65038917D01*
X135127489Y-64988123D01*
X135195310Y-64971328D01*
X135261445Y-64993865D01*
X135300485Y-65038919D01*
X135347715Y-65131614D01*
X135468028Y-65297213D01*
X135612786Y-65441971D01*
X135767749Y-65554556D01*
X135778390Y-65562287D01*
X135894607Y-65621503D01*
X135960776Y-65655218D01*
X135960778Y-65655218D01*
X135960781Y-65655220D01*
X136065137Y-65689127D01*
X136155465Y-65718477D01*
X136256557Y-65734488D01*
X136357648Y-65750500D01*
X136357649Y-65750500D01*
X136562351Y-65750500D01*
X136562352Y-65750500D01*
X136764534Y-65718477D01*
X136959219Y-65655220D01*
X137141610Y-65562287D01*
X137302614Y-65445312D01*
X137307213Y-65441971D01*
X137307215Y-65441968D01*
X137307219Y-65441966D01*
X137451966Y-65297219D01*
X137451968Y-65297215D01*
X137451971Y-65297213D01*
X137572284Y-65131614D01*
X137572285Y-65131613D01*
X137572287Y-65131610D01*
X137619516Y-65038917D01*
X137667489Y-64988123D01*
X137735310Y-64971328D01*
X137801445Y-64993865D01*
X137840485Y-65038919D01*
X137887715Y-65131614D01*
X138008028Y-65297213D01*
X138152786Y-65441971D01*
X138307749Y-65554556D01*
X138318390Y-65562287D01*
X138434607Y-65621503D01*
X138500776Y-65655218D01*
X138500778Y-65655218D01*
X138500781Y-65655220D01*
X138605137Y-65689127D01*
X138695465Y-65718477D01*
X138796557Y-65734488D01*
X138897648Y-65750500D01*
X138897649Y-65750500D01*
X139102351Y-65750500D01*
X139102352Y-65750500D01*
X139304534Y-65718477D01*
X139499219Y-65655220D01*
X139681610Y-65562287D01*
X139842614Y-65445312D01*
X139847213Y-65441971D01*
X139847215Y-65441968D01*
X139847219Y-65441966D01*
X139991966Y-65297219D01*
X139991968Y-65297215D01*
X139991971Y-65297213D01*
X140112284Y-65131614D01*
X140112285Y-65131613D01*
X140112287Y-65131610D01*
X140159516Y-65038917D01*
X140207489Y-64988123D01*
X140275310Y-64971328D01*
X140341445Y-64993865D01*
X140380485Y-65038919D01*
X140427715Y-65131614D01*
X140548028Y-65297213D01*
X140692786Y-65441971D01*
X140847749Y-65554556D01*
X140858390Y-65562287D01*
X140974607Y-65621503D01*
X141040776Y-65655218D01*
X141040778Y-65655218D01*
X141040781Y-65655220D01*
X141145137Y-65689127D01*
X141235465Y-65718477D01*
X141336557Y-65734488D01*
X141437648Y-65750500D01*
X141437649Y-65750500D01*
X141642351Y-65750500D01*
X141642352Y-65750500D01*
X141844534Y-65718477D01*
X142039219Y-65655220D01*
X142221610Y-65562287D01*
X142382614Y-65445312D01*
X142387213Y-65441971D01*
X142387215Y-65441968D01*
X142387219Y-65441966D01*
X142531966Y-65297219D01*
X142531968Y-65297215D01*
X142531971Y-65297213D01*
X142652284Y-65131614D01*
X142652285Y-65131613D01*
X142652287Y-65131610D01*
X142699516Y-65038917D01*
X142747489Y-64988123D01*
X142815310Y-64971328D01*
X142881445Y-64993865D01*
X142920485Y-65038919D01*
X142967715Y-65131614D01*
X143088028Y-65297213D01*
X143232786Y-65441971D01*
X143387749Y-65554556D01*
X143398390Y-65562287D01*
X143514607Y-65621503D01*
X143580776Y-65655218D01*
X143580778Y-65655218D01*
X143580781Y-65655220D01*
X143685137Y-65689127D01*
X143775465Y-65718477D01*
X143876557Y-65734488D01*
X143977648Y-65750500D01*
X143977649Y-65750500D01*
X144182351Y-65750500D01*
X144182352Y-65750500D01*
X144384534Y-65718477D01*
X144579219Y-65655220D01*
X144761610Y-65562287D01*
X144922614Y-65445312D01*
X144927213Y-65441971D01*
X144927215Y-65441968D01*
X144927219Y-65441966D01*
X145071966Y-65297219D01*
X145071968Y-65297215D01*
X145071971Y-65297213D01*
X145192284Y-65131614D01*
X145192285Y-65131613D01*
X145192287Y-65131610D01*
X145239516Y-65038917D01*
X145287489Y-64988123D01*
X145355310Y-64971328D01*
X145421445Y-64993865D01*
X145460485Y-65038919D01*
X145507715Y-65131614D01*
X145628028Y-65297213D01*
X145772786Y-65441971D01*
X145927749Y-65554556D01*
X145938390Y-65562287D01*
X146054607Y-65621503D01*
X146120776Y-65655218D01*
X146120778Y-65655218D01*
X146120781Y-65655220D01*
X146225137Y-65689127D01*
X146315465Y-65718477D01*
X146416557Y-65734488D01*
X146517648Y-65750500D01*
X146517649Y-65750500D01*
X146722351Y-65750500D01*
X146722352Y-65750500D01*
X146924534Y-65718477D01*
X147119219Y-65655220D01*
X147301610Y-65562287D01*
X147462614Y-65445312D01*
X147467213Y-65441971D01*
X147467215Y-65441968D01*
X147467219Y-65441966D01*
X147611966Y-65297219D01*
X147611968Y-65297215D01*
X147611971Y-65297213D01*
X147664732Y-65224590D01*
X147732287Y-65131610D01*
X147825220Y-64949219D01*
X147888477Y-64754534D01*
X147920500Y-64552352D01*
X147920500Y-63947648D01*
X147901977Y-63830698D01*
X147888477Y-63745465D01*
X147859127Y-63655137D01*
X147825220Y-63550781D01*
X147825218Y-63550778D01*
X147825218Y-63550776D01*
X147773951Y-63450160D01*
X147732287Y-63368390D01*
X147724556Y-63357749D01*
X147611971Y-63202786D01*
X147467213Y-63058028D01*
X147301613Y-62937715D01*
X147301612Y-62937714D01*
X147301610Y-62937713D01*
X147244653Y-62908691D01*
X147119223Y-62844781D01*
X146924534Y-62781522D01*
X146749995Y-62753878D01*
X146722352Y-62749500D01*
X146517648Y-62749500D01*
X146493329Y-62753351D01*
X146315465Y-62781522D01*
X146120776Y-62844781D01*
X145938386Y-62937715D01*
X145772786Y-63058028D01*
X145628028Y-63202786D01*
X145507715Y-63368386D01*
X145460485Y-63461080D01*
X145412510Y-63511876D01*
X145344689Y-63528671D01*
X145278554Y-63506134D01*
X145239515Y-63461080D01*
X145233951Y-63450160D01*
X145192287Y-63368390D01*
X145184556Y-63357749D01*
X145071971Y-63202786D01*
X144927213Y-63058028D01*
X144761613Y-62937715D01*
X144761612Y-62937714D01*
X144761610Y-62937713D01*
X144704653Y-62908691D01*
X144579223Y-62844781D01*
X144384534Y-62781522D01*
X144209995Y-62753878D01*
X144182352Y-62749500D01*
X143977648Y-62749500D01*
X143953329Y-62753351D01*
X143775465Y-62781522D01*
X143580776Y-62844781D01*
X143398386Y-62937715D01*
X143232786Y-63058028D01*
X143088028Y-63202786D01*
X142967715Y-63368386D01*
X142920485Y-63461080D01*
X142872510Y-63511876D01*
X142804689Y-63528671D01*
X142738554Y-63506134D01*
X142699515Y-63461080D01*
X142693951Y-63450160D01*
X142652287Y-63368390D01*
X142644556Y-63357749D01*
X142531971Y-63202786D01*
X142387213Y-63058028D01*
X142221613Y-62937715D01*
X142221612Y-62937714D01*
X142221610Y-62937713D01*
X142164653Y-62908691D01*
X142039223Y-62844781D01*
X141844534Y-62781522D01*
X141669995Y-62753878D01*
X141642352Y-62749500D01*
X141437648Y-62749500D01*
X141413329Y-62753351D01*
X141235465Y-62781522D01*
X141040776Y-62844781D01*
X140858386Y-62937715D01*
X140692786Y-63058028D01*
X140548028Y-63202786D01*
X140427715Y-63368386D01*
X140380485Y-63461080D01*
X140332510Y-63511876D01*
X140264689Y-63528671D01*
X140198554Y-63506134D01*
X140159515Y-63461080D01*
X140153951Y-63450160D01*
X140112287Y-63368390D01*
X140104556Y-63357749D01*
X139991971Y-63202786D01*
X139847213Y-63058028D01*
X139681613Y-62937715D01*
X139681612Y-62937714D01*
X139681610Y-62937713D01*
X139624653Y-62908691D01*
X139499223Y-62844781D01*
X139304534Y-62781522D01*
X139129995Y-62753878D01*
X139102352Y-62749500D01*
X138897648Y-62749500D01*
X138873329Y-62753351D01*
X138695465Y-62781522D01*
X138500776Y-62844781D01*
X138318386Y-62937715D01*
X138152786Y-63058028D01*
X138008028Y-63202786D01*
X137887715Y-63368386D01*
X137840485Y-63461080D01*
X137792510Y-63511876D01*
X137724689Y-63528671D01*
X137658554Y-63506134D01*
X137619515Y-63461080D01*
X137613951Y-63450160D01*
X137572287Y-63368390D01*
X137564556Y-63357749D01*
X137451971Y-63202786D01*
X137307213Y-63058028D01*
X137141613Y-62937715D01*
X137141612Y-62937714D01*
X137141610Y-62937713D01*
X137084653Y-62908691D01*
X136959223Y-62844781D01*
X136764534Y-62781522D01*
X136589995Y-62753878D01*
X136562352Y-62749500D01*
X136357648Y-62749500D01*
X136333329Y-62753351D01*
X136155465Y-62781522D01*
X135960776Y-62844781D01*
X135778386Y-62937715D01*
X135612786Y-63058028D01*
X135468028Y-63202786D01*
X135347715Y-63368386D01*
X135300485Y-63461080D01*
X135252510Y-63511876D01*
X135184689Y-63528671D01*
X135118554Y-63506134D01*
X135079515Y-63461080D01*
X135073951Y-63450160D01*
X135032287Y-63368390D01*
X135024556Y-63357749D01*
X134911971Y-63202786D01*
X134767213Y-63058028D01*
X134601613Y-62937715D01*
X134601612Y-62937714D01*
X134601610Y-62937713D01*
X134544653Y-62908691D01*
X134419223Y-62844781D01*
X134224534Y-62781522D01*
X134049995Y-62753878D01*
X134022352Y-62749500D01*
X133817648Y-62749500D01*
X133793329Y-62753351D01*
X133615465Y-62781522D01*
X133420776Y-62844781D01*
X133238386Y-62937715D01*
X133072786Y-63058028D01*
X132928028Y-63202786D01*
X132807715Y-63368386D01*
X132760485Y-63461080D01*
X132712510Y-63511876D01*
X132644689Y-63528671D01*
X132578554Y-63506134D01*
X132539515Y-63461080D01*
X132533951Y-63450160D01*
X132492287Y-63368390D01*
X132484556Y-63357749D01*
X132371971Y-63202786D01*
X132227213Y-63058028D01*
X132061613Y-62937715D01*
X132061612Y-62937714D01*
X132061610Y-62937713D01*
X132004653Y-62908691D01*
X131879223Y-62844781D01*
X131684534Y-62781522D01*
X131509995Y-62753878D01*
X131482352Y-62749500D01*
X131277648Y-62749500D01*
X131253329Y-62753351D01*
X131075465Y-62781522D01*
X130880776Y-62844781D01*
X130698386Y-62937715D01*
X130532786Y-63058028D01*
X130388028Y-63202786D01*
X130267715Y-63368386D01*
X130220485Y-63461080D01*
X130172510Y-63511876D01*
X130104689Y-63528671D01*
X130038554Y-63506134D01*
X129999515Y-63461080D01*
X129993951Y-63450160D01*
X129952287Y-63368390D01*
X129944556Y-63357749D01*
X129831971Y-63202786D01*
X129687213Y-63058028D01*
X129521613Y-62937715D01*
X129521612Y-62937714D01*
X129521610Y-62937713D01*
X129464653Y-62908691D01*
X129339223Y-62844781D01*
X129144534Y-62781522D01*
X128969995Y-62753878D01*
X128942352Y-62749500D01*
X128737648Y-62749500D01*
X128713329Y-62753351D01*
X128535465Y-62781522D01*
X128340776Y-62844781D01*
X128158386Y-62937715D01*
X127992786Y-63058028D01*
X127848028Y-63202786D01*
X127727715Y-63368386D01*
X127680485Y-63461080D01*
X127632510Y-63511876D01*
X127564689Y-63528671D01*
X127498554Y-63506134D01*
X127459515Y-63461080D01*
X127453951Y-63450160D01*
X127412287Y-63368390D01*
X127404556Y-63357749D01*
X127291971Y-63202786D01*
X127147213Y-63058028D01*
X126981613Y-62937715D01*
X126981612Y-62937714D01*
X126981610Y-62937713D01*
X126924653Y-62908691D01*
X126799223Y-62844781D01*
X126604534Y-62781522D01*
X126429995Y-62753878D01*
X126402352Y-62749500D01*
X126197648Y-62749500D01*
X126173329Y-62753351D01*
X125995465Y-62781522D01*
X125800776Y-62844781D01*
X125618386Y-62937715D01*
X125452786Y-63058028D01*
X125308028Y-63202786D01*
X125187713Y-63368388D01*
X125140203Y-63461631D01*
X125092229Y-63512426D01*
X125024407Y-63529221D01*
X124958273Y-63506683D01*
X124919234Y-63461629D01*
X124913390Y-63450161D01*
X124251127Y-64112423D01*
X124235245Y-64053147D01*
X124168102Y-63936853D01*
X124073147Y-63841898D01*
X123956853Y-63774755D01*
X123897575Y-63758872D01*
X124601760Y-63054687D01*
X124601759Y-63054686D01*
X124441349Y-62938140D01*
X124259031Y-62845244D01*
X124064417Y-62782009D01*
X123862317Y-62750000D01*
X123657683Y-62750000D01*
X123455582Y-62782009D01*
X123260968Y-62845244D01*
X123078647Y-62938142D01*
X122918239Y-63054684D01*
X122918238Y-63054686D01*
X123622424Y-63758871D01*
X123563147Y-63774755D01*
X123446853Y-63841898D01*
X123351898Y-63936853D01*
X123284755Y-64053147D01*
X123268871Y-64112424D01*
X122606607Y-63450160D01*
X122555242Y-63550973D01*
X122555242Y-63550974D01*
X122491931Y-63745824D01*
X122452493Y-63803500D01*
X122388135Y-63830698D01*
X122319288Y-63818783D01*
X122267813Y-63771539D01*
X122250000Y-63707506D01*
X122250000Y-62095500D01*
X122269685Y-62028461D01*
X122322489Y-61982706D01*
X122374000Y-61971500D01*
X148355500Y-61971500D01*
X148422539Y-61991185D01*
G37*
%TD.AperFunction*%
%TD*%
M02*
