%TF.GenerationSoftware,KiCad,Pcbnew,8.0.6*%
%TF.CreationDate,2024-12-16T14:26:34+01:00*%
%TF.ProjectId,doorbell_watcher,646f6f72-6265-46c6-9c5f-776174636865,rev?*%
%TF.SameCoordinates,Original*%
%TF.FileFunction,Copper,L2,Bot*%
%TF.FilePolarity,Positive*%
%FSLAX46Y46*%
G04 Gerber Fmt 4.6, Leading zero omitted, Abs format (unit mm)*
G04 Created by KiCad (PCBNEW 8.0.6) date 2024-12-16 14:26:34*
%MOMM*%
%LPD*%
G01*
G04 APERTURE LIST*
%TA.AperFunction,ComponentPad*%
%ADD10O,1.600000X2.000000*%
%TD*%
%TA.AperFunction,ComponentPad*%
%ADD11C,2.032000*%
%TD*%
%TA.AperFunction,ComponentPad*%
%ADD12C,3.000000*%
%TD*%
%TA.AperFunction,ComponentPad*%
%ADD13C,2.500000*%
%TD*%
%TA.AperFunction,ViaPad*%
%ADD14C,0.600000*%
%TD*%
%TA.AperFunction,Conductor*%
%ADD15C,0.500000*%
%TD*%
G04 APERTURE END LIST*
D10*
%TO.P,J3,1,Pin_1*%
%TO.N,/IO23*%
X146620000Y-64221000D03*
%TO.P,J3,2,Pin_2*%
%TO.N,/IO19*%
X144080000Y-64221000D03*
%TO.P,J3,3,Pin_3*%
%TO.N,/IO18*%
X141540000Y-64221000D03*
%TO.P,J3,4,Pin_4*%
%TO.N,/IO5*%
X139000000Y-64221000D03*
%TO.P,J3,5,Pin_5*%
%TO.N,/IO22*%
X136460000Y-64221000D03*
%TO.P,J3,6,Pin_6*%
%TO.N,/IO21*%
X133920000Y-64221000D03*
%TO.P,J3,7,Pin_7*%
%TO.N,/IO32*%
X131380000Y-64221000D03*
%TO.P,J3,8,Pin_8*%
%TO.N,/IO33*%
X128840000Y-64221000D03*
%TO.P,J3,9,Pin_9*%
%TO.N,unconnected-(J3-Pin_9-Pad9)*%
X126300000Y-64221000D03*
%TO.P,J3,10,Pin_10*%
%TO.N,GND*%
X123760000Y-64221000D03*
%TD*%
%TO.P,J4,1,Pin_1*%
%TO.N,unconnected-(J4-Pin_1-Pad1)*%
X146600001Y-79621000D03*
%TO.P,J4,2,Pin_2*%
%TO.N,GND*%
X144060000Y-79621000D03*
%TO.P,J4,3,Pin_3*%
%TO.N,+5V*%
X141520000Y-79621000D03*
%TO.P,J4,4,Pin_4*%
%TO.N,+3V3*%
X138980000Y-79621000D03*
%TO.P,J4,5,Pin_5*%
%TO.N,/IO4*%
X136440001Y-79621000D03*
%TO.P,J4,6,Pin_6*%
%TO.N,/IO14*%
X133899999Y-79621000D03*
%TO.P,J4,7,Pin_7*%
%TO.N,unconnected-(J4-Pin_7-Pad7)*%
X131360000Y-79621000D03*
%TO.P,J4,8,Pin_8*%
%TO.N,unconnected-(J4-Pin_8-Pad8)*%
X128820000Y-79621000D03*
%TO.P,J4,9,Pin_9*%
%TO.N,unconnected-(J4-Pin_9-Pad9)*%
X126280000Y-79621000D03*
%TO.P,J4,10,Pin_10*%
%TO.N,unconnected-(J4-Pin_10-Pad10)*%
X123739999Y-79621000D03*
%TD*%
D11*
%TO.P,J1,1,Pin_1*%
%TO.N,/Vin1*%
X129680000Y-114800000D03*
%TO.P,J1,2,Pin_2*%
%TO.N,/Vin2*%
X124600000Y-114800000D03*
%TO.P,J1,3,Pin_3*%
%TO.N,/Sense1*%
X119520000Y-114800000D03*
%TD*%
%TO.P,J2,1,Pin_1*%
%TO.N,/RelayNC*%
X145726600Y-43821000D03*
%TO.P,J2,2,Pin_2*%
%TO.N,/RelayCOM*%
X140646600Y-43821000D03*
%TO.P,J2,3,Pin_3*%
%TO.N,/RelayNO*%
X135566600Y-43821000D03*
%TD*%
D12*
%TO.P,K1,1*%
%TO.N,/RelayCOM*%
X124180000Y-56121000D03*
D13*
%TO.P,K1,2*%
%TO.N,Net-(D3-A)*%
X130230000Y-54171000D03*
D12*
%TO.P,K1,3*%
%TO.N,/RelayNO*%
X130230000Y-41971000D03*
%TO.P,K1,4*%
%TO.N,/RelayNC*%
X118180000Y-41921000D03*
D13*
%TO.P,K1,5*%
%TO.N,+3V3*%
X118230000Y-54171000D03*
%TD*%
D14*
%TO.N,GND*%
X122000000Y-99621000D03*
X142980000Y-107621000D03*
X133400000Y-106400000D03*
X134400000Y-105400000D03*
X124380000Y-99621000D03*
X123250000Y-99621000D03*
X134400000Y-104400000D03*
X126780000Y-99021000D03*
X124380000Y-97621000D03*
X122000000Y-98621000D03*
X142980000Y-108621000D03*
X147780000Y-61421000D03*
X122000000Y-97621000D03*
X123250000Y-97621000D03*
X134400000Y-107400000D03*
X124380000Y-98621000D03*
X133400000Y-105400000D03*
X147180000Y-107621000D03*
X146780000Y-61421000D03*
X138380000Y-50221000D03*
X125580000Y-99021000D03*
X138380000Y-51221000D03*
X145780000Y-61421000D03*
X133400000Y-104400000D03*
X134400000Y-106400000D03*
X147180000Y-106621000D03*
X147180000Y-109621000D03*
X123250000Y-98621000D03*
X147180000Y-108621000D03*
X147180000Y-110621000D03*
%TD*%
D15*
%TO.N,+3V3*%
X132780000Y-69021000D02*
X123180000Y-69021000D01*
X118230000Y-57871000D02*
X118230000Y-54171000D01*
X123180000Y-69021000D02*
X121780000Y-67621000D01*
X121780000Y-61421000D02*
X118230000Y-57871000D01*
X121780000Y-67621000D02*
X121780000Y-61421000D01*
X138980000Y-79621000D02*
X138980000Y-75221000D01*
X138980000Y-75221000D02*
X132780000Y-69021000D01*
%TO.N,/RelayCOM*%
X136646600Y-47821000D02*
X131780000Y-47821000D01*
X124180000Y-55421000D02*
X124180000Y-56121000D01*
X131780000Y-47821000D02*
X124180000Y-55421000D01*
X140646600Y-43821000D02*
X136646600Y-47821000D01*
%TD*%
%TA.AperFunction,Conductor*%
%TO.N,GND*%
G36*
X148422539Y-37391185D02*
G01*
X148468294Y-37443989D01*
X148479500Y-37495500D01*
X148479500Y-121196500D01*
X148459815Y-121263539D01*
X148407011Y-121309294D01*
X148355500Y-121320500D01*
X133874000Y-121320500D01*
X133806961Y-121300815D01*
X133761206Y-121248011D01*
X133750000Y-121196500D01*
X133750000Y-110100000D01*
X116604500Y-110100000D01*
X116537461Y-110080315D01*
X116491706Y-110027511D01*
X116480500Y-109976000D01*
X116480500Y-84874000D01*
X116500185Y-84806961D01*
X116552989Y-84761206D01*
X116604500Y-84750000D01*
X119250000Y-84750000D01*
X120250000Y-83750000D01*
X120250000Y-77281000D01*
X120264588Y-77222647D01*
X121450000Y-75000000D01*
X121450000Y-68651730D01*
X121469685Y-68584691D01*
X121522489Y-68538936D01*
X121591647Y-68528992D01*
X121655203Y-68558017D01*
X121661681Y-68564049D01*
X122701586Y-69603954D01*
X122731058Y-69623645D01*
X122775270Y-69653186D01*
X122824505Y-69686084D01*
X122824506Y-69686084D01*
X122824507Y-69686085D01*
X122824509Y-69686086D01*
X122961082Y-69742656D01*
X122961087Y-69742658D01*
X122961091Y-69742658D01*
X122961092Y-69742659D01*
X123106079Y-69771500D01*
X123106082Y-69771500D01*
X123106083Y-69771500D01*
X123253917Y-69771500D01*
X132417770Y-69771500D01*
X132484809Y-69791185D01*
X132505451Y-69807819D01*
X138193181Y-75495548D01*
X138226666Y-75556871D01*
X138229500Y-75583229D01*
X138229500Y-78295582D01*
X138209815Y-78362621D01*
X138178385Y-78395900D01*
X138132787Y-78429028D01*
X138132782Y-78429032D01*
X137988028Y-78573786D01*
X137867712Y-78739389D01*
X137867711Y-78739391D01*
X137820484Y-78832079D01*
X137772510Y-78882875D01*
X137704689Y-78899670D01*
X137638554Y-78877132D01*
X137599515Y-78832079D01*
X137593951Y-78821160D01*
X137552288Y-78739390D01*
X137552286Y-78739387D01*
X137552285Y-78739385D01*
X137431972Y-78573786D01*
X137287214Y-78429028D01*
X137121614Y-78308715D01*
X137121613Y-78308714D01*
X137121611Y-78308713D01*
X137064654Y-78279691D01*
X136939224Y-78215781D01*
X136744535Y-78152522D01*
X136569996Y-78124878D01*
X136542353Y-78120500D01*
X136337649Y-78120500D01*
X136313330Y-78124351D01*
X136135466Y-78152522D01*
X135940777Y-78215781D01*
X135758387Y-78308715D01*
X135592787Y-78429028D01*
X135448029Y-78573786D01*
X135327713Y-78739389D01*
X135327712Y-78739391D01*
X135280484Y-78832081D01*
X135232510Y-78882877D01*
X135164689Y-78899672D01*
X135098554Y-78877134D01*
X135059516Y-78832081D01*
X135012287Y-78739391D01*
X135012286Y-78739389D01*
X134891970Y-78573786D01*
X134747212Y-78429028D01*
X134581612Y-78308715D01*
X134581611Y-78308714D01*
X134581609Y-78308713D01*
X134524652Y-78279691D01*
X134399222Y-78215781D01*
X134204533Y-78152522D01*
X134029994Y-78124878D01*
X134002351Y-78120500D01*
X133797647Y-78120500D01*
X133773328Y-78124351D01*
X133595464Y-78152522D01*
X133400775Y-78215781D01*
X133218385Y-78308715D01*
X133052785Y-78429028D01*
X132908027Y-78573786D01*
X132787711Y-78739389D01*
X132787710Y-78739391D01*
X132740483Y-78832079D01*
X132692509Y-78882875D01*
X132624688Y-78899670D01*
X132558553Y-78877132D01*
X132519514Y-78832079D01*
X132513950Y-78821160D01*
X132472287Y-78739390D01*
X132472285Y-78739387D01*
X132472284Y-78739385D01*
X132351971Y-78573786D01*
X132207213Y-78429028D01*
X132041613Y-78308715D01*
X132041612Y-78308714D01*
X132041610Y-78308713D01*
X131984653Y-78279691D01*
X131859223Y-78215781D01*
X131664534Y-78152522D01*
X131489995Y-78124878D01*
X131462352Y-78120500D01*
X131257648Y-78120500D01*
X131233329Y-78124351D01*
X131055465Y-78152522D01*
X130860776Y-78215781D01*
X130678386Y-78308715D01*
X130512786Y-78429028D01*
X130368028Y-78573786D01*
X130247715Y-78739386D01*
X130200485Y-78832080D01*
X130152510Y-78882876D01*
X130084689Y-78899671D01*
X130018554Y-78877134D01*
X129979515Y-78832080D01*
X129973951Y-78821160D01*
X129932287Y-78739390D01*
X129924556Y-78728749D01*
X129811971Y-78573786D01*
X129667213Y-78429028D01*
X129501613Y-78308715D01*
X129501612Y-78308714D01*
X129501610Y-78308713D01*
X129444653Y-78279691D01*
X129319223Y-78215781D01*
X129124534Y-78152522D01*
X128949995Y-78124878D01*
X128922352Y-78120500D01*
X128717648Y-78120500D01*
X128693329Y-78124351D01*
X128515465Y-78152522D01*
X128320776Y-78215781D01*
X128138386Y-78308715D01*
X127972786Y-78429028D01*
X127828028Y-78573786D01*
X127707715Y-78739386D01*
X127660485Y-78832080D01*
X127612510Y-78882876D01*
X127544689Y-78899671D01*
X127478554Y-78877134D01*
X127439515Y-78832080D01*
X127433951Y-78821160D01*
X127392287Y-78739390D01*
X127384556Y-78728749D01*
X127271971Y-78573786D01*
X127127213Y-78429028D01*
X126961613Y-78308715D01*
X126961612Y-78308714D01*
X126961610Y-78308713D01*
X126904653Y-78279691D01*
X126779223Y-78215781D01*
X126584534Y-78152522D01*
X126409995Y-78124878D01*
X126382352Y-78120500D01*
X126177648Y-78120500D01*
X126153329Y-78124351D01*
X125975465Y-78152522D01*
X125780776Y-78215781D01*
X125598386Y-78308715D01*
X125432786Y-78429028D01*
X125288028Y-78573786D01*
X125167712Y-78739389D01*
X125167711Y-78739391D01*
X125120483Y-78832081D01*
X125072509Y-78882877D01*
X125004688Y-78899672D01*
X124938553Y-78877134D01*
X124899514Y-78832081D01*
X124899513Y-78832080D01*
X124852286Y-78739390D01*
X124852284Y-78739387D01*
X124852283Y-78739385D01*
X124731970Y-78573786D01*
X124587212Y-78429028D01*
X124421612Y-78308715D01*
X124421611Y-78308714D01*
X124421609Y-78308713D01*
X124364652Y-78279691D01*
X124239222Y-78215781D01*
X124044533Y-78152522D01*
X123869994Y-78124878D01*
X123842351Y-78120500D01*
X123637647Y-78120500D01*
X123613328Y-78124351D01*
X123435464Y-78152522D01*
X123240775Y-78215781D01*
X123058385Y-78308715D01*
X122892785Y-78429028D01*
X122748027Y-78573786D01*
X122627714Y-78739386D01*
X122534780Y-78921776D01*
X122471521Y-79116465D01*
X122439499Y-79318648D01*
X122439499Y-79923351D01*
X122471521Y-80125534D01*
X122534780Y-80320223D01*
X122627714Y-80502613D01*
X122748027Y-80668213D01*
X122892785Y-80812971D01*
X123047748Y-80925556D01*
X123058389Y-80933287D01*
X123174606Y-80992503D01*
X123240775Y-81026218D01*
X123240777Y-81026218D01*
X123240780Y-81026220D01*
X123345136Y-81060127D01*
X123435464Y-81089477D01*
X123536556Y-81105488D01*
X123637647Y-81121500D01*
X123637648Y-81121500D01*
X123842350Y-81121500D01*
X123842351Y-81121500D01*
X124044533Y-81089477D01*
X124239218Y-81026220D01*
X124421609Y-80933287D01*
X124582613Y-80816312D01*
X124587212Y-80812971D01*
X124587214Y-80812968D01*
X124587218Y-80812966D01*
X124731965Y-80668219D01*
X124731967Y-80668215D01*
X124731970Y-80668213D01*
X124852285Y-80502611D01*
X124852286Y-80502610D01*
X124899515Y-80409917D01*
X124947488Y-80359123D01*
X125015309Y-80342327D01*
X125081444Y-80364864D01*
X125120484Y-80409918D01*
X125167715Y-80502613D01*
X125288028Y-80668213D01*
X125432786Y-80812971D01*
X125587749Y-80925556D01*
X125598390Y-80933287D01*
X125714607Y-80992503D01*
X125780776Y-81026218D01*
X125780778Y-81026218D01*
X125780781Y-81026220D01*
X125885137Y-81060127D01*
X125975465Y-81089477D01*
X126076557Y-81105488D01*
X126177648Y-81121500D01*
X126177649Y-81121500D01*
X126382351Y-81121500D01*
X126382352Y-81121500D01*
X126584534Y-81089477D01*
X126779219Y-81026220D01*
X126961610Y-80933287D01*
X127122614Y-80816312D01*
X127127213Y-80812971D01*
X127127215Y-80812968D01*
X127127219Y-80812966D01*
X127271966Y-80668219D01*
X127271968Y-80668215D01*
X127271971Y-80668213D01*
X127392284Y-80502614D01*
X127392286Y-80502611D01*
X127392287Y-80502610D01*
X127439516Y-80409917D01*
X127487489Y-80359123D01*
X127555310Y-80342328D01*
X127621445Y-80364865D01*
X127660483Y-80409917D01*
X127660486Y-80409921D01*
X127707715Y-80502614D01*
X127828028Y-80668213D01*
X127972786Y-80812971D01*
X128127749Y-80925556D01*
X128138390Y-80933287D01*
X128254607Y-80992503D01*
X128320776Y-81026218D01*
X128320778Y-81026218D01*
X128320781Y-81026220D01*
X128425137Y-81060127D01*
X128515465Y-81089477D01*
X128616557Y-81105488D01*
X128717648Y-81121500D01*
X128717649Y-81121500D01*
X128922351Y-81121500D01*
X128922352Y-81121500D01*
X129124534Y-81089477D01*
X129319219Y-81026220D01*
X129501610Y-80933287D01*
X129662614Y-80816312D01*
X129667213Y-80812971D01*
X129667215Y-80812968D01*
X129667219Y-80812966D01*
X129811966Y-80668219D01*
X129811968Y-80668215D01*
X129811971Y-80668213D01*
X129932284Y-80502614D01*
X129932286Y-80502611D01*
X129932287Y-80502610D01*
X129979516Y-80409917D01*
X130027489Y-80359123D01*
X130095310Y-80342328D01*
X130161445Y-80364865D01*
X130200483Y-80409917D01*
X130200486Y-80409921D01*
X130247715Y-80502614D01*
X130368028Y-80668213D01*
X130512786Y-80812971D01*
X130667749Y-80925556D01*
X130678390Y-80933287D01*
X130794607Y-80992503D01*
X130860776Y-81026218D01*
X130860778Y-81026218D01*
X130860781Y-81026220D01*
X130965137Y-81060127D01*
X131055465Y-81089477D01*
X131156557Y-81105488D01*
X131257648Y-81121500D01*
X131257649Y-81121500D01*
X131462351Y-81121500D01*
X131462352Y-81121500D01*
X131664534Y-81089477D01*
X131859219Y-81026220D01*
X132041610Y-80933287D01*
X132202614Y-80816312D01*
X132207213Y-80812971D01*
X132207215Y-80812968D01*
X132207219Y-80812966D01*
X132351966Y-80668219D01*
X132351968Y-80668215D01*
X132351971Y-80668213D01*
X132472286Y-80502611D01*
X132519514Y-80409921D01*
X132567488Y-80359125D01*
X132635309Y-80342329D01*
X132701444Y-80364866D01*
X132740484Y-80409920D01*
X132787714Y-80502613D01*
X132908027Y-80668213D01*
X133052785Y-80812971D01*
X133207748Y-80925556D01*
X133218389Y-80933287D01*
X133334606Y-80992503D01*
X133400775Y-81026218D01*
X133400777Y-81026218D01*
X133400780Y-81026220D01*
X133505136Y-81060127D01*
X133595464Y-81089477D01*
X133696556Y-81105488D01*
X133797647Y-81121500D01*
X133797648Y-81121500D01*
X134002350Y-81121500D01*
X134002351Y-81121500D01*
X134204533Y-81089477D01*
X134399218Y-81026220D01*
X134581609Y-80933287D01*
X134742613Y-80816312D01*
X134747212Y-80812971D01*
X134747214Y-80812968D01*
X134747218Y-80812966D01*
X134891965Y-80668219D01*
X134891967Y-80668215D01*
X134891970Y-80668213D01*
X134944731Y-80595590D01*
X135012286Y-80502610D01*
X135059515Y-80409917D01*
X135107490Y-80359122D01*
X135175311Y-80342327D01*
X135241446Y-80364864D01*
X135280485Y-80409918D01*
X135327716Y-80502613D01*
X135448029Y-80668213D01*
X135592787Y-80812971D01*
X135747750Y-80925556D01*
X135758391Y-80933287D01*
X135874608Y-80992503D01*
X135940777Y-81026218D01*
X135940779Y-81026218D01*
X135940782Y-81026220D01*
X136045138Y-81060127D01*
X136135466Y-81089477D01*
X136236558Y-81105488D01*
X136337649Y-81121500D01*
X136337650Y-81121500D01*
X136542352Y-81121500D01*
X136542353Y-81121500D01*
X136744535Y-81089477D01*
X136939220Y-81026220D01*
X137121611Y-80933287D01*
X137282615Y-80816312D01*
X137287214Y-80812971D01*
X137287216Y-80812968D01*
X137287220Y-80812966D01*
X137431967Y-80668219D01*
X137431969Y-80668215D01*
X137431972Y-80668213D01*
X137552287Y-80502611D01*
X137599515Y-80409921D01*
X137647489Y-80359125D01*
X137715310Y-80342329D01*
X137781445Y-80364866D01*
X137820485Y-80409920D01*
X137867715Y-80502613D01*
X137988028Y-80668213D01*
X138132786Y-80812971D01*
X138287749Y-80925556D01*
X138298390Y-80933287D01*
X138414607Y-80992503D01*
X138480776Y-81026218D01*
X138480778Y-81026218D01*
X138480781Y-81026220D01*
X138585137Y-81060127D01*
X138675465Y-81089477D01*
X138776557Y-81105488D01*
X138877648Y-81121500D01*
X138877649Y-81121500D01*
X139082351Y-81121500D01*
X139082352Y-81121500D01*
X139284534Y-81089477D01*
X139479219Y-81026220D01*
X139661610Y-80933287D01*
X139822614Y-80816312D01*
X139827213Y-80812971D01*
X139827215Y-80812968D01*
X139827219Y-80812966D01*
X139971966Y-80668219D01*
X139971968Y-80668215D01*
X139971971Y-80668213D01*
X140092284Y-80502614D01*
X140092286Y-80502611D01*
X140092287Y-80502610D01*
X140139516Y-80409917D01*
X140187489Y-80359123D01*
X140255310Y-80342328D01*
X140321445Y-80364865D01*
X140360483Y-80409917D01*
X140360486Y-80409921D01*
X140407715Y-80502614D01*
X140528028Y-80668213D01*
X140672786Y-80812971D01*
X140827749Y-80925556D01*
X140838390Y-80933287D01*
X140954607Y-80992503D01*
X141020776Y-81026218D01*
X141020778Y-81026218D01*
X141020781Y-81026220D01*
X141125137Y-81060127D01*
X141215465Y-81089477D01*
X141316557Y-81105488D01*
X141417648Y-81121500D01*
X141417649Y-81121500D01*
X141622351Y-81121500D01*
X141622352Y-81121500D01*
X141824534Y-81089477D01*
X142019219Y-81026220D01*
X142201610Y-80933287D01*
X142362614Y-80816312D01*
X142367213Y-80812971D01*
X142367215Y-80812968D01*
X142367219Y-80812966D01*
X142511966Y-80668219D01*
X142511968Y-80668215D01*
X142511971Y-80668213D01*
X142632284Y-80502614D01*
X142632286Y-80502611D01*
X142632287Y-80502610D01*
X142679795Y-80409369D01*
X142727770Y-80358574D01*
X142795591Y-80341779D01*
X142861725Y-80364316D01*
X142900765Y-80409371D01*
X142906607Y-80420838D01*
X142906608Y-80420838D01*
X143568871Y-79758575D01*
X143584755Y-79817853D01*
X143651898Y-79934147D01*
X143746853Y-80029102D01*
X143863147Y-80096245D01*
X143922424Y-80112128D01*
X143218238Y-80816312D01*
X143378650Y-80932859D01*
X143560968Y-81025755D01*
X143755582Y-81088990D01*
X143957683Y-81121000D01*
X144162317Y-81121000D01*
X144364417Y-81088990D01*
X144559031Y-81025755D01*
X144741349Y-80932859D01*
X144901759Y-80816312D01*
X144901760Y-80816312D01*
X144197575Y-80112128D01*
X144256853Y-80096245D01*
X144373147Y-80029102D01*
X144468102Y-79934147D01*
X144535245Y-79817853D01*
X144551128Y-79758575D01*
X145213390Y-80420837D01*
X145219235Y-80409368D01*
X145267210Y-80358572D01*
X145335031Y-80341777D01*
X145401165Y-80364314D01*
X145440204Y-80409367D01*
X145440485Y-80409918D01*
X145487716Y-80502614D01*
X145608029Y-80668213D01*
X145752787Y-80812971D01*
X145907750Y-80925556D01*
X145918391Y-80933287D01*
X146034608Y-80992503D01*
X146100777Y-81026218D01*
X146100779Y-81026218D01*
X146100782Y-81026220D01*
X146205138Y-81060127D01*
X146295466Y-81089477D01*
X146396558Y-81105488D01*
X146497649Y-81121500D01*
X146497650Y-81121500D01*
X146702352Y-81121500D01*
X146702353Y-81121500D01*
X146904535Y-81089477D01*
X147099220Y-81026220D01*
X147281611Y-80933287D01*
X147442615Y-80816312D01*
X147447214Y-80812971D01*
X147447216Y-80812968D01*
X147447220Y-80812966D01*
X147591967Y-80668219D01*
X147591969Y-80668215D01*
X147591972Y-80668213D01*
X147644733Y-80595590D01*
X147712288Y-80502610D01*
X147805221Y-80320219D01*
X147868478Y-80125534D01*
X147900501Y-79923352D01*
X147900501Y-79318648D01*
X147870002Y-79126088D01*
X147868478Y-79116465D01*
X147805219Y-78921776D01*
X147753952Y-78821160D01*
X147712288Y-78739390D01*
X147704557Y-78728749D01*
X147591972Y-78573786D01*
X147447214Y-78429028D01*
X147281614Y-78308715D01*
X147281613Y-78308714D01*
X147281611Y-78308713D01*
X147224654Y-78279691D01*
X147099224Y-78215781D01*
X146904535Y-78152522D01*
X146729996Y-78124878D01*
X146702353Y-78120500D01*
X146497649Y-78120500D01*
X146473330Y-78124351D01*
X146295466Y-78152522D01*
X146100777Y-78215781D01*
X145918387Y-78308715D01*
X145752787Y-78429028D01*
X145608029Y-78573786D01*
X145487716Y-78739386D01*
X145440205Y-78832631D01*
X145392230Y-78883427D01*
X145324409Y-78900222D01*
X145258274Y-78877684D01*
X145219235Y-78832631D01*
X145213390Y-78821161D01*
X144551127Y-79483423D01*
X144535245Y-79424147D01*
X144468102Y-79307853D01*
X144373147Y-79212898D01*
X144256853Y-79145755D01*
X144197575Y-79129872D01*
X144901760Y-78425687D01*
X144901759Y-78425686D01*
X144741349Y-78309140D01*
X144559031Y-78216244D01*
X144364417Y-78153009D01*
X144162317Y-78121000D01*
X143957683Y-78121000D01*
X143755582Y-78153009D01*
X143560968Y-78216244D01*
X143378647Y-78309142D01*
X143218239Y-78425684D01*
X143218238Y-78425686D01*
X143922424Y-79129871D01*
X143863147Y-79145755D01*
X143746853Y-79212898D01*
X143651898Y-79307853D01*
X143584755Y-79424147D01*
X143568871Y-79483424D01*
X142906607Y-78821160D01*
X142900765Y-78832628D01*
X142852791Y-78883424D01*
X142784970Y-78900220D01*
X142718835Y-78877683D01*
X142679795Y-78832629D01*
X142668990Y-78811424D01*
X142632287Y-78739390D01*
X142624556Y-78728749D01*
X142511971Y-78573786D01*
X142367213Y-78429028D01*
X142201613Y-78308715D01*
X142201612Y-78308714D01*
X142201610Y-78308713D01*
X142144653Y-78279691D01*
X142019223Y-78215781D01*
X141824534Y-78152522D01*
X141649995Y-78124878D01*
X141622352Y-78120500D01*
X141417648Y-78120500D01*
X141393329Y-78124351D01*
X141215465Y-78152522D01*
X141020776Y-78215781D01*
X140838386Y-78308715D01*
X140672786Y-78429028D01*
X140528028Y-78573786D01*
X140407715Y-78739386D01*
X140360485Y-78832080D01*
X140312510Y-78882876D01*
X140244689Y-78899671D01*
X140178554Y-78877134D01*
X140139515Y-78832080D01*
X140133951Y-78821160D01*
X140092287Y-78739390D01*
X140084556Y-78728749D01*
X139971971Y-78573786D01*
X139827217Y-78429032D01*
X139827212Y-78429028D01*
X139781615Y-78395900D01*
X139738949Y-78340571D01*
X139730500Y-78295582D01*
X139730500Y-75147079D01*
X139701659Y-75002092D01*
X139701658Y-75002091D01*
X139701658Y-75002087D01*
X139700793Y-74999999D01*
X139645087Y-74865511D01*
X139645080Y-74865498D01*
X139562952Y-74742585D01*
X139562951Y-74742584D01*
X139458416Y-74638049D01*
X133258421Y-68438052D01*
X133258414Y-68438046D01*
X133158818Y-68371499D01*
X133158817Y-68371499D01*
X133135495Y-68355916D01*
X133135488Y-68355912D01*
X132998917Y-68299343D01*
X132998907Y-68299340D01*
X132853920Y-68270500D01*
X132853918Y-68270500D01*
X123542230Y-68270500D01*
X123475191Y-68250815D01*
X123454549Y-68234181D01*
X122566819Y-67346451D01*
X122533334Y-67285128D01*
X122530500Y-67258770D01*
X122530500Y-65322063D01*
X122550185Y-65255024D01*
X122602989Y-65209269D01*
X122672147Y-65199325D01*
X122735703Y-65228350D01*
X122754819Y-65249178D01*
X122768418Y-65267896D01*
X122913104Y-65412582D01*
X123078650Y-65532859D01*
X123260968Y-65625754D01*
X123455578Y-65688988D01*
X123510000Y-65697607D01*
X123510000Y-64665560D01*
X123563147Y-64696245D01*
X123692857Y-64731000D01*
X123827143Y-64731000D01*
X123956853Y-64696245D01*
X124010000Y-64665560D01*
X124010000Y-65697606D01*
X124064421Y-65688988D01*
X124259031Y-65625754D01*
X124441349Y-65532859D01*
X124606894Y-65412582D01*
X124606895Y-65412582D01*
X124751582Y-65267895D01*
X124751582Y-65267894D01*
X124871861Y-65102347D01*
X124919234Y-65009371D01*
X124967208Y-64958575D01*
X125035028Y-64941779D01*
X125101164Y-64964316D01*
X125140203Y-65009369D01*
X125187713Y-65102611D01*
X125308028Y-65268213D01*
X125452786Y-65412971D01*
X125607749Y-65525556D01*
X125618390Y-65533287D01*
X125734607Y-65592503D01*
X125800776Y-65626218D01*
X125800778Y-65626218D01*
X125800781Y-65626220D01*
X125905137Y-65660127D01*
X125995465Y-65689477D01*
X126096557Y-65705488D01*
X126197648Y-65721500D01*
X126197649Y-65721500D01*
X126402351Y-65721500D01*
X126402352Y-65721500D01*
X126604534Y-65689477D01*
X126799219Y-65626220D01*
X126981610Y-65533287D01*
X127074590Y-65465732D01*
X127147213Y-65412971D01*
X127147215Y-65412968D01*
X127147219Y-65412966D01*
X127291966Y-65268219D01*
X127291968Y-65268215D01*
X127291971Y-65268213D01*
X127412284Y-65102614D01*
X127412286Y-65102611D01*
X127412287Y-65102610D01*
X127459516Y-65009917D01*
X127507489Y-64959123D01*
X127575310Y-64942328D01*
X127641445Y-64964865D01*
X127680485Y-65009919D01*
X127727715Y-65102614D01*
X127848028Y-65268213D01*
X127992786Y-65412971D01*
X128147749Y-65525556D01*
X128158390Y-65533287D01*
X128274607Y-65592503D01*
X128340776Y-65626218D01*
X128340778Y-65626218D01*
X128340781Y-65626220D01*
X128445137Y-65660127D01*
X128535465Y-65689477D01*
X128636557Y-65705488D01*
X128737648Y-65721500D01*
X128737649Y-65721500D01*
X128942351Y-65721500D01*
X128942352Y-65721500D01*
X129144534Y-65689477D01*
X129339219Y-65626220D01*
X129521610Y-65533287D01*
X129614590Y-65465732D01*
X129687213Y-65412971D01*
X129687215Y-65412968D01*
X129687219Y-65412966D01*
X129831966Y-65268219D01*
X129831968Y-65268215D01*
X129831971Y-65268213D01*
X129952284Y-65102614D01*
X129952286Y-65102611D01*
X129952287Y-65102610D01*
X129999516Y-65009917D01*
X130047489Y-64959123D01*
X130115310Y-64942328D01*
X130181445Y-64964865D01*
X130220485Y-65009919D01*
X130267715Y-65102614D01*
X130388028Y-65268213D01*
X130532786Y-65412971D01*
X130687749Y-65525556D01*
X130698390Y-65533287D01*
X130814607Y-65592503D01*
X130880776Y-65626218D01*
X130880778Y-65626218D01*
X130880781Y-65626220D01*
X130985137Y-65660127D01*
X131075465Y-65689477D01*
X131176557Y-65705488D01*
X131277648Y-65721500D01*
X131277649Y-65721500D01*
X131482351Y-65721500D01*
X131482352Y-65721500D01*
X131684534Y-65689477D01*
X131879219Y-65626220D01*
X132061610Y-65533287D01*
X132154590Y-65465732D01*
X132227213Y-65412971D01*
X132227215Y-65412968D01*
X132227219Y-65412966D01*
X132371966Y-65268219D01*
X132371968Y-65268215D01*
X132371971Y-65268213D01*
X132492284Y-65102614D01*
X132492286Y-65102611D01*
X132492287Y-65102610D01*
X132539516Y-65009917D01*
X132587489Y-64959123D01*
X132655310Y-64942328D01*
X132721445Y-64964865D01*
X132760485Y-65009919D01*
X132807715Y-65102614D01*
X132928028Y-65268213D01*
X133072786Y-65412971D01*
X133227749Y-65525556D01*
X133238390Y-65533287D01*
X133354607Y-65592503D01*
X133420776Y-65626218D01*
X133420778Y-65626218D01*
X133420781Y-65626220D01*
X133525137Y-65660127D01*
X133615465Y-65689477D01*
X133716557Y-65705488D01*
X133817648Y-65721500D01*
X133817649Y-65721500D01*
X134022351Y-65721500D01*
X134022352Y-65721500D01*
X134224534Y-65689477D01*
X134419219Y-65626220D01*
X134601610Y-65533287D01*
X134694590Y-65465732D01*
X134767213Y-65412971D01*
X134767215Y-65412968D01*
X134767219Y-65412966D01*
X134911966Y-65268219D01*
X134911968Y-65268215D01*
X134911971Y-65268213D01*
X135032284Y-65102614D01*
X135032286Y-65102611D01*
X135032287Y-65102610D01*
X135079516Y-65009917D01*
X135127489Y-64959123D01*
X135195310Y-64942328D01*
X135261445Y-64964865D01*
X135300485Y-65009919D01*
X135347715Y-65102614D01*
X135468028Y-65268213D01*
X135612786Y-65412971D01*
X135767749Y-65525556D01*
X135778390Y-65533287D01*
X135894607Y-65592503D01*
X135960776Y-65626218D01*
X135960778Y-65626218D01*
X135960781Y-65626220D01*
X136065137Y-65660127D01*
X136155465Y-65689477D01*
X136256557Y-65705488D01*
X136357648Y-65721500D01*
X136357649Y-65721500D01*
X136562351Y-65721500D01*
X136562352Y-65721500D01*
X136764534Y-65689477D01*
X136959219Y-65626220D01*
X137141610Y-65533287D01*
X137234590Y-65465732D01*
X137307213Y-65412971D01*
X137307215Y-65412968D01*
X137307219Y-65412966D01*
X137451966Y-65268219D01*
X137451968Y-65268215D01*
X137451971Y-65268213D01*
X137572284Y-65102614D01*
X137572286Y-65102611D01*
X137572287Y-65102610D01*
X137619516Y-65009917D01*
X137667489Y-64959123D01*
X137735310Y-64942328D01*
X137801445Y-64964865D01*
X137840485Y-65009919D01*
X137887715Y-65102614D01*
X138008028Y-65268213D01*
X138152786Y-65412971D01*
X138307749Y-65525556D01*
X138318390Y-65533287D01*
X138434607Y-65592503D01*
X138500776Y-65626218D01*
X138500778Y-65626218D01*
X138500781Y-65626220D01*
X138605137Y-65660127D01*
X138695465Y-65689477D01*
X138796557Y-65705488D01*
X138897648Y-65721500D01*
X138897649Y-65721500D01*
X139102351Y-65721500D01*
X139102352Y-65721500D01*
X139304534Y-65689477D01*
X139499219Y-65626220D01*
X139681610Y-65533287D01*
X139774590Y-65465732D01*
X139847213Y-65412971D01*
X139847215Y-65412968D01*
X139847219Y-65412966D01*
X139991966Y-65268219D01*
X139991968Y-65268215D01*
X139991971Y-65268213D01*
X140112284Y-65102614D01*
X140112286Y-65102611D01*
X140112287Y-65102610D01*
X140159516Y-65009917D01*
X140207489Y-64959123D01*
X140275310Y-64942328D01*
X140341445Y-64964865D01*
X140380485Y-65009919D01*
X140427715Y-65102614D01*
X140548028Y-65268213D01*
X140692786Y-65412971D01*
X140847749Y-65525556D01*
X140858390Y-65533287D01*
X140974607Y-65592503D01*
X141040776Y-65626218D01*
X141040778Y-65626218D01*
X141040781Y-65626220D01*
X141145137Y-65660127D01*
X141235465Y-65689477D01*
X141336557Y-65705488D01*
X141437648Y-65721500D01*
X141437649Y-65721500D01*
X141642351Y-65721500D01*
X141642352Y-65721500D01*
X141844534Y-65689477D01*
X142039219Y-65626220D01*
X142221610Y-65533287D01*
X142314590Y-65465732D01*
X142387213Y-65412971D01*
X142387215Y-65412968D01*
X142387219Y-65412966D01*
X142531966Y-65268219D01*
X142531968Y-65268215D01*
X142531971Y-65268213D01*
X142652284Y-65102614D01*
X142652286Y-65102611D01*
X142652287Y-65102610D01*
X142699516Y-65009917D01*
X142747489Y-64959123D01*
X142815310Y-64942328D01*
X142881445Y-64964865D01*
X142920485Y-65009919D01*
X142967715Y-65102614D01*
X143088028Y-65268213D01*
X143232786Y-65412971D01*
X143387749Y-65525556D01*
X143398390Y-65533287D01*
X143514607Y-65592503D01*
X143580776Y-65626218D01*
X143580778Y-65626218D01*
X143580781Y-65626220D01*
X143685137Y-65660127D01*
X143775465Y-65689477D01*
X143876557Y-65705488D01*
X143977648Y-65721500D01*
X143977649Y-65721500D01*
X144182351Y-65721500D01*
X144182352Y-65721500D01*
X144384534Y-65689477D01*
X144579219Y-65626220D01*
X144761610Y-65533287D01*
X144854590Y-65465732D01*
X144927213Y-65412971D01*
X144927215Y-65412968D01*
X144927219Y-65412966D01*
X145071966Y-65268219D01*
X145071968Y-65268215D01*
X145071971Y-65268213D01*
X145192284Y-65102614D01*
X145192286Y-65102611D01*
X145192287Y-65102610D01*
X145239516Y-65009917D01*
X145287489Y-64959123D01*
X145355310Y-64942328D01*
X145421445Y-64964865D01*
X145460485Y-65009919D01*
X145507715Y-65102614D01*
X145628028Y-65268213D01*
X145772786Y-65412971D01*
X145927749Y-65525556D01*
X145938390Y-65533287D01*
X146054607Y-65592503D01*
X146120776Y-65626218D01*
X146120778Y-65626218D01*
X146120781Y-65626220D01*
X146225137Y-65660127D01*
X146315465Y-65689477D01*
X146416557Y-65705488D01*
X146517648Y-65721500D01*
X146517649Y-65721500D01*
X146722351Y-65721500D01*
X146722352Y-65721500D01*
X146924534Y-65689477D01*
X147119219Y-65626220D01*
X147301610Y-65533287D01*
X147394590Y-65465732D01*
X147467213Y-65412971D01*
X147467215Y-65412968D01*
X147467219Y-65412966D01*
X147611966Y-65268219D01*
X147611968Y-65268215D01*
X147611971Y-65268213D01*
X147664732Y-65195590D01*
X147732287Y-65102610D01*
X147825220Y-64920219D01*
X147888477Y-64725534D01*
X147920500Y-64523352D01*
X147920500Y-63918648D01*
X147888477Y-63716466D01*
X147825220Y-63521781D01*
X147825218Y-63521778D01*
X147825218Y-63521776D01*
X147732420Y-63339652D01*
X147732287Y-63339390D01*
X147661142Y-63241466D01*
X147611971Y-63173786D01*
X147467213Y-63029028D01*
X147301613Y-62908715D01*
X147301612Y-62908714D01*
X147301610Y-62908713D01*
X147244653Y-62879691D01*
X147119223Y-62815781D01*
X146924534Y-62752522D01*
X146749995Y-62724878D01*
X146722352Y-62720500D01*
X146517648Y-62720500D01*
X146493329Y-62724351D01*
X146315465Y-62752522D01*
X146120776Y-62815781D01*
X145938386Y-62908715D01*
X145772786Y-63029028D01*
X145628028Y-63173786D01*
X145507715Y-63339386D01*
X145460485Y-63432080D01*
X145412510Y-63482876D01*
X145344689Y-63499671D01*
X145278554Y-63477134D01*
X145239515Y-63432080D01*
X145192420Y-63339652D01*
X145192287Y-63339390D01*
X145121142Y-63241466D01*
X145071971Y-63173786D01*
X144927213Y-63029028D01*
X144761613Y-62908715D01*
X144761612Y-62908714D01*
X144761610Y-62908713D01*
X144704653Y-62879691D01*
X144579223Y-62815781D01*
X144384534Y-62752522D01*
X144209995Y-62724878D01*
X144182352Y-62720500D01*
X143977648Y-62720500D01*
X143953329Y-62724351D01*
X143775465Y-62752522D01*
X143580776Y-62815781D01*
X143398386Y-62908715D01*
X143232786Y-63029028D01*
X143088028Y-63173786D01*
X142967715Y-63339386D01*
X142920485Y-63432080D01*
X142872510Y-63482876D01*
X142804689Y-63499671D01*
X142738554Y-63477134D01*
X142699515Y-63432080D01*
X142652420Y-63339652D01*
X142652287Y-63339390D01*
X142581142Y-63241466D01*
X142531971Y-63173786D01*
X142387213Y-63029028D01*
X142221613Y-62908715D01*
X142221612Y-62908714D01*
X142221610Y-62908713D01*
X142164653Y-62879691D01*
X142039223Y-62815781D01*
X141844534Y-62752522D01*
X141669995Y-62724878D01*
X141642352Y-62720500D01*
X141437648Y-62720500D01*
X141413329Y-62724351D01*
X141235465Y-62752522D01*
X141040776Y-62815781D01*
X140858386Y-62908715D01*
X140692786Y-63029028D01*
X140548028Y-63173786D01*
X140427715Y-63339386D01*
X140380485Y-63432080D01*
X140332510Y-63482876D01*
X140264689Y-63499671D01*
X140198554Y-63477134D01*
X140159515Y-63432080D01*
X140112420Y-63339652D01*
X140112287Y-63339390D01*
X140041142Y-63241466D01*
X139991971Y-63173786D01*
X139847213Y-63029028D01*
X139681613Y-62908715D01*
X139681612Y-62908714D01*
X139681610Y-62908713D01*
X139624653Y-62879691D01*
X139499223Y-62815781D01*
X139304534Y-62752522D01*
X139129995Y-62724878D01*
X139102352Y-62720500D01*
X138897648Y-62720500D01*
X138873329Y-62724351D01*
X138695465Y-62752522D01*
X138500776Y-62815781D01*
X138318386Y-62908715D01*
X138152786Y-63029028D01*
X138008028Y-63173786D01*
X137887715Y-63339386D01*
X137840485Y-63432080D01*
X137792510Y-63482876D01*
X137724689Y-63499671D01*
X137658554Y-63477134D01*
X137619515Y-63432080D01*
X137572420Y-63339652D01*
X137572287Y-63339390D01*
X137501142Y-63241466D01*
X137451971Y-63173786D01*
X137307213Y-63029028D01*
X137141613Y-62908715D01*
X137141612Y-62908714D01*
X137141610Y-62908713D01*
X137084653Y-62879691D01*
X136959223Y-62815781D01*
X136764534Y-62752522D01*
X136589995Y-62724878D01*
X136562352Y-62720500D01*
X136357648Y-62720500D01*
X136333329Y-62724351D01*
X136155465Y-62752522D01*
X135960776Y-62815781D01*
X135778386Y-62908715D01*
X135612786Y-63029028D01*
X135468028Y-63173786D01*
X135347715Y-63339386D01*
X135300485Y-63432080D01*
X135252510Y-63482876D01*
X135184689Y-63499671D01*
X135118554Y-63477134D01*
X135079515Y-63432080D01*
X135032420Y-63339652D01*
X135032287Y-63339390D01*
X134961142Y-63241466D01*
X134911971Y-63173786D01*
X134767213Y-63029028D01*
X134601613Y-62908715D01*
X134601612Y-62908714D01*
X134601610Y-62908713D01*
X134544653Y-62879691D01*
X134419223Y-62815781D01*
X134224534Y-62752522D01*
X134049995Y-62724878D01*
X134022352Y-62720500D01*
X133817648Y-62720500D01*
X133793329Y-62724351D01*
X133615465Y-62752522D01*
X133420776Y-62815781D01*
X133238386Y-62908715D01*
X133072786Y-63029028D01*
X132928028Y-63173786D01*
X132807715Y-63339386D01*
X132760485Y-63432080D01*
X132712510Y-63482876D01*
X132644689Y-63499671D01*
X132578554Y-63477134D01*
X132539515Y-63432080D01*
X132492420Y-63339652D01*
X132492287Y-63339390D01*
X132421142Y-63241466D01*
X132371971Y-63173786D01*
X132227213Y-63029028D01*
X132061613Y-62908715D01*
X132061612Y-62908714D01*
X132061610Y-62908713D01*
X132004653Y-62879691D01*
X131879223Y-62815781D01*
X131684534Y-62752522D01*
X131509995Y-62724878D01*
X131482352Y-62720500D01*
X131277648Y-62720500D01*
X131253329Y-62724351D01*
X131075465Y-62752522D01*
X130880776Y-62815781D01*
X130698386Y-62908715D01*
X130532786Y-63029028D01*
X130388028Y-63173786D01*
X130267715Y-63339386D01*
X130220485Y-63432080D01*
X130172510Y-63482876D01*
X130104689Y-63499671D01*
X130038554Y-63477134D01*
X129999515Y-63432080D01*
X129952420Y-63339652D01*
X129952287Y-63339390D01*
X129881142Y-63241466D01*
X129831971Y-63173786D01*
X129687213Y-63029028D01*
X129521613Y-62908715D01*
X129521612Y-62908714D01*
X129521610Y-62908713D01*
X129464653Y-62879691D01*
X129339223Y-62815781D01*
X129144534Y-62752522D01*
X128969995Y-62724878D01*
X128942352Y-62720500D01*
X128737648Y-62720500D01*
X128713329Y-62724351D01*
X128535465Y-62752522D01*
X128340776Y-62815781D01*
X128158386Y-62908715D01*
X127992786Y-63029028D01*
X127848028Y-63173786D01*
X127727715Y-63339386D01*
X127680485Y-63432080D01*
X127632510Y-63482876D01*
X127564689Y-63499671D01*
X127498554Y-63477134D01*
X127459515Y-63432080D01*
X127412420Y-63339652D01*
X127412287Y-63339390D01*
X127341142Y-63241466D01*
X127291971Y-63173786D01*
X127147213Y-63029028D01*
X126981613Y-62908715D01*
X126981612Y-62908714D01*
X126981610Y-62908713D01*
X126924653Y-62879691D01*
X126799223Y-62815781D01*
X126604534Y-62752522D01*
X126429995Y-62724878D01*
X126402352Y-62720500D01*
X126197648Y-62720500D01*
X126173329Y-62724351D01*
X125995465Y-62752522D01*
X125800776Y-62815781D01*
X125618386Y-62908715D01*
X125452786Y-63029028D01*
X125308028Y-63173786D01*
X125187713Y-63339388D01*
X125140203Y-63432630D01*
X125092228Y-63483426D01*
X125024407Y-63500220D01*
X124958272Y-63477682D01*
X124919234Y-63432628D01*
X124871861Y-63339652D01*
X124751582Y-63174105D01*
X124751582Y-63174104D01*
X124606895Y-63029417D01*
X124441349Y-62909140D01*
X124259029Y-62816244D01*
X124064413Y-62753009D01*
X124010000Y-62744390D01*
X124010000Y-63776439D01*
X123956853Y-63745755D01*
X123827143Y-63711000D01*
X123692857Y-63711000D01*
X123563147Y-63745755D01*
X123510000Y-63776439D01*
X123510000Y-62744390D01*
X123455586Y-62753009D01*
X123260970Y-62816244D01*
X123078650Y-62909140D01*
X122913105Y-63029417D01*
X122913104Y-63029417D01*
X122768414Y-63174107D01*
X122754817Y-63192823D01*
X122699487Y-63235488D01*
X122629873Y-63241466D01*
X122568079Y-63208859D01*
X122533722Y-63148020D01*
X122530500Y-63119936D01*
X122530500Y-61347079D01*
X122501659Y-61202092D01*
X122501658Y-61202091D01*
X122501658Y-61202087D01*
X122501656Y-61202082D01*
X122445087Y-61065511D01*
X122445080Y-61065498D01*
X122362952Y-60942585D01*
X122362951Y-60942584D01*
X122258416Y-60838049D01*
X119016819Y-57596451D01*
X118983334Y-57535128D01*
X118980500Y-57508770D01*
X118980500Y-56120994D01*
X121674556Y-56120994D01*
X121674556Y-56121005D01*
X121694310Y-56435004D01*
X121694311Y-56435011D01*
X121753270Y-56744083D01*
X121850497Y-57043316D01*
X121850499Y-57043321D01*
X121984461Y-57328003D01*
X121984464Y-57328009D01*
X122153051Y-57593661D01*
X122153054Y-57593665D01*
X122353606Y-57836090D01*
X122353608Y-57836092D01*
X122353610Y-57836094D01*
X122469496Y-57944918D01*
X122582968Y-58051476D01*
X122582978Y-58051484D01*
X122837504Y-58236408D01*
X122837509Y-58236410D01*
X122837516Y-58236416D01*
X123113234Y-58387994D01*
X123113239Y-58387996D01*
X123113241Y-58387997D01*
X123113242Y-58387998D01*
X123405771Y-58503818D01*
X123405774Y-58503819D01*
X123710523Y-58582065D01*
X123710527Y-58582066D01*
X123776010Y-58590338D01*
X124022670Y-58621499D01*
X124022679Y-58621499D01*
X124022682Y-58621500D01*
X124022684Y-58621500D01*
X124337316Y-58621500D01*
X124337318Y-58621500D01*
X124337321Y-58621499D01*
X124337329Y-58621499D01*
X124523593Y-58597968D01*
X124649473Y-58582066D01*
X124954225Y-58503819D01*
X124954228Y-58503818D01*
X125246757Y-58387998D01*
X125246758Y-58387997D01*
X125246756Y-58387997D01*
X125246766Y-58387994D01*
X125522484Y-58236416D01*
X125777030Y-58051478D01*
X126006390Y-57836094D01*
X126206947Y-57593663D01*
X126375537Y-57328007D01*
X126509503Y-57043315D01*
X126606731Y-56744079D01*
X126665688Y-56435015D01*
X126685444Y-56121000D01*
X126670432Y-55882396D01*
X126665689Y-55806995D01*
X126665688Y-55806988D01*
X126665688Y-55806985D01*
X126606731Y-55497921D01*
X126509503Y-55198685D01*
X126491231Y-55159856D01*
X126421108Y-55010837D01*
X126375537Y-54913993D01*
X126206947Y-54648337D01*
X126191528Y-54629699D01*
X126163961Y-54565500D01*
X126175480Y-54496586D01*
X126199386Y-54462980D01*
X126491371Y-54170995D01*
X128474592Y-54170995D01*
X128474592Y-54171004D01*
X128494196Y-54432620D01*
X128494197Y-54432625D01*
X128552576Y-54688402D01*
X128552578Y-54688411D01*
X128552580Y-54688416D01*
X128648432Y-54932643D01*
X128779614Y-55159857D01*
X128911736Y-55325533D01*
X128943198Y-55364985D01*
X129124753Y-55533441D01*
X129135521Y-55543433D01*
X129352296Y-55691228D01*
X129352301Y-55691230D01*
X129352302Y-55691231D01*
X129352303Y-55691232D01*
X129477843Y-55751688D01*
X129588673Y-55805061D01*
X129588674Y-55805061D01*
X129588677Y-55805063D01*
X129839385Y-55882396D01*
X130098818Y-55921500D01*
X130361182Y-55921500D01*
X130620615Y-55882396D01*
X130871323Y-55805063D01*
X131107704Y-55691228D01*
X131324479Y-55543433D01*
X131516805Y-55364981D01*
X131680386Y-55159857D01*
X131811568Y-54932643D01*
X131907420Y-54688416D01*
X131965802Y-54432630D01*
X131965803Y-54432620D01*
X131985408Y-54171004D01*
X131985408Y-54170995D01*
X131965803Y-53909379D01*
X131965802Y-53909374D01*
X131965802Y-53909370D01*
X131907420Y-53653584D01*
X131811568Y-53409357D01*
X131680386Y-53182143D01*
X131516805Y-52977019D01*
X131516804Y-52977018D01*
X131516801Y-52977014D01*
X131324479Y-52798567D01*
X131107704Y-52650772D01*
X131107700Y-52650770D01*
X131107697Y-52650768D01*
X131107696Y-52650767D01*
X130871325Y-52536938D01*
X130871327Y-52536938D01*
X130620623Y-52459606D01*
X130620619Y-52459605D01*
X130620615Y-52459604D01*
X130495823Y-52440794D01*
X130361187Y-52420500D01*
X130361182Y-52420500D01*
X130098818Y-52420500D01*
X130098812Y-52420500D01*
X129937247Y-52444853D01*
X129839385Y-52459604D01*
X129839382Y-52459605D01*
X129839376Y-52459606D01*
X129588673Y-52536938D01*
X129352303Y-52650767D01*
X129352302Y-52650768D01*
X129135520Y-52798567D01*
X128943198Y-52977014D01*
X128779614Y-53182143D01*
X128648432Y-53409356D01*
X128552582Y-53653578D01*
X128552576Y-53653597D01*
X128494197Y-53909374D01*
X128494196Y-53909379D01*
X128474592Y-54170995D01*
X126491371Y-54170995D01*
X132054549Y-48607819D01*
X132115872Y-48574334D01*
X132142230Y-48571500D01*
X136720520Y-48571500D01*
X136818062Y-48552096D01*
X136865513Y-48542658D01*
X137002095Y-48486084D01*
X137051329Y-48453186D01*
X137125016Y-48403952D01*
X139794136Y-45734829D01*
X139855457Y-45701346D01*
X139925148Y-45706330D01*
X139931217Y-45708778D01*
X139969732Y-45725507D01*
X139969737Y-45725509D01*
X140235372Y-45799937D01*
X140475643Y-45832960D01*
X140508667Y-45837500D01*
X140508668Y-45837500D01*
X140784533Y-45837500D01*
X140813996Y-45833450D01*
X141057828Y-45799937D01*
X141323463Y-45725509D01*
X141576489Y-45615604D01*
X141812193Y-45472269D01*
X142026185Y-45298174D01*
X142214477Y-45096563D01*
X142373563Y-44871189D01*
X142500478Y-44626253D01*
X142592860Y-44366316D01*
X142648986Y-44096222D01*
X142667812Y-43821000D01*
X143705388Y-43821000D01*
X143724213Y-44096216D01*
X143780340Y-44366318D01*
X143780341Y-44366321D01*
X143872720Y-44626249D01*
X143872719Y-44626249D01*
X143999637Y-44871190D01*
X143999641Y-44871196D01*
X144158720Y-45096560D01*
X144347018Y-45298177D01*
X144561000Y-45472264D01*
X144561003Y-45472266D01*
X144561007Y-45472269D01*
X144684661Y-45547465D01*
X144796712Y-45615605D01*
X144933811Y-45675155D01*
X145049737Y-45725509D01*
X145315372Y-45799937D01*
X145555643Y-45832960D01*
X145588667Y-45837500D01*
X145588668Y-45837500D01*
X145864533Y-45837500D01*
X145893996Y-45833450D01*
X146137828Y-45799937D01*
X146403463Y-45725509D01*
X146656489Y-45615604D01*
X146892193Y-45472269D01*
X147106185Y-45298174D01*
X147294477Y-45096563D01*
X147453563Y-44871189D01*
X147580478Y-44626253D01*
X147672860Y-44366316D01*
X147728986Y-44096222D01*
X147747812Y-43821000D01*
X147728986Y-43545778D01*
X147672860Y-43275684D01*
X147638145Y-43178007D01*
X147580479Y-43015750D01*
X147580480Y-43015750D01*
X147453562Y-42770809D01*
X147453558Y-42770803D01*
X147294479Y-42545439D01*
X147106181Y-42343822D01*
X146892199Y-42169735D01*
X146892188Y-42169728D01*
X146656487Y-42026394D01*
X146403466Y-41916492D01*
X146403464Y-41916491D01*
X146403463Y-41916491D01*
X146327890Y-41895316D01*
X146137833Y-41842064D01*
X146137829Y-41842063D01*
X146137828Y-41842063D01*
X146001180Y-41823281D01*
X145864533Y-41804500D01*
X145864532Y-41804500D01*
X145588668Y-41804500D01*
X145588667Y-41804500D01*
X145315372Y-41842063D01*
X145315366Y-41842064D01*
X145049733Y-41916492D01*
X144796712Y-42026394D01*
X144561011Y-42169728D01*
X144561000Y-42169735D01*
X144347018Y-42343822D01*
X144158720Y-42545439D01*
X143999641Y-42770803D01*
X143999637Y-42770809D01*
X143872720Y-43015750D01*
X143780341Y-43275678D01*
X143780340Y-43275681D01*
X143724213Y-43545783D01*
X143705388Y-43821000D01*
X142667812Y-43821000D01*
X142648986Y-43545778D01*
X142592860Y-43275684D01*
X142558145Y-43178007D01*
X142500479Y-43015750D01*
X142500480Y-43015750D01*
X142373562Y-42770809D01*
X142373558Y-42770803D01*
X142214479Y-42545439D01*
X142026181Y-42343822D01*
X141812199Y-42169735D01*
X141812188Y-42169728D01*
X141576487Y-42026394D01*
X141323466Y-41916492D01*
X141323464Y-41916491D01*
X141323463Y-41916491D01*
X141247890Y-41895316D01*
X141057833Y-41842064D01*
X141057829Y-41842063D01*
X141057828Y-41842063D01*
X140921180Y-41823281D01*
X140784533Y-41804500D01*
X140784532Y-41804500D01*
X140508668Y-41804500D01*
X140508667Y-41804500D01*
X140235372Y-41842063D01*
X140235366Y-41842064D01*
X139969733Y-41916492D01*
X139716712Y-42026394D01*
X139481011Y-42169728D01*
X139481000Y-42169735D01*
X139267018Y-42343822D01*
X139078720Y-42545439D01*
X138919641Y-42770803D01*
X138919637Y-42770809D01*
X138792720Y-43015750D01*
X138700341Y-43275678D01*
X138700340Y-43275681D01*
X138644213Y-43545783D01*
X138625388Y-43821000D01*
X138644213Y-44096216D01*
X138700340Y-44366318D01*
X138700341Y-44366321D01*
X138763146Y-44543037D01*
X138767049Y-44612798D01*
X138733987Y-44672243D01*
X136372051Y-47034181D01*
X136310728Y-47067666D01*
X136284370Y-47070500D01*
X131706080Y-47070500D01*
X131561092Y-47099340D01*
X131561086Y-47099342D01*
X131424508Y-47155914D01*
X131424496Y-47155921D01*
X131375269Y-47188813D01*
X131301588Y-47238044D01*
X131301580Y-47238050D01*
X124882674Y-53656956D01*
X124821351Y-53690441D01*
X124764156Y-53689379D01*
X124649476Y-53659934D01*
X124649463Y-53659932D01*
X124337329Y-53620500D01*
X124337318Y-53620500D01*
X124022682Y-53620500D01*
X124022670Y-53620500D01*
X123710536Y-53659932D01*
X123710523Y-53659934D01*
X123405774Y-53738180D01*
X123405771Y-53738181D01*
X123113242Y-53854001D01*
X123113241Y-53854002D01*
X122837516Y-54005584D01*
X122837504Y-54005591D01*
X122582978Y-54190515D01*
X122582968Y-54190523D01*
X122353608Y-54405907D01*
X122353606Y-54405909D01*
X122153054Y-54648334D01*
X122153051Y-54648338D01*
X121984464Y-54913990D01*
X121984461Y-54913996D01*
X121850499Y-55198678D01*
X121850497Y-55198683D01*
X121753270Y-55497916D01*
X121694311Y-55806988D01*
X121694310Y-55806995D01*
X121674556Y-56120994D01*
X118980500Y-56120994D01*
X118980500Y-55830400D01*
X119000185Y-55763361D01*
X119050696Y-55718681D01*
X119107704Y-55691228D01*
X119324479Y-55543433D01*
X119516805Y-55364981D01*
X119680386Y-55159857D01*
X119811568Y-54932643D01*
X119907420Y-54688416D01*
X119965802Y-54432630D01*
X119965803Y-54432620D01*
X119985408Y-54171004D01*
X119985408Y-54170995D01*
X119965803Y-53909379D01*
X119965802Y-53909374D01*
X119965802Y-53909370D01*
X119907420Y-53653584D01*
X119811568Y-53409357D01*
X119680386Y-53182143D01*
X119516805Y-52977019D01*
X119516804Y-52977018D01*
X119516801Y-52977014D01*
X119324479Y-52798567D01*
X119107704Y-52650772D01*
X119107700Y-52650770D01*
X119107697Y-52650768D01*
X119107696Y-52650767D01*
X118871325Y-52536938D01*
X118871327Y-52536938D01*
X118620623Y-52459606D01*
X118620619Y-52459605D01*
X118620615Y-52459604D01*
X118495823Y-52440794D01*
X118361187Y-52420500D01*
X118361182Y-52420500D01*
X118098818Y-52420500D01*
X118098812Y-52420500D01*
X117937247Y-52444853D01*
X117839385Y-52459604D01*
X117839382Y-52459605D01*
X117839376Y-52459606D01*
X117588673Y-52536938D01*
X117352303Y-52650767D01*
X117352302Y-52650768D01*
X117135520Y-52798567D01*
X116943198Y-52977014D01*
X116779614Y-53182143D01*
X116711887Y-53299449D01*
X116661320Y-53347665D01*
X116592713Y-53360887D01*
X116527848Y-53334919D01*
X116487320Y-53278005D01*
X116480500Y-53237449D01*
X116480500Y-44020393D01*
X116500185Y-43953354D01*
X116552989Y-43907599D01*
X116622147Y-43897655D01*
X116677385Y-43920075D01*
X116837504Y-44036408D01*
X116837509Y-44036410D01*
X116837516Y-44036416D01*
X117113234Y-44187994D01*
X117113239Y-44187996D01*
X117113241Y-44187997D01*
X117113242Y-44187998D01*
X117405771Y-44303818D01*
X117405774Y-44303819D01*
X117649204Y-44366321D01*
X117710527Y-44382066D01*
X117776010Y-44390338D01*
X118022670Y-44421499D01*
X118022679Y-44421499D01*
X118022682Y-44421500D01*
X118022684Y-44421500D01*
X118337316Y-44421500D01*
X118337318Y-44421500D01*
X118337321Y-44421499D01*
X118337329Y-44421499D01*
X118523593Y-44397968D01*
X118649473Y-44382066D01*
X118954225Y-44303819D01*
X118954228Y-44303818D01*
X119246757Y-44187998D01*
X119246758Y-44187997D01*
X119246756Y-44187997D01*
X119246766Y-44187994D01*
X119522484Y-44036416D01*
X119777030Y-43851478D01*
X120006390Y-43636094D01*
X120206947Y-43393663D01*
X120375537Y-43128007D01*
X120509503Y-42843315D01*
X120606731Y-42544079D01*
X120665688Y-42235015D01*
X120669795Y-42169735D01*
X120682299Y-41970994D01*
X127724556Y-41970994D01*
X127724556Y-41971005D01*
X127744310Y-42285004D01*
X127744311Y-42285011D01*
X127744312Y-42285015D01*
X127793990Y-42545439D01*
X127803270Y-42594083D01*
X127900497Y-42893316D01*
X127900499Y-42893321D01*
X128034461Y-43178003D01*
X128034464Y-43178009D01*
X128203051Y-43443661D01*
X128203054Y-43443665D01*
X128403606Y-43686090D01*
X128403608Y-43686092D01*
X128403610Y-43686094D01*
X128579724Y-43851476D01*
X128632968Y-43901476D01*
X128632978Y-43901484D01*
X128887504Y-44086408D01*
X128887509Y-44086410D01*
X128887516Y-44086416D01*
X129163234Y-44237994D01*
X129163239Y-44237996D01*
X129163241Y-44237997D01*
X129163242Y-44237998D01*
X129455771Y-44353818D01*
X129455774Y-44353819D01*
X129719371Y-44421499D01*
X129760527Y-44432066D01*
X129826010Y-44440338D01*
X130072670Y-44471499D01*
X130072679Y-44471499D01*
X130072682Y-44471500D01*
X130072684Y-44471500D01*
X130387316Y-44471500D01*
X130387318Y-44471500D01*
X130387321Y-44471499D01*
X130387329Y-44471499D01*
X130573593Y-44447968D01*
X130699473Y-44432066D01*
X131004225Y-44353819D01*
X131004228Y-44353818D01*
X131296757Y-44237998D01*
X131296758Y-44237997D01*
X131296756Y-44237997D01*
X131296766Y-44237994D01*
X131572484Y-44086416D01*
X131827030Y-43901478D01*
X131912730Y-43821000D01*
X133545388Y-43821000D01*
X133564213Y-44096216D01*
X133620340Y-44366318D01*
X133620341Y-44366321D01*
X133712720Y-44626249D01*
X133712719Y-44626249D01*
X133839637Y-44871190D01*
X133839641Y-44871196D01*
X133998720Y-45096560D01*
X134187018Y-45298177D01*
X134401000Y-45472264D01*
X134401003Y-45472266D01*
X134401007Y-45472269D01*
X134524661Y-45547465D01*
X134636712Y-45615605D01*
X134773811Y-45675155D01*
X134889737Y-45725509D01*
X135155372Y-45799937D01*
X135395643Y-45832960D01*
X135428667Y-45837500D01*
X135428668Y-45837500D01*
X135704533Y-45837500D01*
X135733996Y-45833450D01*
X135977828Y-45799937D01*
X136243463Y-45725509D01*
X136496489Y-45615604D01*
X136732193Y-45472269D01*
X136946185Y-45298174D01*
X137134477Y-45096563D01*
X137293563Y-44871189D01*
X137420478Y-44626253D01*
X137512860Y-44366316D01*
X137568986Y-44096222D01*
X137587812Y-43821000D01*
X137568986Y-43545778D01*
X137512860Y-43275684D01*
X137478145Y-43178007D01*
X137420479Y-43015750D01*
X137420480Y-43015750D01*
X137293562Y-42770809D01*
X137293558Y-42770803D01*
X137134479Y-42545439D01*
X136946181Y-42343822D01*
X136732199Y-42169735D01*
X136732188Y-42169728D01*
X136496487Y-42026394D01*
X136243466Y-41916492D01*
X136243464Y-41916491D01*
X136243463Y-41916491D01*
X136167890Y-41895316D01*
X135977833Y-41842064D01*
X135977829Y-41842063D01*
X135977828Y-41842063D01*
X135841180Y-41823281D01*
X135704533Y-41804500D01*
X135704532Y-41804500D01*
X135428668Y-41804500D01*
X135428667Y-41804500D01*
X135155372Y-41842063D01*
X135155366Y-41842064D01*
X134889733Y-41916492D01*
X134636712Y-42026394D01*
X134401011Y-42169728D01*
X134401000Y-42169735D01*
X134187018Y-42343822D01*
X133998720Y-42545439D01*
X133839641Y-42770803D01*
X133839637Y-42770809D01*
X133712720Y-43015750D01*
X133620341Y-43275678D01*
X133620340Y-43275681D01*
X133564213Y-43545783D01*
X133545388Y-43821000D01*
X131912730Y-43821000D01*
X132056390Y-43686094D01*
X132256947Y-43443663D01*
X132425537Y-43178007D01*
X132559503Y-42893315D01*
X132656731Y-42594079D01*
X132715688Y-42285015D01*
X132718834Y-42235011D01*
X132735444Y-41971005D01*
X132735444Y-41970994D01*
X132715689Y-41656995D01*
X132715688Y-41656988D01*
X132715688Y-41656985D01*
X132656731Y-41347921D01*
X132559503Y-41048685D01*
X132535971Y-40998678D01*
X132425538Y-40763996D01*
X132425537Y-40763993D01*
X132256947Y-40498337D01*
X132256945Y-40498334D01*
X132056393Y-40255909D01*
X132056391Y-40255907D01*
X132003146Y-40205906D01*
X131827030Y-40040522D01*
X131827027Y-40040520D01*
X131827021Y-40040515D01*
X131572495Y-39855591D01*
X131572488Y-39855586D01*
X131572484Y-39855584D01*
X131296766Y-39704006D01*
X131296763Y-39704004D01*
X131296758Y-39704002D01*
X131296757Y-39704001D01*
X131004228Y-39588181D01*
X131004225Y-39588180D01*
X130699476Y-39509934D01*
X130699463Y-39509932D01*
X130387329Y-39470500D01*
X130387318Y-39470500D01*
X130072682Y-39470500D01*
X130072670Y-39470500D01*
X129760536Y-39509932D01*
X129760523Y-39509934D01*
X129455774Y-39588180D01*
X129455771Y-39588181D01*
X129163242Y-39704001D01*
X129163241Y-39704002D01*
X128887516Y-39855584D01*
X128887504Y-39855591D01*
X128632978Y-40040515D01*
X128632968Y-40040523D01*
X128403608Y-40255907D01*
X128403606Y-40255909D01*
X128203054Y-40498334D01*
X128203051Y-40498338D01*
X128034464Y-40763990D01*
X128034461Y-40763996D01*
X127900499Y-41048678D01*
X127900497Y-41048683D01*
X127803270Y-41347916D01*
X127744311Y-41656988D01*
X127744310Y-41656995D01*
X127724556Y-41970994D01*
X120682299Y-41970994D01*
X120685444Y-41921005D01*
X120685444Y-41920994D01*
X120665689Y-41606995D01*
X120665688Y-41606988D01*
X120665688Y-41606985D01*
X120606731Y-41297921D01*
X120509503Y-40998685D01*
X120375537Y-40713993D01*
X120206947Y-40448337D01*
X120206945Y-40448334D01*
X120006393Y-40205909D01*
X120006391Y-40205907D01*
X119830276Y-40040523D01*
X119777030Y-39990522D01*
X119777027Y-39990520D01*
X119777021Y-39990515D01*
X119522495Y-39805591D01*
X119522488Y-39805586D01*
X119522484Y-39805584D01*
X119246766Y-39654006D01*
X119246763Y-39654004D01*
X119246758Y-39654002D01*
X119246757Y-39654001D01*
X118954228Y-39538181D01*
X118954225Y-39538180D01*
X118649476Y-39459934D01*
X118649463Y-39459932D01*
X118337329Y-39420500D01*
X118337318Y-39420500D01*
X118022682Y-39420500D01*
X118022670Y-39420500D01*
X117710536Y-39459932D01*
X117710523Y-39459934D01*
X117405774Y-39538180D01*
X117405771Y-39538181D01*
X117113242Y-39654001D01*
X117113241Y-39654002D01*
X116837516Y-39805584D01*
X116837504Y-39805591D01*
X116677385Y-39921924D01*
X116611578Y-39945404D01*
X116543525Y-39929578D01*
X116494830Y-39879472D01*
X116480500Y-39821606D01*
X116480500Y-37495500D01*
X116500185Y-37428461D01*
X116552989Y-37382706D01*
X116604500Y-37371500D01*
X148355500Y-37371500D01*
X148422539Y-37391185D01*
G37*
%TD.AperFunction*%
%TD*%
%TA.AperFunction,NonConductor*%
G36*
X116685703Y-55010837D02*
G01*
X116711886Y-55042549D01*
X116779614Y-55159857D01*
X116911736Y-55325533D01*
X116943198Y-55364985D01*
X117124753Y-55533441D01*
X117135521Y-55543433D01*
X117352296Y-55691228D01*
X117409303Y-55718681D01*
X117461161Y-55765501D01*
X117479500Y-55830400D01*
X117479500Y-57944918D01*
X117479500Y-57944920D01*
X117479499Y-57944920D01*
X117508340Y-58089907D01*
X117508343Y-58089917D01*
X117564914Y-58226492D01*
X117597812Y-58275727D01*
X117597813Y-58275730D01*
X117647046Y-58349414D01*
X117647052Y-58349421D01*
X120585952Y-61288319D01*
X120619437Y-61349642D01*
X120614453Y-61419334D01*
X120572581Y-61475267D01*
X120507117Y-61499684D01*
X120498271Y-61500000D01*
X116604500Y-61500000D01*
X116537461Y-61480315D01*
X116491706Y-61427511D01*
X116480500Y-61376000D01*
X116480500Y-55104550D01*
X116500185Y-55037511D01*
X116552989Y-54991756D01*
X116622147Y-54981812D01*
X116685703Y-55010837D01*
G37*
%TD.AperFunction*%
M02*
